<svg width="13" height="18" viewBox="0 0 13 18" fill="none" xmlns="http://www.w3.org/2000/svg">
<path fill-rule="evenodd" clip-rule="evenodd" d="M6.5 17.04L7.131 16.329C7.847 15.509 8.491 14.731 9.064 13.991L9.537 13.367C11.512 10.706 12.5 8.594 12.5 7.033C12.5 3.701 9.814 1 6.5 1C3.186 1 0.5 3.701 0.5 7.033C0.5 8.594 1.488 10.706 3.463 13.367L3.936 13.991C4.75344 15.0384 5.60867 16.0557 6.5 17.041V17.04Z" stroke="white" stroke-linecap="round" stroke-linejoin="round"/>
<path d="M6.5 9.5C7.88071 9.5 9 8.38071 9 7C9 5.61929 7.88071 4.5 6.5 4.5C5.11929 4.5 4 5.61929 4 7C4 8.38071 5.11929 9.5 6.5 9.5Z" stroke="white" stroke-linecap="round" stroke-linejoin="round"/>
</svg>
