<svg width="13" height="13" viewBox="0 0 13 13" fill="none" xmlns="http://www.w3.org/2000/svg">
<path d="M10.5134 1.8125H2.85718C2.70489 1.8125 2.55883 1.873 2.45114 1.98068C2.34346 2.08837 2.28296 2.23443 2.28296 2.38672V10.043C2.28296 10.1953 2.34346 10.3413 2.45114 10.449C2.55883 10.5567 2.70489 10.6172 2.85718 10.6172H10.5134C10.6657 10.6172 10.8118 10.5567 10.9195 10.449C11.0271 10.3413 11.0876 10.1953 11.0876 10.043V2.38672C11.0876 2.23443 11.0271 2.08837 10.9195 1.98068C10.8118 1.873 10.6657 1.8125 10.5134 1.8125ZM2.85718 2.19531H10.5134C10.5642 2.19531 10.6129 2.21548 10.6488 2.25137C10.6847 2.28727 10.7048 2.33595 10.7048 2.38672V7.55469H9.14009C9.06457 7.55424 8.98972 7.56882 8.91989 7.59757C8.85007 7.62632 8.78665 7.66868 8.73335 7.72217L7.80981 8.6457C7.79265 8.664 7.77189 8.67855 7.74883 8.68843C7.72577 8.69831 7.70092 8.70331 7.67583 8.70313H5.69478C5.6696 8.70393 5.64456 8.69921 5.62141 8.68928C5.59826 8.67936 5.57757 8.66449 5.56079 8.6457L4.63726 7.72217C4.58395 7.66868 4.52054 7.62632 4.45071 7.59757C4.38088 7.56882 4.30603 7.55424 4.23052 7.55469H2.66577V2.38672C2.66577 2.33595 2.68594 2.28727 2.72183 2.25137C2.75773 2.21548 2.80641 2.19531 2.85718 2.19531ZM10.5134 10.2344H2.85718C2.80641 10.2344 2.75773 10.2142 2.72183 10.1783C2.68594 10.1424 2.66577 10.0937 2.66577 10.043V7.9375H4.23052C4.2556 7.93731 4.28046 7.94232 4.30352 7.9522C4.32657 7.96208 4.34734 7.97663 4.3645 7.99492L5.28804 8.91846C5.34134 8.97195 5.40475 9.0143 5.47458 9.04306C5.54441 9.07181 5.61926 9.08639 5.69478 9.08594H7.67583C7.75135 9.08639 7.8262 9.07181 7.89602 9.04306C7.96585 9.0143 8.02926 8.97195 8.08257 8.91846L9.0061 7.99492C9.02288 7.97614 9.04357 7.96126 9.06672 7.95134C9.08987 7.94142 9.11492 7.9367 9.14009 7.9375H10.7048V10.043C10.7048 10.0937 10.6847 10.1424 10.6488 10.1783C10.6129 10.2142 10.5642 10.2344 10.5134 10.2344ZM4.92437 5.8751C4.90646 5.85719 4.89225 5.83593 4.88256 5.81253C4.87286 5.78913 4.86788 5.76405 4.86788 5.73872C4.86788 5.71339 4.87286 5.68831 4.88256 5.66491C4.89225 5.64151 4.90646 5.62025 4.92437 5.60234C4.94227 5.58443 4.96354 5.57023 4.98694 5.56054C5.01034 5.55084 5.03541 5.54585 5.06074 5.54585C5.08607 5.54585 5.11115 5.55084 5.13455 5.56054C5.15795 5.57023 5.17921 5.58443 5.19712 5.60234L6.4939 6.89912V3.53516C6.4939 3.48439 6.51406 3.43571 6.54996 3.39981C6.58585 3.36392 6.63454 3.34375 6.6853 3.34375C6.73607 3.34375 6.78475 3.36392 6.82065 3.39981C6.85654 3.43571 6.87671 3.48439 6.87671 3.53516V6.89912L8.17349 5.60234C8.20966 5.56617 8.25871 5.54585 8.30986 5.54585C8.36101 5.54585 8.41007 5.56617 8.44624 5.60234C8.48241 5.63851 8.50273 5.68757 8.50273 5.73872C8.50273 5.78987 8.48241 5.83893 8.44624 5.8751L6.81929 7.49727L6.79058 7.52119H6.78579L6.75708 7.53555H6.61353L6.58482 7.52119H6.58003L6.55132 7.49727L4.92437 5.8751Z" fill="#1F3F7F"/>
</svg>
