<svg width="46" height="46" viewBox="0 0 46 46" fill="none" xmlns="http://www.w3.org/2000/svg">
<path d="M20.5163 30.4884V21.9688H19.5052C18.7811 22.3548 18.0813 22.7848 17.4097 23.2562V24.3663C18.0086 23.9558 18.9574 23.376 19.419 23.1252H19.4381V30.4884H20.5163V30.4884ZM22.4138 28.4041C22.4888 29.4263 23.3625 30.6497 25.1338 30.6497C27.1431 30.6497 28.3283 28.9471 28.3283 26.0641C28.3283 22.9751 27.0808 21.8027 25.2089 21.8027C23.7299 21.8027 22.3387 22.8761 22.3387 24.6921C22.3387 26.5449 23.6548 27.5192 25.0156 27.5192C26.2072 27.5192 26.9802 26.9186 27.2246 26.2574H27.2677C27.2613 28.3593 26.5314 29.7138 25.1833 29.7138C24.1228 29.7138 23.5733 28.995 23.5063 28.4041H22.4138V28.4041ZM27.1304 24.7033C27.1304 25.815 26.2375 26.588 25.2393 26.588C24.2793 26.588 23.412 25.9763 23.412 24.6713C23.412 23.3568 24.3416 22.7387 25.2776 22.7387C26.2886 22.7387 27.1304 23.3744 27.1304 24.7033Z" fill="#333333"/>
<path d="M15.8124 10.2227C16.0243 10.2227 16.2274 10.3068 16.3771 10.4566C16.5269 10.6063 16.6111 10.8095 16.6111 11.0213V11.8199H29.3888V11.0213C29.3888 10.8095 29.473 10.6063 29.6227 10.4566C29.7725 10.3068 29.9756 10.2227 30.1874 10.2227C30.3993 10.2227 30.6024 10.3068 30.7521 10.4566C30.9019 10.6063 30.9861 10.8095 30.9861 11.0213V11.8199H32.5833C33.4305 11.8199 34.243 12.1564 34.8421 12.7555C35.4412 13.3546 35.7777 14.1671 35.7777 15.0143V32.5838C35.7777 33.431 35.4412 34.2435 34.8421 34.8426C34.243 35.4417 33.4305 35.7782 32.5833 35.7782H13.4166C12.5694 35.7782 11.7569 35.4417 11.1578 34.8426C10.5587 34.2435 10.2222 33.431 10.2222 32.5838V15.0143C10.2222 14.1671 10.5587 13.3546 11.1578 12.7555C11.7569 12.1564 12.5694 11.8199 13.4166 11.8199H15.0138V11.0213C15.0138 10.8095 15.098 10.6063 15.2477 10.4566C15.3975 10.3068 15.6006 10.2227 15.8124 10.2227V10.2227ZM13.4166 13.4171C12.993 13.4171 12.5867 13.5854 12.2872 13.8849C11.9877 14.1845 11.8194 14.5907 11.8194 15.0143V32.5838C11.8194 33.0074 11.9877 33.4136 12.2872 33.7132C12.5867 34.0127 12.993 34.181 13.4166 34.181H32.5833C33.0069 34.181 33.4131 34.0127 33.7127 33.7132C34.0122 33.4136 34.1805 33.0074 34.1805 32.5838V15.0143C34.1805 14.5907 34.0122 14.1845 33.7127 13.8849C33.4131 13.5854 33.0069 13.4171 32.5833 13.4171H13.4166Z" fill="#333333"/>
<path d="M14.2153 16.6111C14.2153 16.3993 14.2995 16.1962 14.4492 16.0464C14.599 15.8966 14.8021 15.8125 15.0139 15.8125H30.9862C31.198 15.8125 31.4011 15.8966 31.5509 16.0464C31.7006 16.1962 31.7848 16.3993 31.7848 16.6111V18.2083C31.7848 18.4201 31.7006 18.6233 31.5509 18.773C31.4011 18.9228 31.198 19.0069 30.9862 19.0069H15.0139C14.8021 19.0069 14.599 18.9228 14.4492 18.773C14.2995 18.6233 14.2153 18.4201 14.2153 18.2083V16.6111Z" fill="#1F3F7F"/>
</svg>
