<svg width="24" height="24" viewBox="0 0 24 24" fill="none" xmlns="http://www.w3.org/2000/svg">
<path d="M21.75 8.25C21.8495 8.25 21.9448 8.21049 22.0152 8.14017C22.0855 8.06984 22.125 7.97446 22.125 7.875C22.125 7.77554 22.0855 7.68016 22.0152 7.60983C21.9448 7.53951 21.8495 7.5 21.75 7.5H16.125V1.875C16.125 1.77554 16.0855 1.68016 16.0152 1.60984C15.9448 1.53951 15.8495 1.5 15.75 1.5C15.6505 1.5 15.5552 1.53951 15.4848 1.60984C15.4145 1.68016 15.375 1.77554 15.375 1.875V7.5H8.625V1.875C8.625 1.77554 8.58549 1.68016 8.51517 1.60984C8.44484 1.53951 8.34946 1.5 8.25 1.5C8.15054 1.5 8.05516 1.53951 7.98483 1.60984C7.91451 1.68016 7.875 1.77554 7.875 1.875V7.5H2.25C2.15054 7.5 2.05516 7.53951 1.98484 7.60983C1.91451 7.68016 1.875 7.77554 1.875 7.875C1.875 7.97446 1.91451 8.06984 1.98484 8.14017C2.05516 8.21049 2.15054 8.25 2.25 8.25H7.875V15H2.25C2.15054 15 2.05516 15.0395 1.98484 15.1098C1.91451 15.1802 1.875 15.2755 1.875 15.375C1.875 15.4745 1.91451 15.5698 1.98484 15.6402C2.05516 15.7105 2.15054 15.75 2.25 15.75H7.875V22.125C7.875 22.2245 7.91451 22.3198 7.98483 22.3902C8.05516 22.4605 8.15054 22.5 8.25 22.5C8.34946 22.5 8.44484 22.4605 8.51517 22.3902C8.58549 22.3198 8.625 22.2245 8.625 22.125V15.75H15.375V22.125C15.375 22.2245 15.4145 22.3198 15.4848 22.3902C15.5552 22.4605 15.6505 22.5 15.75 22.5C15.8495 22.5 15.9448 22.4605 16.0152 22.3902C16.0855 22.3198 16.125 22.2245 16.125 22.125V15.75H21.75C21.8495 15.75 21.9448 15.7105 22.0152 15.6402C22.0855 15.5698 22.125 15.4745 22.125 15.375C22.125 15.2755 22.0855 15.1802 22.0152 15.1098C21.9448 15.0395 21.8495 15 21.75 15H16.125V8.25H21.75ZM15.375 15H8.625V8.25H15.375V15Z" fill="#ECECEC"/>
<path d="M23.625 22.875V1.125C23.625 0.50475 23.1203 0 22.5 0H1.5C0.87975 0 0.375 0.50475 0.375 1.125V22.875C0.375 23.4953 0.87975 24 1.5 24H22.5C23.1203 24 23.625 23.4953 23.625 22.875ZM1.125 22.875V1.125C1.125 1.02554 1.16451 0.930161 1.23483 0.859835C1.30516 0.789509 1.40054 0.75 1.5 0.75H22.5C22.5995 0.75 22.6948 0.789509 22.7652 0.859835C22.8355 0.930161 22.875 1.02554 22.875 1.125V22.875C22.875 22.9745 22.8355 23.0698 22.7652 23.1402C22.6948 23.2105 22.5995 23.25 22.5 23.25H1.5C1.40054 23.25 1.30516 23.2105 1.23483 23.1402C1.16451 23.0698 1.125 22.9745 1.125 22.875Z" fill="#ECECEC"/>
</svg>
