<svg width="454" height="455" viewBox="0 0 454 455" fill="none" xmlns="http://www.w3.org/2000/svg">
<g clip-path="url(#clip0_867_12622)">
<path d="M453.94 347.445H0.541016V347.672H453.94V347.445Z" fill="#EBEBEB"/>
<path d="M408.51 362.036H378.477V362.262H408.51V362.036Z" fill="#EBEBEB"/>
<path d="M300.89 364.501H293.01V364.728H300.89V364.501Z" fill="#EBEBEB"/>
<path d="M377.569 353.62H360.168V353.847H377.569V353.62Z" fill="#EBEBEB"/>
<path d="M87.2779 355.144H48.1133V355.37H87.2779V355.144Z" fill="#EBEBEB"/>
<path d="M101.096 355.144H95.3555V355.37H101.096V355.144Z" fill="#EBEBEB"/>
<path d="M204.707 358.97H119.758V359.196H204.707V358.97Z" fill="#EBEBEB"/>
<path d="M215.452 307.002H40.3582C38.9865 306.999 37.6719 306.453 36.7028 305.482C35.7337 304.511 35.1895 303.195 35.1895 301.824V55.6916C35.2014 54.3278 35.7509 53.0237 36.7187 52.0628C37.6865 51.1018 38.9944 50.5614 40.3582 50.5591H215.452C216.825 50.5591 218.142 51.1046 219.113 52.0756C220.084 53.0467 220.63 54.3637 220.63 55.7369V301.824C220.63 303.197 220.084 304.514 219.113 305.485C218.142 306.456 216.825 307.002 215.452 307.002ZM40.3582 50.7404C39.0467 50.7428 37.7896 51.2655 36.8631 52.1938C35.9365 53.122 35.4162 54.38 35.4162 55.6916V301.824C35.4162 303.135 35.9365 304.393 36.8631 305.322C37.7896 306.25 39.0467 306.772 40.3582 306.775H215.452C216.764 306.772 218.022 306.25 218.95 305.322C219.878 304.394 220.401 303.136 220.403 301.824V55.6916C220.401 54.3792 219.878 53.1212 218.95 52.1932C218.022 51.2652 216.764 50.7428 215.452 50.7404H40.3582Z" fill="#EBEBEB"/>
<path d="M411.603 307.002H236.5C235.128 306.999 233.812 306.453 232.841 305.482C231.871 304.512 231.325 303.196 231.322 301.824V55.6916C231.337 54.3269 231.888 53.0229 232.857 52.0622C233.827 51.1014 235.135 50.5614 236.5 50.5591H411.603C412.965 50.5638 414.271 51.1052 415.236 52.0659C416.202 53.0267 416.751 54.3293 416.762 55.6916V301.824C416.762 303.194 416.219 304.508 415.252 305.479C414.285 306.449 412.973 306.997 411.603 307.002ZM236.5 50.7404C235.188 50.7428 233.93 51.2652 233.002 52.1932C232.074 53.1212 231.551 54.3792 231.549 55.6916V301.824C231.551 303.136 232.074 304.394 233.002 305.322C233.93 306.25 235.188 306.772 236.5 306.775H411.603C412.915 306.772 414.173 306.25 415.101 305.322C416.029 304.394 416.551 303.136 416.554 301.824V55.6916C416.551 54.3792 416.029 53.1212 415.101 52.1932C414.173 51.2652 412.915 50.7428 411.603 50.7404H236.5Z" fill="#EBEBEB"/>
<path d="M115.352 101.548H61.2617V182.181H115.352V101.548Z" fill="#E6E6E6"/>
<path d="M115.353 182.19H116.205L116.205 101.558H115.353L115.353 182.19Z" fill="#E0E0E0"/>
<path d="M112.297 179.125V104.613H64.3273V179.125H112.297Z" fill="#FAFAFA"/>
<path d="M97.3795 135.753C102.387 130.745 102.387 122.627 97.3795 117.619C92.3722 112.612 84.2536 112.612 79.2463 117.619C74.2389 122.627 74.2389 130.745 79.2463 135.753C84.2536 140.76 92.3722 140.76 97.3795 135.753Z" fill="#F0F0F0"/>
<path d="M104.125 146.924H72.4863V150.162H104.125V146.924Z" fill="#EBEBEB"/>
<path d="M104.125 155.539H72.4863V158.776H104.125V155.539Z" fill="#EBEBEB"/>
<path d="M104.125 164.145H72.4863V167.382H104.125V164.145Z" fill="#EBEBEB"/>
<path d="M183.325 113.165H129.234V193.797H183.325V113.165Z" fill="#E6E6E6"/>
<path d="M183.323 193.788H184.176V113.156H183.323V193.788Z" fill="#E0E0E0"/>
<path d="M180.268 190.741V116.229H132.298V190.741H180.268Z" fill="#FAFAFA"/>
<path d="M168.75 141.229C170.376 134.337 166.108 127.431 159.216 125.804C152.324 124.178 145.418 128.446 143.791 135.338C142.164 142.23 146.433 149.136 153.325 150.763C160.217 152.389 167.123 148.121 168.75 141.229Z" fill="#F0F0F0"/>
<path d="M172.099 158.541H140.461V161.778H172.099V158.541Z" fill="#EBEBEB"/>
<path d="M172.099 167.146H140.461V170.383H172.099V167.146Z" fill="#EBEBEB"/>
<path d="M172.099 175.752H140.461V178.989H172.099V175.752Z" fill="#EBEBEB"/>
<path d="M374.079 227.385H137.686V229.906H374.079V227.385Z" fill="#EBEBEB"/>
<path d="M374.068 229.906H393.211V227.385H374.068V229.906Z" fill="#E0E0E0"/>
<path d="M374.069 229.906H140.922V347.445H374.069V229.906Z" fill="#F5F5F5"/>
<path d="M193.216 229.906H191.91V347.445H193.216V229.906Z" fill="#E6E6E6"/>
<path d="M254.878 253.809H253.572V347.445H254.878V253.809Z" fill="#E6E6E6"/>
<path d="M192.564 324.194V322.888H140.931V324.194H192.564Z" fill="#E6E6E6"/>
<path d="M192.564 300.944V299.638H140.931V300.944H192.564Z" fill="#E6E6E6"/>
<path d="M192.564 277.694V276.388H140.931V277.694H192.564Z" fill="#E6E6E6"/>
<path d="M374.078 254.462V253.156L140.931 253.156V254.462H374.078Z" fill="#E6E6E6"/>
<path d="M374.078 347.445H390.826V229.906H374.078V347.445Z" fill="#EBEBEB"/>
<path d="M378.013 70.2456H295.494V187.748H378.013V70.2456Z" fill="#FAFAFA"/>
<path d="M378.921 71.6605H294.589C294.404 71.6605 294.22 71.6238 294.049 71.5526C293.878 71.4814 293.723 71.3771 293.592 71.2456C293.461 71.1141 293.358 70.9581 293.288 70.7866C293.218 70.615 293.182 70.4312 293.184 70.2459C293.182 70.061 293.218 69.8777 293.288 69.7066C293.358 69.5355 293.462 69.3801 293.593 69.2493C293.723 69.1186 293.879 69.0151 294.05 68.9449C294.221 68.8747 294.404 68.8392 294.589 68.8404H378.921C379.107 68.8392 379.29 68.8746 379.462 68.9447C379.634 69.0148 379.79 69.1182 379.921 69.2488C380.053 69.3794 380.157 69.5348 380.228 69.7059C380.299 69.877 380.336 70.0606 380.336 70.2459C380.336 70.6211 380.187 70.9809 379.922 71.2462C379.656 71.5115 379.297 71.6605 378.921 71.6605Z" fill="#EBEBEB"/>
<path d="M378.921 189.163H294.589C294.404 189.163 294.22 189.126 294.049 189.055C293.878 188.984 293.723 188.88 293.592 188.748C293.461 188.617 293.358 188.461 293.288 188.289C293.218 188.117 293.182 187.934 293.184 187.748C293.182 187.563 293.218 187.38 293.288 187.209C293.358 187.038 293.462 186.883 293.593 186.752C293.723 186.621 293.879 186.518 294.05 186.447C294.221 186.377 294.404 186.342 294.589 186.343H378.921C379.107 186.342 379.29 186.377 379.462 186.447C379.634 186.517 379.79 186.621 379.921 186.751C380.053 186.882 380.157 187.037 380.228 187.208C380.299 187.379 380.336 187.563 380.336 187.748C380.336 188.124 380.187 188.483 379.922 188.749C379.656 189.014 379.297 189.163 378.921 189.163Z" fill="#EBEBEB"/>
<path d="M339.846 99.2632H333.662C328.358 99.2632 324.059 103.563 324.059 108.866V128.199C324.059 133.503 328.358 137.802 333.662 137.802H339.846C345.15 137.802 349.449 133.503 349.449 128.199V108.866C349.449 103.563 345.15 99.2632 339.846 99.2632Z" fill="#F0F0F0"/>
<path d="M329.499 176.949C328.056 176.949 326.673 176.375 325.652 175.355C324.632 174.335 324.059 172.951 324.059 171.508V130.403C324.059 128.96 324.632 127.576 325.652 126.555C326.673 125.535 328.056 124.962 329.499 124.962C330.942 124.962 332.326 125.535 333.347 126.555C334.367 127.576 334.94 128.96 334.94 130.403V171.508C334.94 172.951 334.367 174.335 333.347 175.355C332.326 176.375 330.942 176.949 329.499 176.949Z" fill="#F0F0F0"/>
<path d="M318.892 103.933H318.883C317.09 103.933 315.637 105.387 315.637 107.179V131.736C315.637 133.528 317.09 134.982 318.883 134.982H318.892C320.685 134.982 322.138 133.528 322.138 131.736V107.179C322.138 105.387 320.685 103.933 318.892 103.933Z" fill="#F0F0F0"/>
<path d="M354.627 134.991C353.766 134.986 352.942 134.641 352.334 134.032C351.726 133.422 351.383 132.597 351.381 131.736V107.189C351.383 106.327 351.726 105.502 352.334 104.892C352.942 104.283 353.766 103.938 354.627 103.933C355.489 103.938 356.314 104.282 356.924 104.892C357.533 105.501 357.878 106.327 357.883 107.189V131.736C357.878 132.597 357.533 133.423 356.924 134.032C356.314 134.642 355.489 134.986 354.627 134.991Z" fill="#F0F0F0"/>
<path d="M344.009 176.949C342.566 176.949 341.182 176.375 340.162 175.355C339.142 174.335 338.568 172.951 338.568 171.508V130.403C338.568 128.96 339.142 127.576 340.162 126.555C341.182 125.535 342.566 124.962 344.009 124.962C345.452 124.962 346.836 125.535 347.856 126.555C348.877 127.576 349.45 128.96 349.45 130.403V171.508C349.45 172.951 348.877 174.335 347.856 175.355C346.836 176.375 345.452 176.949 344.009 176.949Z" fill="#F0F0F0"/>
<path d="M342.417 93.2942C345.544 90.1672 345.544 85.0974 342.417 81.9705C339.29 78.8436 334.22 78.8436 331.093 81.9705C327.967 85.0974 327.967 90.1672 331.093 93.2941C334.22 96.4211 339.29 96.4211 342.417 93.2942Z" fill="#F0F0F0"/>
<path d="M346.175 204.416H308.189V227.385H346.175V204.416Z" fill="#F5F5F5"/>
<path d="M346.177 227.385H355.535V204.416H346.177V227.385Z" fill="#EBEBEB"/>
<path d="M334.442 213.701H329.373V208.641H324.994V213.701H319.934V218.09H324.994V223.15H329.373V218.09H334.442V213.701Z" fill="white"/>
<path d="M274.927 227.385H271.3V186.751C271.3 184.952 270.946 183.17 270.257 181.508C269.569 179.845 268.559 178.335 267.287 177.063C266.015 175.79 264.504 174.781 262.842 174.093C261.18 173.404 259.398 173.05 257.598 173.05C255.799 173.05 254.017 173.404 252.355 174.093C250.693 174.781 249.182 175.79 247.91 177.063C246.638 178.335 245.628 179.845 244.94 181.508C244.251 183.17 243.897 184.952 243.897 186.751H240.27C240.27 182.155 242.095 177.748 245.345 174.498C248.595 171.248 253.003 169.422 257.598 169.422C262.194 169.422 266.602 171.248 269.852 174.498C273.102 177.748 274.927 182.155 274.927 186.751V227.385Z" fill="#EBEBEB"/>
<path d="M281.684 221.436H278.057V227.385H281.684V221.436Z" fill="#EBEBEB"/>
<path d="M166.332 225.272H162.705V227.385H166.332V225.272Z" fill="#EBEBEB"/>
<path d="M159.901 225.272H156.273V227.385H159.901V225.272Z" fill="#EBEBEB"/>
<path d="M125.508 281.13H78.291V347.445H125.508V281.13Z" fill="#F5F5F5"/>
<path d="M123.666 279.471H80.1211V281.139H123.666V279.471Z" fill="#E6E6E6"/>
<path d="M93.2441 264.509H110.546C114.514 264.509 118.32 266.085 121.126 268.891C123.932 271.697 125.508 275.503 125.508 279.471H78.291C78.2898 277.507 78.6757 275.561 79.4267 273.746C80.1776 271.931 81.2788 270.281 82.6675 268.892C84.0561 267.502 85.7049 266.4 87.5197 265.648C89.3345 264.896 91.2797 264.509 93.2441 264.509Z" fill="#F5F5F5"/>
<path d="M84.5653 340.173H79.5688C77.6449 340.173 75.7997 340.937 74.4392 342.297C73.0788 343.658 72.3145 345.503 72.3145 347.427H91.865C91.865 346.47 91.6759 345.523 91.3085 344.64C90.9411 343.757 90.4027 342.955 89.7243 342.281C89.0458 341.607 88.2407 341.074 87.3553 340.712C86.47 340.35 85.5218 340.167 84.5653 340.173Z" fill="#E6E6E6"/>
<path d="M227.241 388.395C324.343 388.395 403.06 383.799 403.06 378.13C403.06 372.461 324.343 367.865 227.241 367.865C130.139 367.865 51.4219 372.461 51.4219 378.13C51.4219 383.799 130.139 388.395 227.241 388.395Z" fill="#F5F5F5"/>
<path d="M174.384 133.196L170.267 128.154L164.518 131.781C164.518 131.781 167.147 134.593 170.339 138.519L174.384 133.196Z" fill="#B55B52"/>
<path d="M225.718 133.604C225.483 134.111 225.319 134.42 225.12 134.81L224.549 135.898C224.159 136.614 223.778 137.322 223.37 138.02C222.572 139.41 221.734 140.776 220.858 142.118C219.095 144.866 217.151 147.493 215.036 149.98C212.796 152.635 210.272 155.037 207.51 157.144C205.982 158.273 204.355 159.263 202.649 160.1L201.28 160.708L199.838 161.243C199.358 161.415 198.841 161.542 198.333 161.687L197.952 161.796L197.408 161.914C197.009 161.996 196.619 162.05 196.238 162.095C194.851 162.231 193.451 162.158 192.085 161.878C190.966 161.658 189.87 161.333 188.812 160.907C187.047 160.185 185.358 159.289 183.77 158.232C181.022 156.379 178.434 154.298 176.035 152.012C173.704 149.844 171.546 147.605 169.479 145.319C168.445 144.168 167.42 143.025 166.423 141.846C165.425 140.668 164.473 139.534 163.439 138.219L173.469 130.439C174.248 131.427 175.182 132.561 176.08 133.604C176.978 134.646 177.894 135.716 178.855 136.741C180.759 138.781 182.709 140.749 184.713 142.554C186.601 144.287 188.637 145.853 190.798 147.233C191.657 147.783 192.568 148.247 193.518 148.62C194.298 148.919 194.878 148.91 194.706 148.865H194.615C194.615 148.865 194.543 148.865 194.615 148.865L194.769 148.82C194.969 148.738 195.159 148.693 195.368 148.611L195.975 148.348L196.61 148.031C197.517 147.528 198.378 146.949 199.185 146.299C201.039 144.757 202.709 143.007 204.164 141.085C205.755 139.014 207.2 136.836 208.489 134.565C209.154 133.404 209.78 132.225 210.366 131.028C210.665 130.439 210.956 129.84 211.273 129.215L211.672 128.308C211.79 128.036 211.944 127.682 212.008 127.519L225.718 133.604Z" fill="#1F3F7F"/>
<path opacity="0.8" d="M225.718 133.604C225.483 134.111 225.319 134.42 225.12 134.81L224.549 135.898C224.159 136.614 223.778 137.322 223.37 138.02C222.572 139.41 221.734 140.776 220.858 142.118C219.095 144.866 217.151 147.493 215.036 149.98C212.796 152.635 210.272 155.037 207.51 157.144C205.982 158.273 204.355 159.263 202.649 160.1L201.28 160.708L199.838 161.243C199.358 161.415 198.841 161.542 198.333 161.687L197.952 161.796L197.408 161.914C197.009 161.996 196.619 162.05 196.238 162.095C194.851 162.231 193.451 162.158 192.085 161.878C190.966 161.658 189.87 161.333 188.812 160.907C187.047 160.185 185.358 159.289 183.77 158.232C181.022 156.379 178.434 154.298 176.035 152.012C173.704 149.844 171.546 147.605 169.479 145.319C168.445 144.168 167.42 143.025 166.423 141.846C165.425 140.668 164.473 139.534 163.439 138.219L173.469 130.439C174.248 131.427 175.182 132.561 176.08 133.604C176.978 134.646 177.894 135.716 178.855 136.741C180.759 138.781 182.709 140.749 184.713 142.554C186.601 144.287 188.637 145.853 190.798 147.233C191.657 147.783 192.568 148.247 193.518 148.62C194.298 148.919 194.878 148.91 194.706 148.865H194.615C194.615 148.865 194.543 148.865 194.615 148.865L194.769 148.82C194.969 148.738 195.159 148.693 195.368 148.611L195.975 148.348L196.61 148.031C197.517 147.528 198.378 146.949 199.185 146.299C201.039 144.757 202.709 143.007 204.164 141.085C205.755 139.014 207.2 136.836 208.489 134.565C209.154 133.404 209.78 132.225 210.366 131.028C210.665 130.439 210.956 129.84 211.273 129.215L211.672 128.308C211.79 128.036 211.944 127.682 212.008 127.519L225.718 133.604Z" fill="white"/>
<path d="M223.707 278.528H252.978L241.879 223.05H227.543L223.707 278.528Z" fill="#1F3F7F"/>
<path opacity="0.6" d="M223.707 278.528H252.978L241.879 223.05H227.543L223.707 278.528Z" fill="white"/>
<path d="M229.981 369.843H222.519L222.201 352.568H229.664L229.981 369.843Z" fill="#B55B52"/>
<path d="M271.305 369.843H263.842L260.514 352.568H267.977L271.305 369.843Z" fill="#B55B52"/>
<path d="M263.332 368.981H271.674C271.821 368.98 271.964 369.03 272.078 369.123C272.192 369.216 272.271 369.345 272.3 369.489L273.606 376.118C273.635 376.281 273.628 376.449 273.585 376.609C273.542 376.77 273.464 376.919 273.356 377.045C273.249 377.172 273.115 377.273 272.963 377.341C272.812 377.41 272.647 377.444 272.481 377.442C269.562 377.396 268.147 377.224 264.456 377.224C262.189 377.224 257.51 377.46 254.382 377.46C251.253 377.46 250.918 374.367 252.205 374.086C257.982 372.826 260.194 371.094 262.071 369.435C262.423 369.136 262.871 368.975 263.332 368.981Z" fill="#263238"/>
<path d="M222.591 368.981H230.752C230.898 368.981 231.039 369.031 231.152 369.124C231.264 369.217 231.341 369.346 231.368 369.489L232.683 376.1C232.714 376.262 232.708 376.43 232.667 376.59C232.626 376.75 232.549 376.899 232.444 377.026C232.338 377.154 232.206 377.256 232.056 377.326C231.906 377.397 231.742 377.433 231.577 377.433C228.639 377.378 224.395 377.206 220.695 377.206C216.379 377.206 216.025 377.442 210.966 377.442C207.901 377.442 207.13 374.35 208.417 374.069C214.284 372.79 215.672 372.654 220.786 369.535C221.326 369.189 221.95 368.998 222.591 368.981Z" fill="#263238"/>
<path d="M167.485 126.431L162.661 126.359L161.754 132.58C164.825 133.141 167.993 132.827 170.894 131.673L170.813 129.651C170.776 128.79 170.41 127.976 169.791 127.377C169.172 126.779 168.346 126.44 167.485 126.431Z" fill="#B55B52"/>
<path d="M155.115 126.649L156.049 130.576L161.735 132.58L162.66 126.359L155.115 126.649Z" fill="#B55B52"/>
<path opacity="0.2" d="M222.201 352.577L222.364 361.482H229.827L229.664 352.577H222.201Z" fill="black"/>
<path opacity="0.2" d="M267.977 352.577H260.514L262.237 361.482H269.7L267.977 352.577Z" fill="black"/>
<path d="M213.397 128.971C211.33 136.878 207.621 156.827 211.675 188.556H251.574C251.964 182.998 249.425 157.852 253.913 131.673C254.102 130.607 254.071 129.514 253.821 128.461C253.571 127.407 253.108 126.416 252.461 125.549C251.814 124.682 250.995 123.956 250.057 123.417C249.118 122.878 248.079 122.537 247.003 122.414C245.453 122.242 243.812 122.097 242.188 122.015C236.612 121.86 231.031 122.042 225.476 122.56C223.107 122.786 220.762 123.217 218.467 123.847C217.245 124.179 216.133 124.827 215.243 125.727C214.353 126.627 213.716 127.746 213.397 128.971Z" fill="white"/>
<path d="M240.355 106.156C239.149 111.597 238.45 118.37 242.168 122.016C242.168 122.016 239.838 127.547 229.7 127.547C220.432 127.547 225.166 122.016 225.166 122.016C231.287 120.565 231.16 113.038 230.198 108.795L240.355 106.156Z" fill="#B55B52"/>
<path d="M229.237 126.794L227.042 129.215C226.965 129.299 226.911 129.402 226.887 129.514C226.863 129.626 226.87 129.742 226.906 129.85L227.605 131.99C227.643 132.11 227.718 132.215 227.819 132.291C227.919 132.368 228.041 132.411 228.167 132.416L230.534 132.534C230.646 132.539 230.757 132.515 230.857 132.464C230.957 132.413 231.043 132.337 231.105 132.244L232.519 130.167C232.605 130.055 232.651 129.918 232.651 129.777C232.651 129.637 232.605 129.5 232.519 129.387L230.234 126.785C230.174 126.71 230.098 126.65 230.011 126.609C229.924 126.567 229.829 126.547 229.733 126.547C229.637 126.548 229.543 126.571 229.457 126.614C229.371 126.656 229.296 126.718 229.237 126.794Z" fill="#1F3F7F"/>
<path d="M228.683 132.398C228.683 132.398 225.056 159.094 224.975 163.746C225.022 168.139 225.713 172.502 227.024 176.695C227.024 176.695 229.518 171.98 229.944 163.546C230.37 155.113 229.853 137.131 230.044 132.398H228.683Z" fill="#1F3F7F"/>
<path opacity="0.2" d="M230.253 108.804C230.824 111.288 231.097 114.897 229.99 117.763C230.716 118.08 233.708 116.929 234.95 116.14C237.716 114.38 238.786 112.658 239.802 108.985C239.965 108.015 240.146 107.072 240.355 106.156L230.253 108.804Z" fill="black"/>
<path d="M220.786 103.499C221.12 104.347 221.62 105.12 222.257 105.772C222.894 106.425 223.655 106.944 224.495 107.298C226.753 108.205 228.212 106.228 227.85 103.916C227.532 101.839 225.964 98.8467 223.57 98.9102C223.042 98.94 222.53 99.0978 222.077 99.3698C221.624 99.6419 221.244 100.02 220.97 100.472C220.696 100.923 220.536 101.435 220.504 101.962C220.472 102.49 220.569 103.017 220.786 103.499Z" fill="#B55B52"/>
<path opacity="0.2" d="M220.786 103.499C221.12 104.347 221.62 105.12 222.257 105.772C222.894 106.425 223.655 106.944 224.495 107.298C226.753 108.205 228.212 106.228 227.85 103.916C227.532 101.839 225.964 98.8467 223.57 98.9102C223.042 98.94 222.53 99.0978 222.077 99.3698C221.624 99.6419 221.244 100.02 220.97 100.472C220.696 100.923 220.536 101.435 220.504 101.962C220.472 102.49 220.569 103.017 220.786 103.499Z" fill="black"/>
<path d="M229.962 95.3281C229.536 98.52 227.541 100.896 225.51 100.624C223.479 100.352 222.182 97.5407 222.617 94.3397C223.053 91.1387 225.038 88.7628 227.07 89.0349C229.101 89.3069 230.416 92.1271 229.962 95.3281Z" fill="#263238"/>
<path d="M243.928 99.0822C242.114 106.337 241.407 110.653 237.045 113.79C230.498 118.515 222.201 113.654 221.856 106.055C221.539 99.2182 224.577 88.518 232.194 86.7951C233.864 86.4087 235.606 86.4638 237.248 86.9549C238.891 87.446 240.377 88.3562 241.561 89.5959C242.745 90.8357 243.586 92.3623 244.001 94.0256C244.416 95.6889 244.391 97.4316 243.928 99.0822Z" fill="#B55B52"/>
<path d="M231.885 84.2652C227.541 85.172 222.735 88.7175 226.88 91.3019C231.024 93.8863 240.355 94.2853 240.355 94.2853C240.355 94.2853 237.271 101.54 241.488 105.285C242.894 104.587 239.892 110.916 239.892 110.916C241.436 110.384 242.729 109.298 243.519 107.869C246.04 107.225 253.494 95.1739 248.525 91.7644C247.582 84.7367 237.716 83.0047 231.885 84.2652Z" fill="#263238"/>
<path d="M242.366 103.453H242.266L235.737 100.461C235.705 100.452 235.675 100.436 235.649 100.414C235.623 100.392 235.603 100.365 235.588 100.334C235.574 100.303 235.567 100.27 235.566 100.236C235.566 100.202 235.573 100.169 235.587 100.138C235.601 100.107 235.621 100.08 235.646 100.057C235.672 100.035 235.701 100.018 235.734 100.009C235.766 99.9989 235.8 99.9961 235.834 100.001C235.867 100.005 235.899 100.017 235.928 100.035L242.466 103.027C242.522 103.053 242.566 103.1 242.588 103.157C242.61 103.215 242.608 103.279 242.584 103.336C242.562 103.373 242.53 103.405 242.492 103.425C242.453 103.446 242.41 103.456 242.366 103.453Z" fill="white"/>
<path d="M245.676 107.688C244.421 109.077 242.674 109.92 240.806 110.037C238.349 110.163 237.714 107.815 238.893 105.766C239.954 103.952 242.52 101.631 244.733 102.474C246.945 103.317 247.19 105.974 245.676 107.688Z" fill="#B55B52"/>
<path d="M211.671 188.556C211.671 188.556 209.277 244.324 209.531 267.075C209.794 290.734 219.632 359.75 219.632 359.75H232.264C232.264 359.75 231.13 292.112 232.264 268.88C233.497 243.544 237.904 188.556 237.904 188.556H211.671Z" fill="#1F3F7F"/>
<path d="M232.855 354.174C232.918 354.174 233.091 360.014 233.091 360.014H218.528L217.693 353.666L232.855 354.174Z" fill="#263238"/>
<path opacity="0.2" d="M228.766 203.319C228.33 230.994 229.582 247.806 232.674 261.354C233.436 248.151 234.678 230.695 235.775 216.195L228.766 203.319Z" fill="black"/>
<path d="M225.828 188.556C225.828 188.556 232.901 245.557 237.018 266.912C241.552 290.298 258.781 359.75 258.781 359.75H272.447C272.447 359.75 261.665 292.194 259.325 269.07C256.795 243.943 251.554 188.592 251.554 188.592L225.828 188.556Z" fill="#1F3F7F"/>
<path d="M272.118 354.482C272.182 354.482 273.134 360.014 273.134 360.014H258.117L256.467 353.92L272.118 354.482Z" fill="#263238"/>
<path d="M232.582 99.2731C232.464 99.8715 232.065 100.298 231.675 100.234C231.285 100.171 231.068 99.6358 231.176 99.0373C231.285 98.4388 231.693 98.0126 232.083 98.0761C232.473 98.1396 232.682 98.6746 232.582 99.2731Z" fill="#263238"/>
<path d="M225.266 97.5499C225.157 98.1484 224.749 98.5746 224.359 98.5111C223.969 98.4476 223.751 97.9126 223.86 97.3141C223.969 96.7157 224.377 96.2895 224.767 96.3529C225.157 96.4164 225.374 96.9514 225.266 97.5499Z" fill="#263238"/>
<path d="M228.312 99.0459C227.071 100.613 225.625 102.007 224.014 103.19C224.319 103.587 224.708 103.912 225.153 104.141C225.598 104.37 226.089 104.497 226.589 104.514L228.312 99.0459Z" fill="#A02724"/>
<path d="M228.328 106.373C228.283 106.362 228.244 106.335 228.219 106.296C228.194 106.257 228.184 106.21 228.192 106.165C228.201 106.118 228.228 106.076 228.267 106.049C228.306 106.022 228.354 106.011 228.401 106.019C229.137 106.154 229.895 106.117 230.614 105.909C231.333 105.701 231.994 105.329 232.545 104.822C232.576 104.789 232.62 104.769 232.666 104.767C232.711 104.766 232.756 104.782 232.79 104.813C232.823 104.845 232.843 104.888 232.845 104.934C232.847 104.98 232.83 105.025 232.799 105.058C232.212 105.616 231.5 106.027 230.722 106.255C229.945 106.484 229.124 106.524 228.328 106.373Z" fill="#263238"/>
<path d="M236.129 97.3326C236.076 97.3198 236.027 97.2941 235.986 97.2577C235.945 97.2213 235.913 97.1754 235.894 97.124C235.75 96.7144 235.51 96.3451 235.195 96.0469C234.879 95.7488 234.497 95.5305 234.08 95.4102C233.989 95.3906 233.909 95.3358 233.858 95.2576C233.807 95.1795 233.789 95.0844 233.808 94.9931C233.828 94.9014 233.882 94.8209 233.96 94.7685C234.038 94.7161 234.133 94.6958 234.225 94.712C234.766 94.8449 235.265 95.11 235.678 95.4835C236.091 95.8571 236.405 96.3273 236.592 96.852C236.622 96.9412 236.617 97.0385 236.579 97.1243C236.54 97.2102 236.47 97.2781 236.383 97.3145C236.304 97.351 236.214 97.3574 236.129 97.3326Z" fill="#263238"/>
<path d="M223.39 94.6936C223.338 94.6826 223.291 94.6574 223.254 94.621C223.19 94.5537 223.154 94.4645 223.154 94.3717C223.154 94.2789 223.19 94.1897 223.254 94.1223C223.605 93.6806 224.054 93.3269 224.565 93.0892C225.077 92.8515 225.637 92.7364 226.201 92.753C226.246 92.7586 226.29 92.7732 226.33 92.7959C226.369 92.8186 226.404 92.849 226.432 92.8853C226.46 92.9216 226.48 92.9631 226.492 93.0073C226.504 93.0515 226.506 93.0977 226.5 93.143C226.495 93.1895 226.482 93.2347 226.46 93.2759C226.438 93.3171 226.407 93.3535 226.371 93.383C226.335 93.4125 226.293 93.4346 226.248 93.4478C226.204 93.4611 226.157 93.4654 226.11 93.4603C225.664 93.4508 225.222 93.5468 224.82 93.7407C224.418 93.9345 224.068 94.2206 223.798 94.5757C223.75 94.6347 223.685 94.6776 223.612 94.6987C223.539 94.7197 223.462 94.718 223.39 94.6936Z" fill="#263238"/>
<path d="M232.448 103.516C232.269 103.515 232.09 103.499 231.913 103.471C231.488 103.39 231.083 103.226 230.722 102.988C230.361 102.75 230.051 102.442 229.809 102.084C229.5 101.622 229.285 101.105 229.176 100.56C229.067 100.015 229.066 99.4547 229.174 98.9099C229.297 97.9179 229.803 97.0134 230.585 96.3897C231.366 95.7661 232.36 95.4729 233.355 95.5729C234.212 95.7389 234.968 96.2378 235.458 96.9603C236.079 97.8936 236.307 99.0339 236.093 100.134C235.969 101.032 235.539 101.859 234.874 102.476C234.21 103.092 233.353 103.46 232.448 103.516ZM232.811 95.9991C232.018 96.0552 231.268 96.3838 230.69 96.9292C230.111 97.4746 229.739 98.2032 229.637 98.9915C229.442 99.9707 229.641 100.987 230.19 101.821C230.399 102.129 230.667 102.392 230.978 102.596C231.289 102.8 231.638 102.94 232.004 103.009C232.875 103.088 233.742 102.823 234.42 102.27C235.098 101.717 235.532 100.922 235.631 100.052C235.823 99.0722 235.621 98.0558 235.069 97.2233C234.86 96.9147 234.593 96.6508 234.281 96.4468C233.97 96.2429 233.621 96.103 233.255 96.0354C233.108 96.0108 232.959 95.9987 232.811 95.9991Z" fill="white"/>
<path d="M229.4 99.1821C229.362 99.1818 229.326 99.1726 229.292 99.1552C229.259 99.1379 229.231 99.1129 229.209 99.0824C229.062 98.785 228.811 98.5517 228.504 98.4264C228.196 98.3012 227.854 98.2926 227.541 98.4023C227.483 98.424 227.419 98.4229 227.362 98.3994C227.304 98.3758 227.258 98.3315 227.232 98.2753C227.208 98.2187 227.206 98.1547 227.228 98.0971C227.25 98.0394 227.294 97.9927 227.35 97.967C227.765 97.8196 228.219 97.8244 228.631 97.9805C229.043 98.1366 229.386 98.4339 229.599 98.8194C229.616 98.8456 229.627 98.8748 229.633 98.9054C229.638 98.936 229.638 98.9674 229.631 98.9977C229.624 99.0281 229.611 99.0568 229.594 99.0822C229.576 99.1076 229.553 99.1292 229.527 99.1458C229.489 99.1714 229.445 99.1841 229.4 99.1821Z" fill="white"/>
<path d="M224.041 101.603C223.858 101.602 223.677 101.586 223.497 101.558C223.072 101.477 222.667 101.313 222.306 101.075C221.945 100.836 221.634 100.529 221.393 100.17C220.772 99.237 220.544 98.0968 220.758 96.9965C220.881 96.0052 221.387 95.1015 222.169 94.4793C222.951 93.8572 223.945 93.5661 224.938 93.6686C225.363 93.7459 225.769 93.9077 226.13 94.1445C226.491 94.3812 226.802 94.6881 227.042 95.0469C227.663 95.9834 227.891 97.1266 227.677 98.2298C227.553 99.1253 227.123 99.9504 226.461 100.565C225.798 101.18 224.943 101.547 224.041 101.603ZM224.394 94.0857C223.601 94.1418 222.852 94.4704 222.274 95.0158C221.695 95.5612 221.323 96.2898 221.221 97.0782C221.124 97.5635 221.123 98.0633 221.22 98.5488C221.316 99.0342 221.508 99.4959 221.783 99.9074C221.991 100.216 222.259 100.48 222.57 100.684C222.881 100.888 223.23 101.028 223.596 101.095C224.467 101.174 225.335 100.909 226.013 100.357C226.691 99.8041 227.125 99.0081 227.224 98.1391C227.418 97.1588 227.216 96.1412 226.661 95.3099C226.238 94.6896 225.586 94.2624 224.848 94.122C224.698 94.0969 224.546 94.0848 224.394 94.0857Z" fill="white"/>
<path d="M260.792 370.278C260.29 370.318 259.788 370.187 259.369 369.906C259.243 369.794 259.147 369.652 259.087 369.495C259.027 369.337 259.005 369.167 259.024 369C259.029 368.895 259.06 368.793 259.116 368.704C259.172 368.615 259.249 368.542 259.342 368.492C260.167 368.075 262.543 369.553 262.815 369.716C262.845 369.734 262.868 369.762 262.881 369.795C262.894 369.827 262.896 369.863 262.887 369.897C262.882 369.933 262.867 369.966 262.842 369.992C262.818 370.018 262.786 370.035 262.751 370.042C262.109 370.195 261.452 370.274 260.792 370.278ZM259.722 368.737C259.645 368.736 259.567 368.751 259.496 368.782C259.459 368.802 259.428 368.833 259.407 368.869C259.386 368.906 259.376 368.948 259.378 368.991C259.359 369.108 259.37 369.229 259.41 369.341C259.449 369.454 259.516 369.554 259.605 369.634C260.004 369.979 260.974 370.024 262.252 369.77C261.496 369.268 260.649 368.916 259.759 368.737H259.722Z" fill="#1F3F7F"/>
<path d="M262.753 370.024C262.726 370.033 262.697 370.033 262.671 370.024C261.909 369.607 260.449 367.975 260.631 367.141C260.661 367.011 260.733 366.895 260.837 366.812C260.94 366.728 261.069 366.681 261.202 366.678C261.336 366.661 261.473 366.672 261.603 366.711C261.732 366.75 261.852 366.816 261.955 366.905C262.798 367.612 262.925 369.761 262.934 369.861C262.929 369.908 262.908 369.953 262.875 369.987C262.843 370.021 262.799 370.044 262.753 370.052V370.024ZM261.32 367.032H261.238C261.012 367.032 260.984 367.159 260.975 367.204C260.876 367.694 261.791 368.936 262.544 369.517C262.512 368.671 262.224 367.855 261.719 367.177C261.608 367.082 261.466 367.031 261.32 367.032Z" fill="#1F3F7F"/>
<path d="M219.464 370.287C218.824 370.348 218.183 370.184 217.65 369.825C217.531 369.719 217.44 369.584 217.386 369.434C217.332 369.283 217.317 369.121 217.342 368.963C217.348 368.867 217.379 368.774 217.431 368.693C217.483 368.612 217.556 368.546 217.641 368.501C218.548 367.984 221.522 369.508 221.858 369.689C221.891 369.705 221.919 369.732 221.936 369.765C221.953 369.798 221.959 369.836 221.953 369.873C221.947 369.909 221.929 369.943 221.902 369.969C221.875 369.995 221.84 370.011 221.803 370.015C221.034 370.178 220.25 370.269 219.464 370.287ZM218.176 368.737C218.061 368.735 217.947 368.757 217.841 368.8C217.807 368.82 217.78 368.847 217.76 368.881C217.741 368.914 217.731 368.952 217.732 368.991C217.713 369.095 217.722 369.202 217.757 369.302C217.792 369.403 217.852 369.492 217.931 369.562C218.376 369.97 219.6 370.043 221.259 369.761C220.297 369.247 219.255 368.901 218.176 368.737Z" fill="#1F3F7F"/>
<path d="M221.8 370.025H221.727C220.821 369.616 219.098 368.011 219.252 367.159C219.252 366.969 219.433 366.715 219.923 366.669C220.097 366.648 220.273 366.664 220.44 366.715C220.607 366.767 220.762 366.853 220.893 366.969C221.8 367.748 221.972 369.762 221.981 369.843C221.982 369.874 221.976 369.905 221.963 369.933C221.951 369.961 221.932 369.986 221.909 370.006C221.874 370.02 221.837 370.027 221.8 370.025ZM220.032 367.032H219.923C219.606 367.032 219.578 367.186 219.569 367.232C219.479 367.73 220.657 369 221.564 369.553C221.508 368.71 221.191 367.905 220.657 367.25C220.484 367.101 220.26 367.023 220.032 367.032Z" fill="#1F3F7F"/>
<path d="M242.657 121.517L251.272 122.55C252.7 122.72 254.013 123.42 254.95 124.511C255.887 125.603 256.38 127.007 256.332 128.445C255.896 141.874 254.119 160.328 255.543 188.556C256.259 202.793 266.207 280.097 266.207 280.097L246.611 283.534C237.254 253.828 230.696 223.311 227.024 192.383C225.599 178.942 225.551 165.391 226.879 151.94L242.657 121.517Z" fill="#1F3F7F"/>
<path opacity="0.8" d="M242.657 121.517L251.272 122.55C252.7 122.72 254.013 123.42 254.95 124.511C255.887 125.603 256.38 127.007 256.332 128.445C255.896 141.874 254.119 160.328 255.543 188.556C256.259 202.793 266.207 280.097 266.207 280.097L246.611 283.534C237.254 253.828 230.696 223.311 227.024 192.383C225.599 178.942 225.551 165.391 226.879 151.94L242.657 121.517Z" fill="white"/>
<path opacity="0.2" d="M249.693 138.655C249.693 140.668 251.235 150.915 255.053 157.988C255.161 153.164 255.334 148.757 255.533 144.712L249.693 138.655Z" fill="#1F3F7F"/>
<path opacity="0.2" d="M212.617 136.859C211.51 138.972 208.318 147.931 206.695 157.716C207.439 157.199 208.146 156.664 208.826 156.12C211.333 154.038 213.635 151.721 215.7 149.201L216.099 148.711L212.617 136.859Z" fill="#1F3F7F"/>
<path d="M224.459 122.396L219.372 123.013C216.933 123.313 214.681 124.471 213.02 126.281C211.358 128.09 210.395 130.433 210.304 132.888C209.723 147.959 208.544 178.064 207.901 188.556C206.994 202.784 207.638 280.097 207.638 280.097L219.852 282.237C219.852 282.237 222.954 239.672 227.061 192.383C228.115 178.347 228.366 164.263 227.814 150.198L224.459 122.396Z" fill="#1F3F7F"/>
<path opacity="0.8" d="M224.459 122.396L219.372 123.013C216.933 123.313 214.681 124.471 213.02 126.281C211.358 128.09 210.395 130.433 210.304 132.888C209.723 147.959 208.544 178.064 207.901 188.556C206.994 202.784 207.638 280.097 207.638 280.097L219.852 282.237C219.852 282.237 222.954 239.672 227.061 192.383C228.115 178.347 228.366 164.263 227.814 150.198L224.459 122.396Z" fill="white"/>
<path d="M229.717 126.576C230.854 128.4 231.767 130.355 232.437 132.397C232.437 132.397 244.343 128.308 243.917 121.752C243.917 121.752 242.104 120.682 241.016 119.811C241.006 119.811 240.471 123.946 229.717 126.576Z" fill="#F5F5F5"/>
<path d="M229.718 126.576C228.361 128.144 227.223 129.889 226.336 131.763C224.872 130.662 223.793 129.126 223.254 127.376C222.715 125.625 222.743 123.748 223.334 122.015C224.397 121.586 225.492 121.24 226.608 120.981C226.608 120.981 225.746 125.17 229.718 126.576Z" fill="#F5F5F5"/>
<path opacity="0.2" d="M242.086 192.519L255.733 204.243L246.411 199.682L242.086 192.519Z" fill="#1F3F7F"/>
<path d="M255.787 125.987C256.368 126.794 256.803 127.429 257.293 128.145L258.68 130.24C259.587 131.642 260.466 133.06 261.319 134.493C263.033 137.367 264.647 140.305 266.134 143.379C267.67 146.524 268.977 149.776 270.042 153.109C270.61 154.891 271.058 156.709 271.384 158.55C271.73 160.544 271.884 162.566 271.847 164.589C271.678 168.407 270.941 172.178 269.661 175.779C268.502 179.093 267.071 182.305 265.381 185.382C263.773 188.358 262.002 191.243 260.077 194.024C259.133 195.408 258.16 196.768 257.157 198.104C256.658 198.775 256.141 199.447 255.615 200.108C255.089 200.77 254.59 201.387 253.938 202.149L244.353 193.833C244.715 193.398 245.259 192.782 245.658 192.219L247.001 190.478C247.907 189.299 248.742 188.102 249.567 186.851C251.195 184.433 252.687 181.926 254.037 179.343C255.332 176.873 256.415 174.297 257.275 171.644C258.068 169.305 258.499 166.859 258.553 164.39C258.445 161.984 257.952 159.612 257.093 157.362C256.141 154.731 254.986 152.179 253.638 149.727C252.26 147.188 250.727 144.667 249.104 142.209C248.279 140.985 247.427 139.77 246.556 138.582L245.232 136.814C244.797 136.252 244.325 135.617 243.936 135.173L255.787 125.987Z" fill="#1F3F7F"/>
<path opacity="0.8" d="M255.787 125.987C256.368 126.794 256.803 127.429 257.293 128.145L258.68 130.24C259.587 131.642 260.466 133.06 261.319 134.493C263.033 137.367 264.647 140.305 266.134 143.379C267.67 146.524 268.977 149.776 270.042 153.109C270.61 154.891 271.058 156.709 271.384 158.55C271.73 160.544 271.884 162.566 271.847 164.589C271.678 168.407 270.941 172.178 269.661 175.779C268.502 179.093 267.071 182.305 265.381 185.382C263.773 188.358 262.002 191.243 260.077 194.024C259.133 195.408 258.16 196.768 257.157 198.104C256.658 198.775 256.141 199.447 255.615 200.108C255.089 200.77 254.59 201.387 253.938 202.149L244.353 193.833C244.715 193.398 245.259 192.782 245.658 192.219L247.001 190.478C247.907 189.299 248.742 188.102 249.567 186.851C251.195 184.433 252.687 181.926 254.037 179.343C255.332 176.873 256.415 174.297 257.275 171.644C258.068 169.305 258.499 166.859 258.553 164.39C258.445 161.984 257.952 159.612 257.093 157.362C256.141 154.731 254.986 152.179 253.638 149.727C252.26 147.188 250.727 144.667 249.104 142.209C248.279 140.985 247.427 139.77 246.556 138.582L245.232 136.814C244.797 136.252 244.325 135.617 243.936 135.173L255.787 125.987Z" fill="white"/>
<path d="M243.564 141.711C243.271 142.396 242.749 142.957 242.087 143.298C241.425 143.639 240.665 143.738 239.937 143.579C239.605 143.506 239.294 143.361 239.026 143.153C238.758 142.944 238.54 142.679 238.388 142.375C238.236 142.072 238.153 141.738 238.147 141.399C238.14 141.06 238.21 140.723 238.35 140.414C238.643 139.73 239.166 139.17 239.828 138.83C240.491 138.491 241.251 138.394 241.977 138.555C242.309 138.626 242.62 138.771 242.888 138.978C243.156 139.186 243.374 139.45 243.526 139.753C243.679 140.056 243.761 140.389 243.768 140.728C243.774 141.066 243.705 141.402 243.564 141.711Z" fill="#263238"/>
<path opacity="0.2" d="M243.564 141.711C243.271 142.396 242.749 142.957 242.087 143.298C241.425 143.639 240.665 143.738 239.937 143.579C239.605 143.506 239.294 143.361 239.026 143.153C238.758 142.944 238.54 142.679 238.388 142.375C238.236 142.072 238.153 141.738 238.147 141.399C238.14 141.06 238.21 140.723 238.35 140.414C238.643 139.73 239.166 139.17 239.828 138.83C240.491 138.491 241.251 138.394 241.977 138.555C242.309 138.626 242.62 138.771 242.888 138.978C243.156 139.186 243.374 139.45 243.526 139.753C243.679 140.056 243.761 140.389 243.768 140.728C243.774 141.066 243.705 141.402 243.564 141.711Z" fill="white"/>
<path d="M240.581 140.333C240.507 140.334 240.434 140.312 240.373 140.269C240.297 140.215 240.247 140.133 240.231 140.041C240.216 139.949 240.237 139.855 240.291 139.779C247.038 130.394 245.151 122.051 245.133 121.97C245.114 121.923 245.105 121.872 245.108 121.821C245.11 121.77 245.123 121.721 245.146 121.675C245.17 121.63 245.203 121.59 245.243 121.559C245.283 121.527 245.329 121.505 245.378 121.493C245.428 121.481 245.479 121.48 245.529 121.49C245.579 121.5 245.627 121.52 245.668 121.55C245.709 121.58 245.743 121.618 245.769 121.663C245.794 121.707 245.809 121.756 245.813 121.807C245.813 121.888 247.808 130.53 240.862 140.187C240.831 140.233 240.79 140.271 240.74 140.296C240.691 140.322 240.636 140.334 240.581 140.333Z" fill="#263238"/>
<path d="M217.06 135.572C216.971 135.57 216.886 135.536 216.821 135.475C216.756 135.415 216.715 135.333 216.706 135.245C215.972 126.032 220.85 122.632 221.059 122.496C221.137 122.445 221.231 122.427 221.322 122.444C221.413 122.46 221.494 122.511 221.548 122.586C221.6 122.664 221.619 122.76 221.6 122.852C221.581 122.943 221.527 123.024 221.449 123.076C221.403 123.076 216.706 126.413 217.413 135.191C217.418 135.283 217.387 135.374 217.326 135.443C217.265 135.513 217.179 135.556 217.087 135.562L217.06 135.572Z" fill="#263238"/>
<path d="M242.576 141.466C242.282 142.149 241.759 142.71 241.097 143.05C240.436 143.391 239.676 143.491 238.949 143.334C238.616 143.263 238.304 143.118 238.035 142.91C237.766 142.703 237.547 142.437 237.395 142.133C237.242 141.829 237.16 141.495 237.155 141.155C237.149 140.815 237.22 140.478 237.362 140.169C237.663 139.493 238.189 138.943 238.85 138.612C239.512 138.282 240.268 138.191 240.989 138.356C241.314 138.43 241.618 138.574 241.881 138.779C242.143 138.984 242.358 139.243 242.509 139.54C242.66 139.837 242.745 140.163 242.756 140.496C242.768 140.828 242.706 141.16 242.576 141.466Z" fill="#263238"/>
<path opacity="0.4" d="M242.576 141.466C242.282 142.149 241.759 142.71 241.097 143.05C240.436 143.391 239.676 143.491 238.949 143.334C238.616 143.263 238.304 143.118 238.035 142.91C237.766 142.703 237.547 142.437 237.395 142.133C237.242 141.829 237.16 141.495 237.155 141.155C237.149 140.815 237.22 140.478 237.362 140.169C237.663 139.493 238.189 138.943 238.85 138.612C239.512 138.282 240.268 138.191 240.989 138.356C241.314 138.43 241.618 138.574 241.881 138.779C242.143 138.984 242.358 139.243 242.509 139.54C242.66 139.837 242.745 140.163 242.756 140.496C242.768 140.828 242.706 141.16 242.576 141.466Z" fill="white"/>
<path opacity="0.4" d="M241.052 140.976C240.897 141.336 240.621 141.631 240.271 141.81C239.922 141.989 239.522 142.04 239.139 141.956C238.965 141.917 238.802 141.841 238.661 141.732C238.521 141.622 238.407 141.483 238.327 141.324C238.247 141.165 238.203 140.991 238.2 140.813C238.196 140.635 238.231 140.458 238.304 140.296C238.461 139.937 238.737 139.643 239.086 139.465C239.435 139.286 239.835 139.234 240.218 139.317C240.391 139.355 240.554 139.432 240.695 139.541C240.835 139.65 240.95 139.789 241.03 139.948C241.109 140.107 241.153 140.282 241.157 140.46C241.161 140.637 241.125 140.814 241.052 140.976Z" fill="white"/>
<path d="M219.815 157.008C219.723 157.006 219.635 156.968 219.571 156.902C219.506 156.836 219.47 156.747 219.47 156.655C219.469 156.609 219.477 156.563 219.494 156.52C219.511 156.477 219.536 156.438 219.568 156.405C219.6 156.372 219.638 156.346 219.681 156.328C219.723 156.31 219.769 156.301 219.815 156.301C220.48 156.282 221.115 156.019 221.6 155.563C222.084 155.106 222.385 154.488 222.445 153.825L223.116 142.037C223.172 141.21 223.057 140.38 222.777 139.6C222.497 138.82 222.059 138.106 221.49 137.503C220.921 136.9 220.234 136.421 219.471 136.097C218.709 135.772 217.887 135.609 217.058 135.617C215.315 135.638 213.643 136.315 212.376 137.513C211.109 138.711 210.339 140.343 210.221 142.082L209.541 153.871C209.517 154.186 209.559 154.502 209.664 154.8C209.77 155.098 209.936 155.37 210.153 155.6C210.37 155.83 210.632 156.011 210.924 156.134C211.215 156.256 211.528 156.316 211.844 156.31C211.938 156.31 212.028 156.347 212.094 156.414C212.161 156.48 212.198 156.57 212.198 156.664C212.195 156.757 212.157 156.845 212.092 156.911C212.026 156.977 211.937 157.015 211.844 157.017C211.433 157.021 211.026 156.939 210.649 156.778C210.271 156.617 209.931 156.38 209.649 156.081C209.367 155.782 209.15 155.428 209.011 155.042C208.873 154.655 208.815 154.244 208.843 153.835L209.523 142.046C209.653 140.128 210.5 138.33 211.897 137.009C213.293 135.688 215.136 134.942 217.058 134.919C217.984 134.91 218.901 135.093 219.752 135.456C220.603 135.819 221.37 136.354 222.004 137.028C222.639 137.702 223.127 138.499 223.438 139.371C223.75 140.242 223.878 141.168 223.814 142.092L223.143 153.88C223.081 154.724 222.705 155.514 222.089 156.093C221.472 156.673 220.661 156.999 219.815 157.008Z" fill="#263238"/>
<path d="M212.426 156.655C212.426 157.217 212.109 157.68 211.791 157.68C211.474 157.68 211.229 157.217 211.265 156.655C211.302 156.093 211.583 155.621 211.909 155.621C212.236 155.621 212.462 156.084 212.426 156.655Z" fill="#263238"/>
<path d="M220.404 156.655C220.404 157.217 220.087 157.68 219.76 157.68C219.434 157.68 219.198 157.217 219.234 156.655C219.27 156.093 219.552 155.621 219.878 155.621C220.204 155.621 220.431 156.084 220.404 156.655Z" fill="#263238"/>
<path d="M147.388 85.0171L146.744 84.5546C148.639 81.9596 151.303 80.0277 154.359 79.0331C157.414 78.0385 160.705 78.0318 163.765 79.0141L163.52 79.7758C160.621 78.8466 157.503 78.8528 154.608 79.7935C151.713 80.7341 149.187 82.5615 147.388 85.0171Z" fill="#1F3F7F"/>
<path d="M144.65 93.178H143.852C143.892 91.7296 144.14 90.2945 144.586 88.916L145.348 89.1608C144.925 90.4598 144.69 91.8125 144.65 93.178Z" fill="#1F3F7F"/>
<path d="M187.277 93.8133C186.58 92.2744 185.578 90.893 184.332 89.7528C183.085 88.6127 181.62 87.7376 180.025 87.1805C178.43 86.6234 176.739 86.396 175.054 86.5121C173.368 86.6282 171.724 87.0853 170.22 87.8557C169.464 86.3799 168.421 85.0697 167.153 84.0016C165.884 82.9335 164.416 82.129 162.832 81.6351C161.249 81.1412 159.584 80.9678 157.933 81.1251C156.282 81.2823 154.679 81.767 153.218 82.5509C147.17 85.7973 145.057 93.4869 148.203 99.6078L156.365 115.54C156.761 116.316 157.306 117.005 157.969 117.57C158.633 118.134 159.401 118.562 160.23 118.829C161.058 119.096 161.932 119.197 162.8 119.126C163.668 119.055 164.513 118.813 165.287 118.415L181.283 110.254C184.201 108.805 186.45 106.291 187.565 103.231C188.681 100.171 188.578 96.7994 187.277 93.8133Z" fill="#1F3F7F"/>
</g>
<defs>
<clipPath id="clip0_867_12622">
<rect width="453.399" height="453.399" fill="white" transform="translate(0.542969 0.685547)"/>
</clipPath>
</defs>
</svg>
