<svg width="99" height="88" viewBox="0 0 99 88" fill="none" xmlns="http://www.w3.org/2000/svg">
<path d="M2.71484 31.0135L49.5012 2.42188L96.2876 31.0135M85.8906 49.2083V82.4786C85.8906 83.3058 85.562 84.0992 84.9771 84.6841C84.3921 85.269 83.5988 85.5977 82.7715 85.5977H16.2309C15.4037 85.5977 14.6103 85.269 14.0254 84.6841C13.4404 84.0992 13.1118 83.3058 13.1118 82.4786V49.2083" stroke="black" stroke-opacity="0.8" stroke-width="3.99806" stroke-linecap="round" stroke-linejoin="round"/>
<path fill-rule="evenodd" clip-rule="evenodd" d="M48.7881 27.6848C49.1113 27.4298 62.6264 16.9163 71.5595 27.2739C76.4646 32.9586 76.0488 38.8594 74.2297 44.6367L67.8271 62.9789C65.9544 69.3572 64.6193 71.3273 61.3384 74.0966C59.3926 75.742 57.1966 72.9012 54.8854 69.911C52.8827 67.3204 50.794 64.6194 48.7069 64.6259C46.584 64.6324 44.4612 67.3383 42.4309 69.9273C40.0905 72.9126 37.8702 75.7436 35.913 74.0966C31.9613 70.7702 30.2282 66.1754 28.4156 58.7998C28.0664 57.3803 27.5369 55.6765 26.9506 53.7972C24.498 45.9214 21.0839 34.9645 26.0898 28.8867C32.2731 21.3796 39.9524 20.1712 48.7053 27.6247L48.7881 27.6848ZM44.4677 28.4547C41.4402 26.3757 38.8642 25.713 36.7202 25.8819C34.0874 26.0882 31.3506 27.6085 28.5992 30.9511C26.5267 33.4654 26.3171 37.7111 27.433 43.2594C27.9641 45.902 28.7405 48.577 29.5217 51.1189C29.689 51.6679 29.8612 52.2169 30.0301 52.761C30.6229 54.6613 31.1947 56.4983 31.5698 58.0234C33.2282 64.7769 34.6721 68.4054 37.2887 70.9619C37.8295 70.4584 38.5117 69.6528 39.4164 68.5077L39.8549 67.949C40.7807 66.7682 41.8771 65.3665 42.9962 64.2458C44.1851 63.0585 46.1488 61.3839 48.6971 61.3774C51.2569 61.3693 53.2157 63.0699 54.3803 64.2507C55.4831 65.3697 56.5648 66.7698 57.4776 67.9522L57.9113 68.5126C58.7965 69.6495 59.4673 70.4551 59.9984 70.957C61.0493 70.0052 61.7314 69.211 62.321 68.2235C63.0844 66.9485 63.7942 65.1813 64.7086 62.0645L64.759 61.9086L71.1453 43.6151C71.9802 40.9514 72.4041 38.5199 72.1848 36.2347C71.9672 34.0095 71.1242 31.7405 69.1005 29.3951C65.7481 25.5068 61.6291 25.4483 57.7407 26.6518C55.7836 27.2593 54.0278 28.1623 52.7414 28.9355C52.2574 29.2246 51.8514 29.4893 51.5363 29.7053L57.7732 34.2921C58.1204 34.5471 58.3521 34.9296 58.4173 35.3554C58.4825 35.7813 58.3758 36.2156 58.1208 36.5627C57.8658 36.9099 57.4833 37.1416 57.0575 37.2068C56.6316 37.272 56.1974 37.1653 55.8502 36.9103L47.0388 30.4297C46.9157 30.3516 46.7979 30.2654 46.6864 30.1715L44.8055 28.7893C44.6771 28.695 44.5632 28.5822 44.4677 28.4547Z" fill="black" fill-opacity="0.8"/>
<path d="M42.1719 48.5954H56.8314M49.5017 55.9252V41.2656" stroke="#333333" stroke-opacity="0.9" stroke-width="2.99854" stroke-linecap="round" stroke-linejoin="round"/>
</svg>
