<svg width="18" height="16" viewBox="0 0 18 16" fill="none" xmlns="http://www.w3.org/2000/svg">
<rect x="1.29541" y="0.796875" width="9.90308" height="12.0252" rx="1.5" stroke="black" stroke-width="0.8"/>
<path d="M11.1953 2.91406H15.8543C16.4065 2.91406 16.8542 3.36178 16.8542 3.91406V14.2929C16.8542 14.8452 16.4065 15.2929 15.8542 15.2929H7.95117C7.39889 15.2929 6.95117 14.8452 6.95117 14.2929V12.8171" stroke="black" stroke-width="0.8"/>
<path d="M6.9418 5.08624L8.66595 6.81039C8.70136 6.84701 8.72115 6.89595 8.72115 6.94688C8.72115 6.99782 8.70136 7.04676 8.66595 7.08338L6.9418 8.80753C6.90458 8.83808 6.85732 8.85369 6.80923 8.85133C6.76113 8.84897 6.71564 8.8288 6.68159 8.79475C6.64754 8.7607 6.62737 8.7152 6.62501 8.66711C6.62265 8.61902 6.63826 8.57176 6.66881 8.53454L8.06729 7.13846H4.31486C4.26406 7.13846 4.21533 7.11827 4.1794 7.08235C4.14347 7.04642 4.12329 6.99769 4.12329 6.94688C4.12329 6.89608 4.14347 6.84735 4.1794 6.81142C4.21533 6.7755 4.26406 6.75531 4.31486 6.75531H8.06729L6.66881 5.35923C6.63826 5.32201 6.62265 5.27475 6.62501 5.22666C6.62737 5.17856 6.64754 5.13307 6.68159 5.09902C6.71564 5.06497 6.76113 5.0448 6.80923 5.04244C6.85732 5.04008 6.90458 5.05569 6.9418 5.08624Z" fill="black"/>
<path d="M13.6861 10.9216L11.962 9.19742C11.9266 9.16081 11.9068 9.11186 11.9068 9.06093C11.9068 9.00999 11.9266 8.96105 11.962 8.92443L13.6861 7.20028C13.7234 7.16973 13.7706 7.15412 13.8187 7.15648C13.8668 7.15885 13.9123 7.17901 13.9463 7.21306C13.9804 7.24711 14.0006 7.29261 14.0029 7.3407C14.0053 7.3888 13.9897 7.43605 13.9591 7.47327L12.5606 8.86936H16.3131C16.3639 8.86936 16.4126 8.88954 16.4485 8.92547C16.4845 8.96139 16.5046 9.01012 16.5046 9.06093C16.5046 9.11174 16.4845 9.16046 16.4485 9.19639C16.4126 9.23232 16.3639 9.2525 16.3131 9.2525H12.5606L13.9591 10.6486C13.9897 10.6858 14.0053 10.7331 14.0029 10.7812C14.0006 10.8292 13.9804 10.8747 13.9463 10.9088C13.9123 10.9428 13.8668 10.963 13.8187 10.9654C13.7706 10.9677 13.7234 10.9521 13.6861 10.9216Z" fill="black"/>
</svg>
