<svg width="19" height="19" viewBox="0 0 19 19" fill="none" xmlns="http://www.w3.org/2000/svg">
<path d="M13.5 18.9951C6.05625 18.9951 0 12.9389 0 5.49512C0.00281471 4.2183 0.469194 2.98595 1.31243 2.02718C2.15566 1.06841 3.31837 0.448472 4.58437 0.282625C4.90711 0.246841 5.23284 0.314789 5.51435 0.476615C5.79586 0.638441 6.01851 0.885732 6.15 1.18262L8.03437 5.5795C8.13212 5.80773 8.17131 6.05675 8.14839 6.30397C8.12547 6.55118 8.04116 6.78876 7.90312 6.99512L6.34687 9.37637C7.05158 10.8065 8.21273 11.9611 9.64687 12.6576L12 11.092C12.2061 10.953 12.4443 10.8689 12.692 10.8476C12.9397 10.8263 13.1888 10.8684 13.4156 10.9701L17.8125 12.8451C18.1094 12.9766 18.3567 13.1993 18.5185 13.4808C18.6803 13.7623 18.7483 14.088 18.7125 14.4107C18.5467 15.6768 17.9267 16.8395 16.9679 17.6827C16.0092 18.5259 14.7768 18.9923 13.5 18.9951ZM4.77187 1.77325C3.86714 1.88955 3.03582 2.33164 2.43356 3.01673C1.8313 3.70182 1.4994 4.58295 1.5 5.49512C1.50248 8.67696 2.76756 11.7278 5.01746 13.9777C7.26736 16.2276 10.3182 17.4926 13.5 17.4951C14.4122 17.4957 15.2933 17.1638 15.9784 16.5616C16.6635 15.9593 17.1056 15.128 17.2219 14.2232L12.825 12.3482L10.4812 13.9139C10.2656 14.0564 10.0168 14.1409 9.75887 14.1589C9.50098 14.177 9.2428 14.1281 9.00937 14.017C7.26276 13.1721 5.84994 11.7659 4.99687 10.0232C4.8844 9.79061 4.83393 9.53287 4.85036 9.27499C4.86678 9.01712 4.94955 8.76786 5.09062 8.55137L6.65625 6.17012L4.77187 1.77325Z" fill="white"/>
</svg>
