<svg width="24" height="24" viewBox="0 0 24 24" fill="none" xmlns="http://www.w3.org/2000/svg">
<path d="M14.4375 10.8751C14.4375 11.0243 14.3782 11.1674 14.2727 11.2729C14.1673 11.3784 14.0242 11.4376 13.875 11.4376H7.875C7.72581 11.4376 7.58274 11.3784 7.47725 11.2729C7.37176 11.1674 7.3125 11.0243 7.3125 10.8751C7.3125 10.7259 7.37176 10.5829 7.47725 10.4774C7.58274 10.3719 7.72581 10.3126 7.875 10.3126H13.875C14.0242 10.3126 14.1673 10.3719 14.2727 10.4774C14.3782 10.5829 14.4375 10.7259 14.4375 10.8751ZM21.3937 21.3939C21.343 21.4472 21.2819 21.4896 21.2142 21.5187C21.1465 21.5477 21.0736 21.5626 21 21.5626C20.9264 21.5626 20.8535 21.5477 20.7858 21.5187C20.7181 21.4896 20.657 21.4472 20.6062 21.3939L16.425 17.222C14.7737 18.6665 12.6257 19.4127 10.4345 19.3031C8.24332 19.1934 6.18054 18.2364 4.68177 16.6342C3.18301 15.032 2.3656 12.91 2.40218 10.7164C2.43875 8.52279 3.32644 6.42924 4.87778 4.8779C6.42912 3.32656 8.52266 2.43887 10.7163 2.4023C12.9099 2.36573 15.0319 3.18313 16.6341 4.6819C18.2363 6.18066 19.1933 8.24345 19.3029 10.4346C19.4126 12.6258 18.6664 14.7739 17.2219 16.4251L21.3937 20.6064C21.4471 20.6572 21.4895 20.7182 21.5185 20.7859C21.5475 20.8536 21.5625 20.9265 21.5625 21.0001C21.5625 21.0738 21.5475 21.1466 21.5185 21.2143C21.4895 21.282 21.4471 21.3431 21.3937 21.3939ZM10.875 18.1876C12.3213 18.1876 13.7351 17.7587 14.9376 16.9552C16.1401 16.1517 17.0774 15.0097 17.6309 13.6735C18.1843 12.3373 18.3291 10.867 18.047 9.44852C17.7648 8.03003 17.0684 6.72707 16.0457 5.7044C15.023 4.68173 13.7201 3.98528 12.3016 3.70313C10.8831 3.42097 9.41281 3.56578 8.07662 4.11925C6.74044 4.67272 5.59838 5.60998 4.79488 6.81251C3.99137 8.01505 3.5625 9.42884 3.5625 10.8751C3.56498 12.8138 4.3362 14.6723 5.70702 16.0431C7.07784 17.4139 8.93636 18.1851 10.875 18.1876Z" fill="#333333"/>
</svg>
