<svg width="10" height="12" viewBox="0 0 10 12" fill="none" xmlns="http://www.w3.org/2000/svg">
<path d="M3.95201 2.4641V2.59505H6.04725V2.4641C6.04725 2.18625 5.93687 1.91979 5.74041 1.72332C5.54394 1.52685 5.27747 1.41648 4.99963 1.41648C4.72178 1.41648 4.45532 1.52685 4.25885 1.72332C4.06238 1.91979 3.95201 2.18625 3.95201 2.4641ZM3.29725 2.59505V2.4641C3.29725 2.0126 3.4766 1.57959 3.79586 1.26033C4.11512 0.941076 4.54813 0.761719 4.99963 0.761719C5.45113 0.761719 5.88413 0.941076 6.20339 1.26033C6.52265 1.57959 6.70201 2.0126 6.70201 2.4641V2.59505H9.64844C9.73526 2.59505 9.81854 2.62954 9.87993 2.69094C9.94133 2.75234 9.97582 2.83561 9.97582 2.92243C9.97582 3.00926 9.94133 3.09253 9.87993 3.15393C9.81854 3.21532 9.73526 3.24981 9.64844 3.24981H8.88446L8.36065 9.49781C8.32085 9.97228 8.10425 10.4145 7.75377 10.7368C7.4033 11.0591 6.94453 11.2379 6.46839 11.2379H3.53087C3.05477 11.2379 2.59607 11.059 2.24565 10.7367C1.89523 10.4144 1.67866 9.97224 1.63887 9.49781L1.11506 3.24981H0.350818C0.263992 3.24981 0.180721 3.21532 0.119325 3.15393C0.0579293 3.09253 0.0234375 3.00926 0.0234375 2.92243C0.0234375 2.83561 0.0579293 2.75234 0.119325 2.69094C0.180721 2.62954 0.263992 2.59505 0.350818 2.59505H3.29725ZM2.29127 9.44308C2.31734 9.75391 2.45923 10.0436 2.68882 10.2548C2.91841 10.4659 3.21894 10.5831 3.53087 10.5831H6.46839C6.78036 10.5832 7.08096 10.466 7.3106 10.2549C7.54025 10.0437 7.68217 9.75395 7.70825 9.44308L8.22734 3.24981H1.77191L2.29127 9.44308ZM4.34487 5.01767C4.34487 4.97468 4.3364 4.93211 4.31995 4.89239C4.30349 4.85267 4.27938 4.81658 4.24898 4.78618C4.21858 4.75578 4.18249 4.73166 4.14277 4.71521C4.10305 4.69876 4.06048 4.69029 4.01749 4.69029C3.97449 4.69029 3.93192 4.69876 3.8922 4.71521C3.85248 4.73166 3.81639 4.75578 3.78599 4.78618C3.75559 4.81658 3.73148 4.85267 3.71502 4.89239C3.69857 4.93211 3.6901 4.97468 3.6901 5.01767V8.81529C3.6901 8.85828 3.69857 8.90085 3.71502 8.94057C3.73148 8.98029 3.75559 9.01638 3.78599 9.04678C3.81639 9.07718 3.85248 9.1013 3.8922 9.11775C3.93192 9.1342 3.97449 9.14267 4.01749 9.14267C4.06048 9.14267 4.10305 9.1342 4.14277 9.11775C4.18249 9.1013 4.21858 9.07718 4.24898 9.04678C4.27938 9.01638 4.30349 8.98029 4.31995 8.94057C4.3364 8.90085 4.34487 8.85828 4.34487 8.81529V5.01767ZM5.98177 4.69029C6.16249 4.69029 6.30915 4.83696 6.30915 5.01767V8.81529C6.30915 8.90212 6.27466 8.98539 6.21326 9.04678C6.15187 9.10818 6.0686 9.14267 5.98177 9.14267C5.89494 9.14267 5.81167 9.10818 5.75028 9.04678C5.68888 8.98539 5.65439 8.90212 5.65439 8.81529V5.01767C5.65439 4.83696 5.80106 4.69029 5.98177 4.69029Z" fill="#1F3F7F"/>
</svg>
