<svg width="55" height="79" viewBox="0 0 55 79" fill="none" xmlns="http://www.w3.org/2000/svg">
<path d="M26.7417 52.9402L26.4037 52.695L26.358 52.6618L26.3406 52.6492L26.3243 52.6353C23.9754 50.635 21.8474 49.8618 19.9524 50.0163C18.059 50.1707 16.2709 51.2619 14.6229 53.2627C13.3872 54.763 13.149 56.9218 13.4384 59.3504C13.7264 61.7663 14.5191 64.3165 15.199 66.4999C15.5212 67.5324 15.8192 68.4905 16.0168 69.2938L16.0168 69.294C17.0162 73.3603 17.9415 75.7363 19.9752 77.4482L26.7417 52.9402ZM26.7417 52.9402L27.0696 52.6815M26.7417 52.9402L27.0696 52.6815M27.0696 52.6815C27.1409 52.6253 28.9857 51.1901 31.39 50.4662C33.7764 49.7478 36.6107 49.7494 38.8811 52.3819L38.8812 52.382M27.0696 52.6815L38.8812 52.382M38.8812 52.382C40.1621 53.8665 40.7345 55.3586 40.8789 56.8482C41.0242 58.3475 40.7388 59.8763 40.2493 61.433L36.7175 71.5509L36.7129 71.564M38.8812 52.382L36.7129 71.564M36.7129 71.564L36.709 71.5773M36.7129 71.564L36.709 71.5773M36.709 71.5773C36.1957 73.3256 35.7685 74.4237 35.2653 75.2656C34.769 76.0957 34.1822 76.7044 33.3004 77.4487L33.3 77.4491M36.709 71.5773L33.3 77.4491M33.3 77.4491C33.145 77.5801 33.0271 77.5979 32.9122 77.5797C32.7656 77.5565 32.5636 77.4617 32.2986 77.2464C31.7626 76.811 31.1832 76.0668 30.5304 75.2223L30.5304 75.2222M33.3 77.4491L30.5304 75.2222M30.5304 75.2222L30.5162 75.2038M30.5304 75.2222L30.5162 75.2038M22.784 75.2282L22.784 75.2282L22.798 75.2103C23.3479 74.5092 23.9417 73.7519 24.5507 73.1713C25.1488 72.6011 25.8702 72.0927 26.6812 72.0902L22.784 75.2282ZM22.784 75.2282C22.1231 76.0713 21.5366 76.8138 20.9948 77.2479M22.784 75.2282L20.9948 77.2479M24.7299 52.2699L24.7843 52.3425C24.8045 52.3695 24.8285 52.3933 24.8557 52.4133L24.8559 52.4134L25.8943 53.1765L25.9089 53.1872L25.9228 53.1989C25.9655 53.2348 26.0105 53.2678 26.0576 53.2977L26.0737 53.3079L26.089 53.3192L30.9531 56.8966L24.7299 52.2699ZM24.7299 52.2699L24.655 52.2185M24.7299 52.2699L24.655 52.2185M24.655 52.2185C22.9083 51.019 21.3628 50.5974 20.0225 50.7029L24.655 52.2185ZM15.8455 66.2562L15.8453 66.2555C15.8211 66.1775 15.7967 66.0991 15.7721 66.0203C15.7028 65.7976 15.6326 65.5719 15.564 65.3469C15.1317 63.9405 14.6964 62.4422 14.3975 60.9552C14.0838 59.3954 13.9497 57.9879 14.0504 56.7752C14.1513 55.5615 14.4907 54.5083 15.1565 53.7005C16.7348 51.7832 18.3715 50.8324 20.0223 50.703L15.8455 66.2562ZM15.8455 66.2562C16.1743 67.31 16.4842 68.3065 16.6864 69.1286L15.8455 66.2562ZM20.3702 76.9023L19.9938 76.5345C18.4269 75.0036 17.6024 72.8589 16.6865 69.1289L20.3702 76.9023ZM20.3702 76.9023L20.7554 76.5437M20.3702 76.9023L20.7554 76.5437M20.7554 76.5437C21.0887 76.2335 21.4889 75.7576 21.987 75.1271L21.9881 75.1257M20.7554 76.5437L21.9881 75.1257M21.9881 75.1257L22.2302 74.8172L22.2304 74.817M21.9881 75.1257L22.2304 74.817M22.2304 74.817L22.2366 74.8091C22.7509 74.1531 23.3329 73.4108 23.9205 72.8223C24.5667 72.177 25.5109 71.4034 26.679 71.4004L26.6793 71.4004M22.2304 74.817L26.6793 71.4004M26.6793 71.4004C27.8488 71.3967 28.7884 72.1798 29.422 72.8222C30.0032 73.4119 30.5799 74.1572 31.0881 74.8155L31.0885 74.8161M26.6793 71.4004L31.0885 74.8161M31.0885 74.8161L31.3279 75.1254L31.3289 75.1267M31.0885 74.8161L31.3289 75.1267M31.3289 75.1267C31.816 75.7523 32.2098 76.2286 32.5375 76.5382L32.9086 76.8888M31.3289 75.1267L32.9086 76.8888M32.9086 76.8888L33.2869 76.5461M32.9086 76.8888L33.2869 76.5461M33.2869 76.5461C33.8965 75.9941 34.3123 75.5144 34.6725 74.9109C35.13 74.1466 35.537 73.1185 36.0442 71.3905L36.0677 71.3176L39.5913 61.2247L39.5942 61.2163M33.2869 76.5461L39.5942 61.2163M39.5942 61.2163L39.5968 61.2078M39.5942 61.2163L39.5968 61.2078M39.5968 61.2078C40.0688 59.7019 40.3243 58.2799 40.1934 56.9157L40.1933 56.9146M39.5968 61.2078L40.1933 56.9146M40.1933 56.9146C40.0619 55.5711 39.5497 54.2118 38.3593 52.8322C37.3551 51.6675 36.2129 51.055 35.015 50.8382C33.8301 50.6237 32.6306 50.8032 31.507 51.1509L31.5066 51.1511M40.1933 56.9146L31.5066 51.1511M31.5066 51.1511C30.3714 51.5034 29.3611 52.024 28.6267 52.4654C28.3492 52.6312 28.1155 52.7835 27.9329 52.9087L27.2921 53.348M31.5066 51.1511L27.2921 53.348M27.2921 53.348L27.918 53.8083M27.2921 53.348L27.918 53.8083M27.918 53.8083L31.3612 56.3405L31.3615 56.3407M27.918 53.8083L31.3615 56.3407M31.3615 56.3407C31.4352 56.3948 31.4844 56.476 31.4982 56.5665M31.3615 56.3407L31.4982 56.5665M30.5162 75.2038C29.9741 74.5025 29.389 73.7457 28.7893 73.1663M30.5162 75.2038L28.7893 73.1663M28.7893 73.1663C28.2012 72.5983 27.4873 72.0877 26.6813 72.0902L28.7893 73.1663ZM20.9948 77.2479C20.727 77.4624 20.522 77.5576 20.3719 77.5808M20.9948 77.2479L20.3719 77.5808M20.3719 77.5808C20.2529 77.5992 20.1319 77.58 19.9753 77.4483L20.3719 77.5808ZM31.4982 56.5665C31.5121 56.6569 31.4894 56.7491 31.4353 56.8228M31.4982 56.5665L31.4353 56.8228M31.4353 56.8228C31.3811 56.8966 31.2999 56.9458 31.2095 56.9596M31.4353 56.8228L31.2095 56.9596M31.2095 56.9596C31.1192 56.9734 31.0271 56.9509 30.9534 56.8969L31.2095 56.9596Z" stroke="#1F3F7F" stroke-width="1.10358"/>
<path d="M23.0732 63.7887H31.1662M27.1197 67.8351V59.7422" stroke="#DE0000" stroke-width="1.65537" stroke-linecap="round" stroke-linejoin="round"/>
<path d="M2.79614 54.6866C-1.00961 60.8441 2.38758 66.6924 9.28415 66.1767" stroke="#1F3F7F" stroke-width="1.80425" stroke-linecap="round"/>
<path d="M52.2485 54.4853C55.4179 60.9932 51.4519 66.4717 44.6421 65.2674" stroke="#1F3F7F" stroke-width="1.80425" stroke-linecap="round"/>
<path d="M19.2262 18.6406V26.5471L2.69482 54.8659" stroke="#1F3F7F" stroke-width="1.80425" stroke-linecap="round"/>
<path d="M35.9015 18.6406V26.5471L52.4321 54.8659" stroke="#1F3F7F" stroke-width="1.80425" stroke-linecap="round"/>
<path d="M14.7607 18.1953H39.2577" stroke="#1F3F7F" stroke-width="1.80425" stroke-linecap="round"/>
<ellipse cx="20.3358" cy="13.3775" rx="1.97152" ry="1.97123" fill="#1F3F7F"/>
<ellipse cx="32.5133" cy="10.2247" rx="3.1549" ry="3.15443" fill="#1F3F7F"/>
<ellipse cx="27.5273" cy="2.36582" rx="2.36617" ry="2.36582" fill="#1F3F7F"/>
</svg>
