<svg width="16" height="20" viewBox="0 0 16 20" fill="none" xmlns="http://www.w3.org/2000/svg">
<path d="M4.10078 5.79514C4.33948 5.79514 4.56839 5.70032 4.73718 5.53154C4.90596 5.36276 5.00078 5.13384 5.00078 4.89514C5.00078 4.65645 4.90596 4.42753 4.73718 4.25875C4.56839 4.08996 4.33948 3.99514 4.10078 3.99514C3.86209 3.99514 3.63317 4.08996 3.46438 4.25875C3.2956 4.42753 3.20078 4.65645 3.20078 4.89514C3.20078 5.13384 3.2956 5.36276 3.46438 5.53154C3.63317 5.70032 3.86209 5.79514 4.10078 5.79514ZM5.00078 8.49514C5.00078 8.73384 4.90596 8.96276 4.73718 9.13154C4.56839 9.30032 4.33948 9.39514 4.10078 9.39514C3.86209 9.39514 3.63317 9.30032 3.46438 9.13154C3.2956 8.96276 3.20078 8.73384 3.20078 8.49514C3.20078 8.25645 3.2956 8.02753 3.46438 7.85875C3.63317 7.68996 3.86209 7.59514 4.10078 7.59514C4.33948 7.59514 4.56839 7.68996 4.73718 7.85875C4.90596 8.02753 5.00078 8.25645 5.00078 8.49514ZM4.10078 12.9951C4.21897 12.9951 4.336 12.9719 4.4452 12.9266C4.55439 12.8814 4.6536 12.8151 4.73718 12.7315C4.82075 12.648 4.88704 12.5488 4.93227 12.4396C4.9775 12.3304 5.00078 12.2133 5.00078 12.0951C5.00078 11.977 4.9775 11.8599 4.93227 11.7507C4.88704 11.6415 4.82075 11.5423 4.73718 11.4587C4.6536 11.3752 4.55439 11.3089 4.4452 11.2637C4.336 11.2184 4.21897 11.1951 4.10078 11.1951C3.86209 11.1951 3.63317 11.29 3.46438 11.4587C3.2956 11.6275 3.20078 11.8564 3.20078 12.0951C3.20078 12.3338 3.2956 12.5628 3.46438 12.7315C3.63317 12.9003 3.86209 12.9951 4.10078 12.9951ZM8.60078 4.89514C8.60078 5.13384 8.50596 5.36276 8.33718 5.53154C8.16839 5.70032 7.93948 5.79514 7.70078 5.79514C7.46209 5.79514 7.23317 5.70032 7.06439 5.53154C6.8956 5.36276 6.80078 5.13384 6.80078 4.89514C6.80078 4.65645 6.8956 4.42753 7.06439 4.25875C7.23317 4.08996 7.46209 3.99514 7.70078 3.99514C7.93948 3.99514 8.16839 4.08996 8.33718 4.25875C8.50596 4.42753 8.60078 4.65645 8.60078 4.89514ZM7.70078 9.39514C7.93948 9.39514 8.16839 9.30032 8.33718 9.13154C8.50596 8.96276 8.60078 8.73384 8.60078 8.49514C8.60078 8.25645 8.50596 8.02753 8.33718 7.85875C8.16839 7.68996 7.93948 7.59514 7.70078 7.59514C7.46209 7.59514 7.23317 7.68996 7.06439 7.85875C6.8956 8.02753 6.80078 8.25645 6.80078 8.49514C6.80078 8.73384 6.8956 8.96276 7.06439 9.13154C7.23317 9.30032 7.46209 9.39514 7.70078 9.39514ZM8.60078 12.0951C8.60078 12.3338 8.50596 12.5628 8.33718 12.7315C8.16839 12.9003 7.93948 12.9951 7.70078 12.9951C7.46209 12.9951 7.23317 12.9003 7.06439 12.7315C6.8956 12.5628 6.80078 12.3338 6.80078 12.0951C6.80078 11.8564 6.8956 11.6275 7.06439 11.4587C7.23317 11.29 7.46209 11.1951 7.70078 11.1951C7.93948 11.1951 8.16839 11.29 8.33718 11.4587C8.50596 11.6275 8.60078 11.8564 8.60078 12.0951ZM11.3008 12.9951C11.419 12.9951 11.536 12.9719 11.6452 12.9266C11.7544 12.8814 11.8536 12.8151 11.9372 12.7315C12.0207 12.648 12.087 12.5488 12.1323 12.4396C12.1775 12.3304 12.2008 12.2133 12.2008 12.0951C12.2008 11.977 12.1775 11.8599 12.1323 11.7507C12.087 11.6415 12.0207 11.5423 11.9372 11.4587C11.8536 11.3752 11.7544 11.3089 11.6452 11.2637C11.536 11.2184 11.419 11.1951 11.3008 11.1951C11.0621 11.1951 10.8332 11.29 10.6644 11.4587C10.4956 11.6275 10.4008 11.8564 10.4008 12.0951C10.4008 12.3338 10.4956 12.5628 10.6644 12.7315C10.8332 12.9003 11.0621 12.9951 11.3008 12.9951ZM1.40078 19.5951C1.24165 19.5951 1.08904 19.5319 0.976517 19.4194C0.863995 19.3069 0.800781 19.1543 0.800781 18.9951V2.19514C0.800781 1.71775 0.990423 1.25991 1.32799 0.922349C1.66555 0.584784 2.12339 0.395142 2.60078 0.395142H9.80078C10.2782 0.395142 10.736 0.584784 11.0736 0.922349C11.4111 1.25991 11.6008 1.71775 11.6008 2.19514V7.59514H13.4008C13.8782 7.59514 14.336 7.78478 14.6736 8.12235C15.0111 8.45992 15.2008 8.91775 15.2008 9.39514V18.9951C15.2008 19.1543 15.1376 19.3069 15.025 19.4194C14.9125 19.5319 14.7599 19.5951 14.6008 19.5951H1.40078ZM2.00078 2.19514V18.3951H4.40078V15.3951C4.40078 15.236 4.464 15.0834 4.57652 14.9709C4.68904 14.8584 4.84165 14.7951 5.00078 14.7951H11.0008C11.1599 14.7951 11.3125 14.8584 11.425 14.9709C11.5376 15.0834 11.6008 15.236 11.6008 15.3951V18.3951H14.0008V9.39514C14.0008 9.23601 13.9376 9.0834 13.825 8.97088C13.7125 8.85836 13.5599 8.79514 13.4008 8.79514H11.0008C10.8417 8.79514 10.689 8.73193 10.5765 8.61941C10.464 8.50688 10.4008 8.35427 10.4008 8.19514V2.19514C10.4008 2.03601 10.3376 1.8834 10.225 1.77088C10.1125 1.65836 9.95991 1.59514 9.80078 1.59514H2.60078C2.44165 1.59514 2.28904 1.65836 2.17652 1.77088C2.064 1.8834 2.00078 2.03601 2.00078 2.19514ZM10.4008 15.9951H8.60078V18.3951H10.4008V15.9951ZM7.40078 15.9951H5.60078V18.3951H7.40078V15.9951Z" fill="white"/>
</svg>
