<svg width="44" height="45" viewBox="0 0 44 45" fill="none" xmlns="http://www.w3.org/2000/svg">
<path d="M30.2959 7.4454C28.0069 5.22334 25.5394 3.44228 23.5129 3.19815C23.3986 3.18113 23.2832 3.17236 23.1677 3.1719H9.83926C9.73293 3.17103 9.6275 3.19149 9.52921 3.23206C9.43092 3.27264 9.34176 3.33252 9.26701 3.40815C9.11642 3.56064 9.03161 3.76609 9.03076 3.9804V37.7773C9.03076 37.8834 9.05168 37.9885 9.09233 38.0865C9.13298 38.1845 9.19255 38.2735 9.26765 38.3485C9.34274 38.4235 9.43188 38.4829 9.52996 38.5234C9.62805 38.5639 9.73315 38.5846 9.83926 38.5845H33.942C34.0479 38.5847 34.1527 38.5639 34.2505 38.5234C34.3483 38.4828 34.437 38.4233 34.5116 38.3482C34.5872 38.2735 34.6472 38.1846 34.6882 38.0866C34.7292 37.9886 34.7504 37.8835 34.7505 37.7773V15.2876C34.7033 12.6757 32.6584 9.83021 30.2959 7.4454ZM29.1579 8.5899C30.2145 9.62153 31.1661 10.7897 31.8748 11.9158C31.2679 11.6826 30.645 11.4931 30.0111 11.3488C28.8761 11.1035 27.7237 10.9469 26.5644 10.8802C26.5697 10.707 26.571 10.5101 26.571 10.2962C26.571 9.15428 26.4988 7.5294 26.1038 6.09615L26.0906 6.05678C27.1981 6.79262 28.226 7.64155 29.1579 8.5899V8.5899ZM33.1309 36.9662H10.6451V4.78234H23.169V4.78628C23.715 4.75346 24.1862 5.2929 24.5471 6.52665C24.8753 7.70134 24.9579 9.23303 24.9566 10.2935C24.9593 11.0732 24.9212 11.5955 24.9212 11.5955L24.8556 12.4513L25.7166 12.4605C25.7205 12.4605 27.7063 12.4841 29.6541 12.9264C31.5257 13.3307 32.9878 14.1365 33.1256 15.0487C33.1322 15.1301 33.1335 15.2115 33.1322 15.2876V36.9622L33.1309 36.9662Z" fill="#393939"/>
<path d="M18.2492 14.5373H0.0761719V7.67188H18.2492V14.5373Z" fill="#1F3F7F"/>
<path d="M32.6867 29.4809H32.2828V29.8848V35.1348H29.2661H28.2911L28.9806 35.8242L34.5213 41.3649L34.8069 41.6505L35.0924 41.3649L40.6332 35.8242L41.3226 35.1348H40.3477H37.3309V29.8848V29.4809H36.9271H32.6867Z" fill="#1F3F7F" stroke="white" stroke-width="0.807692"/>
<path d="M2.68083 13.4805H1.91026L1.91503 12.8363H2.68083C2.83987 12.8363 2.97426 12.7982 3.084 12.7218C3.19534 12.6455 3.27963 12.5318 3.33689 12.3807C3.39573 12.228 3.42515 12.0403 3.42515 11.8177V11.6674C3.42515 11.5004 3.40846 11.354 3.37506 11.2284C3.34325 11.1012 3.29553 10.9954 3.23192 10.9111C3.1683 10.8252 3.08878 10.7608 2.99335 10.7179C2.89951 10.6749 2.79136 10.6535 2.6689 10.6535H1.89594V10.0069H2.6689C2.90428 10.0069 3.11979 10.0475 3.31541 10.1286C3.51263 10.2081 3.68281 10.3226 3.82595 10.4721C3.97068 10.6201 4.08201 10.7958 4.15994 10.9994C4.23946 11.2014 4.27922 11.4256 4.27922 11.6721V11.8177C4.27922 12.0626 4.23946 12.2868 4.15994 12.4904C4.08201 12.694 3.97147 12.8697 3.82833 13.0176C3.68519 13.1656 3.51581 13.2801 3.32019 13.3612C3.12615 13.4407 2.91303 13.4805 2.68083 13.4805ZM2.38978 10.0069V13.4805H1.55241V10.0069H2.38978ZM5.60565 10.0069V13.4805H4.77067V10.0069H5.60565ZM8.17024 12.3043H9.00523C8.9941 12.5461 8.92889 12.7592 8.8096 12.9437C8.69032 13.1282 8.52491 13.2721 8.31338 13.3755C8.10345 13.4773 7.85534 13.5282 7.56906 13.5282C7.33685 13.5282 7.1293 13.4892 6.9464 13.4113C6.76509 13.3334 6.61081 13.2212 6.48358 13.0749C6.35793 12.9286 6.26171 12.7513 6.19491 12.5429C6.12971 12.3346 6.0971 12.1 6.0971 11.8391V11.6507C6.0971 11.3898 6.1313 11.1552 6.19968 10.9469C6.26966 10.737 6.36827 10.5588 6.49551 10.4125C6.62433 10.2646 6.77861 10.1517 6.95833 10.0737C7.13805 9.99581 7.33765 9.95684 7.55713 9.95684C7.85931 9.95684 8.11458 10.0109 8.32293 10.1191C8.53128 10.2272 8.69271 10.3759 8.80722 10.5652C8.92173 10.7529 8.98932 10.9668 9.01 11.2069H8.17502C8.17184 11.0765 8.14957 10.9676 8.10822 10.8801C8.06687 10.791 8.00166 10.7242 7.91259 10.6797C7.82353 10.6352 7.70504 10.6129 7.55713 10.6129C7.45375 10.6129 7.36389 10.632 7.28755 10.6702C7.21121 10.7083 7.14759 10.7688 7.0967 10.8515C7.0458 10.9342 7.00763 11.0415 6.98218 11.1735C6.95833 11.3039 6.9464 11.4614 6.9464 11.6459V11.8391C6.9464 12.0236 6.95753 12.1811 6.9798 12.3115C7.00206 12.4419 7.03785 12.5485 7.08715 12.6312C7.13646 12.7139 7.20007 12.7751 7.27801 12.8149C7.35753 12.853 7.45455 12.8721 7.56906 12.8721C7.69629 12.8721 7.80365 12.8522 7.89112 12.8125C7.9786 12.7711 8.04619 12.7091 8.0939 12.6264C8.14162 12.5421 8.16706 12.4348 8.17024 12.3043ZM12.3404 11.6745V11.8153C12.3404 12.0809 12.303 12.3194 12.2283 12.531C12.1551 12.7409 12.0509 12.9206 11.9157 13.0701C11.7806 13.218 11.6207 13.3318 11.4362 13.4113C11.2517 13.4892 11.0482 13.5282 10.8255 13.5282C10.6012 13.5282 10.3961 13.4892 10.21 13.4113C10.0255 13.3318 9.86486 13.218 9.72809 13.0701C9.5929 12.9206 9.48793 12.7409 9.41318 12.531C9.34002 12.3194 9.30344 12.0809 9.30344 11.8153V11.6745C9.30344 11.4089 9.34002 11.1703 9.41318 10.9588C9.48793 10.7473 9.5921 10.5676 9.7257 10.4197C9.86089 10.2702 10.0207 10.1564 10.2052 10.0785C10.3913 9.99899 10.5965 9.95923 10.8207 9.95923C11.0434 9.95923 11.247 9.99899 11.4315 10.0785C11.6175 10.1564 11.7782 10.2702 11.9134 10.4197C12.0485 10.5676 12.1535 10.7473 12.2283 10.9588C12.303 11.1703 12.3404 11.4089 12.3404 11.6745ZM11.4911 11.8153V11.6697C11.4911 11.498 11.476 11.3469 11.4458 11.2165C11.4171 11.0845 11.3742 10.9739 11.3169 10.8849C11.2597 10.7958 11.1889 10.729 11.1046 10.6845C11.0219 10.6383 10.9273 10.6153 10.8207 10.6153C10.7094 10.6153 10.6124 10.6383 10.5297 10.6845C10.447 10.729 10.3778 10.7958 10.3221 10.8849C10.2665 10.9739 10.2243 11.0845 10.1957 11.2165C10.1686 11.3469 10.1551 11.498 10.1551 11.6697V11.8153C10.1551 11.9855 10.1686 12.1365 10.1957 12.2686C10.2243 12.399 10.2665 12.5095 10.3221 12.6002C10.3794 12.6908 10.4494 12.7592 10.5321 12.8053C10.6163 12.8514 10.7142 12.8745 10.8255 12.8745C10.9321 12.8745 11.0267 12.8514 11.1094 12.8053C11.1921 12.7592 11.2613 12.6908 11.3169 12.6002C11.3742 12.5095 11.4171 12.399 11.4458 12.2686C11.476 12.1365 11.4911 11.9855 11.4911 11.8153ZM13.1897 10.0069H13.872L14.6473 12.4236L15.4227 10.0069H16.105L14.9241 13.4805H14.3706L13.1897 10.0069ZM12.7746 10.0069H13.4807L13.612 12.6693V13.4805H12.7746V10.0069ZM15.8139 10.0069H16.5225V13.4805H15.6827V12.6693L15.8139 10.0069Z" fill="white"/>
<path d="M15.0186 17.7695H28.3455" stroke="#333333" stroke-width="0.807692" stroke-linecap="round"/>
<path d="M15.0186 21.4043H28.3455" stroke="#333333" stroke-width="0.807692" stroke-linecap="round"/>
<path d="M15.0186 25.0391H28.3455" stroke="#333333" stroke-width="0.807692" stroke-linecap="round"/>
<path d="M15.0186 28.6738H28.3455" stroke="#333333" stroke-width="0.807692" stroke-linecap="round"/>
</svg>
