<svg width="11" height="11" viewBox="0 0 11 11" fill="none" xmlns="http://www.w3.org/2000/svg">
<g clip-path="url(#clip0_1586_32516)">
<path d="M1.81193 6.19531C1.88527 6.19531 1.95561 6.22445 2.00746 6.27631C2.05932 6.32817 2.08846 6.3985 2.08846 6.47184V7.85449C2.08846 8.00117 2.14673 8.14184 2.25044 8.24556C2.35416 8.34928 2.49484 8.40754 2.64152 8.40754H9.27821C9.42489 8.40754 9.56556 8.34928 9.66928 8.24556C9.77299 8.14184 9.83126 8.00117 9.83126 7.85449V6.47184C9.83126 6.3985 9.8604 6.32817 9.91226 6.27631C9.96412 6.22445 10.0345 6.19531 10.1078 6.19531C10.1811 6.19531 10.2515 6.22445 10.3033 6.27631C10.3552 6.32817 10.3843 6.3985 10.3843 6.47184V7.85449C10.3843 8.14785 10.2678 8.42919 10.0603 8.63663C9.85291 8.84406 9.57157 8.9606 9.27821 8.9606H2.64152C2.34816 8.9606 2.06681 8.84406 1.85937 8.63663C1.65194 8.42919 1.5354 8.14785 1.5354 7.85449V6.47184C1.5354 6.3985 1.56453 6.32817 1.61639 6.27631C1.66825 6.22445 1.73859 6.19531 1.81193 6.19531Z" fill="#1F3F7F"/>
<path d="M5.76407 7.27632C5.78976 7.30208 5.82027 7.32251 5.85387 7.33645C5.88747 7.35039 5.92348 7.35756 5.95985 7.35756C5.99623 7.35756 6.03224 7.35039 6.06584 7.33645C6.09943 7.32251 6.12995 7.30208 6.15564 7.27632L7.81481 5.61715C7.86673 5.56523 7.8959 5.4948 7.8959 5.42137C7.8959 5.34794 7.86673 5.27751 7.81481 5.22559C7.76288 5.17366 7.69246 5.14449 7.61903 5.14449C7.54559 5.14449 7.47517 5.17366 7.42324 5.22559L6.23638 6.413V1.54997C6.23638 1.47663 6.20725 1.40629 6.15539 1.35443C6.10353 1.30257 6.03319 1.27344 5.95985 1.27344C5.88651 1.27344 5.81618 1.30257 5.76432 1.35443C5.71246 1.40629 5.68333 1.47663 5.68333 1.54997V6.413L4.49646 5.22559C4.44454 5.17366 4.37411 5.14449 4.30068 5.14449C4.22725 5.14449 4.15682 5.17366 4.1049 5.22559C4.05297 5.27751 4.0238 5.34794 4.0238 5.42137C4.0238 5.4948 4.05297 5.56523 4.1049 5.61715L5.76407 7.27632Z" fill="#1F3F7F"/>
</g>
<defs>
<clipPath id="clip0_1586_32516">
<rect width="10.25" height="10.25" fill="white" transform="translate(0.746948 0.09375)"/>
</clipPath>
</defs>
</svg>
