<svg width="28" height="28" viewBox="0 0 28 28" fill="none" xmlns="http://www.w3.org/2000/svg">
<path d="M12.88 20.16C8.84801 20.16 5.60001 16.912 5.60001 12.88C5.60001 8.84798 8.84801 5.59998 12.88 5.59998C16.912 5.59998 20.16 8.84798 20.16 12.88C20.16 16.912 16.912 20.16 12.88 20.16ZM12.88 6.71998C9.46401 6.71998 6.72001 9.46398 6.72001 12.88C6.72001 16.296 9.46401 19.04 12.88 19.04C16.296 19.04 19.04 16.296 19.04 12.88C19.04 9.46398 16.296 6.71998 12.88 6.71998Z" fill="#333333"/>
<path d="M18.3019 17.5095L23.3307 22.5383L22.5389 23.3302L17.5101 18.3014L18.3019 17.5095Z" fill="#333333"/>
</svg>
