<svg width="86" height="86" viewBox="0 0 86 86" fill="none" xmlns="http://www.w3.org/2000/svg">
<rect x="0.5" y="0.5" width="85" height="85" rx="42.5" fill="#1F3F7F"/>
<path d="M29 29H55C56.5913 29 58.1174 29.6321 59.2426 30.7574C60.3679 31.8826 61 33.4087 61 35V53C61 54.5913 60.3679 56.1174 59.2426 57.2426C58.1174 58.3679 56.5913 59 55 59H29C27.4087 59 25.8826 58.3679 24.7574 57.2426C23.6321 56.1174 23 54.5913 23 53V35C23 33.4087 23.6321 31.8826 24.7574 30.7574C25.8826 29.6321 27.4087 29 29 29ZM29 31C28 31 27.12 31.34 26.44 31.94L42 42L57.56 31.94C56.88 31.34 56 31 55 31H29ZM42 44.42L25.26 33.56C25.1 34 25 34.5 25 35V53C25 54.0609 25.4214 55.0783 26.1716 55.8284C26.9217 56.5786 27.9391 57 29 57H55C56.0609 57 57.0783 56.5786 57.8284 55.8284C58.5786 55.0783 59 54.0609 59 53V35C59 34.5 58.9 34 58.74 33.56L42 44.42Z" fill="white"/>
<rect x="0.5" y="0.5" width="85" height="85" rx="42.5" stroke="#1F3F7F"/>
</svg>
