<svg width="86" height="86" viewBox="0 0 86 86" fill="none" xmlns="http://www.w3.org/2000/svg">
<path d="M29 29.3438H55C56.5913 29.3438 58.1174 29.9759 59.2426 31.1011C60.3679 32.2263 61 33.7525 61 35.3438V53.3438C61 54.935 60.3679 56.4612 59.2426 57.5864C58.1174 58.7116 56.5913 59.3437 55 59.3438H29C27.4087 59.3437 25.8826 58.7116 24.7574 57.5864C23.6321 56.4612 23 54.935 23 53.3438V35.3438C23 33.7525 23.6321 32.2263 24.7574 31.1011C25.8826 29.9759 27.4087 29.3438 29 29.3438ZM29 31.3438C28 31.3438 27.12 31.6837 26.44 32.2837L42 42.3438L57.56 32.2837C56.88 31.6837 56 31.3438 55 31.3438H29ZM42 44.7638L25.26 33.9038C25.1 34.3438 25 34.8438 25 35.3438V53.3438C25 54.4046 25.4214 55.422 26.1716 56.1722C26.9217 56.9223 27.9391 57.3438 29 57.3438H55C56.0609 57.3438 57.0783 56.9223 57.8284 56.1722C58.5786 55.422 59 54.4046 59 53.3438V35.3438C59 34.8438 58.9 34.3438 58.74 33.9038L42 44.7638Z" fill="#ABA8A8"/>
<rect x="0.5" y="0.5" width="85" height="85" rx="42.5" stroke="#ABA8A8"/>
</svg>
