<svg width="19" height="16" viewBox="0 0 19 16" fill="none" xmlns="http://www.w3.org/2000/svg">
<path d="M3 0.995117H16C16.7956 0.995117 17.5587 1.31119 18.1213 1.8738C18.6839 2.43641 19 3.19947 19 3.99512V12.9951C19 13.7908 18.6839 14.5538 18.1213 15.1164C17.5587 15.679 16.7956 15.9951 16 15.9951H3C2.20435 15.9951 1.44129 15.679 0.87868 15.1164C0.316071 14.5538 0 13.7908 0 12.9951V3.99512C0 3.19947 0.316071 2.43641 0.87868 1.8738C1.44129 1.31119 2.20435 0.995117 3 0.995117ZM3 1.99512C2.5 1.99512 2.06 2.16512 1.72 2.46512L9.5 7.49512L17.28 2.46512C16.94 2.16512 16.5 1.99512 16 1.99512H3ZM9.5 8.70512L1.13 3.27512C1.05 3.49512 1 3.74512 1 3.99512V12.9951C1 13.5255 1.21071 14.0343 1.58579 14.4093C1.96086 14.7844 2.46957 14.9951 3 14.9951H16C16.5304 14.9951 17.0391 14.7844 17.4142 14.4093C17.7893 14.0343 18 13.5255 18 12.9951V3.99512C18 3.74512 17.95 3.49512 17.87 3.27512L9.5 8.70512Z" fill="white"/>
</svg>
