<svg width="11" height="11" viewBox="0 0 11 11" fill="none" xmlns="http://www.w3.org/2000/svg">
<g clip-path="url(#clip0_1586_32524)">
<path d="M10.1311 5.15078C10.1151 5.11875 9.78677 4.39404 9.05405 3.66133C8.32134 2.92861 7.20825 2.17188 5.49858 2.17188C3.78892 2.17188 2.61978 2.98066 1.94312 3.66133C1.26646 4.34199 0.88208 5.11875 0.866064 5.15078C0.849984 5.19198 0.849984 5.23771 0.866064 5.27891C0.88208 5.31094 1.2104 6.03564 1.94312 6.76836C2.67583 7.50107 3.78892 8.25781 5.49858 8.25781C7.20825 8.25781 8.37739 7.44902 9.05405 6.76836C9.73071 6.0877 10.1151 5.31094 10.1311 5.27891C10.1472 5.23771 10.1472 5.19198 10.1311 5.15078ZM8.82183 6.55215C7.89692 7.46904 6.77983 7.9375 5.49858 7.9375C4.21733 7.9375 3.10024 7.46904 2.17534 6.55215C1.78184 6.15827 1.44981 5.70747 1.19038 5.21484C1.44881 4.7216 1.78095 4.27065 2.17534 3.87754C3.10024 2.95664 4.21733 2.49219 5.49858 2.49219C6.77983 2.49219 7.89692 2.95664 8.82183 3.87754C9.21621 4.27065 9.54835 4.7216 9.80679 5.21484C9.54835 5.70809 9.21621 6.15904 8.82183 6.55215ZM5.49858 3.45312C5.15015 3.45312 4.80954 3.55645 4.51983 3.75003C4.23011 3.94361 4.00431 4.21875 3.87097 4.54066C3.73763 4.86258 3.70274 5.2168 3.77072 5.55854C3.83869 5.90028 4.00648 6.21419 4.25286 6.46057C4.49924 6.70695 4.81315 6.87474 5.15489 6.94271C5.49663 7.01069 5.85085 6.9758 6.17276 6.84246C6.49468 6.70912 6.76982 6.48331 6.9634 6.1936C7.15698 5.90389 7.2603 5.56328 7.2603 5.21484C7.2603 4.74761 7.07469 4.29951 6.74431 3.96912C6.41392 3.63873 5.96582 3.45312 5.49858 3.45312ZM5.49858 6.65625C5.2135 6.65625 4.93482 6.57171 4.69778 6.41333C4.46074 6.25495 4.27599 6.02983 4.1669 5.76645C4.0578 5.50306 4.02926 5.21324 4.08487 4.93364C4.14049 4.65403 4.27777 4.3972 4.47936 4.19562C4.68094 3.99403 4.93777 3.85675 5.21738 3.80113C5.49698 3.74552 5.7868 3.77406 6.05019 3.88316C6.31357 3.99225 6.53869 4.177 6.69707 4.41404C6.85545 4.65108 6.93999 4.92976 6.93999 5.21484C6.93999 5.59713 6.78813 5.96376 6.51781 6.23407C6.2475 6.50439 5.88087 6.65625 5.49858 6.65625Z" fill="#1F3F7F"/>
</g>
<defs>
<clipPath id="clip0_1586_32524">
<rect width="10.25" height="10.25" fill="white" transform="translate(0.373535 0.09375)"/>
</clipPath>
</defs>
</svg>
