<svg width="32" height="32" viewBox="0 0 32 32" fill="none" xmlns="http://www.w3.org/2000/svg">
<circle cx="15.7811" cy="15.7811" r="15.7206" fill="#FF007F"/>
<path fill-rule="evenodd" clip-rule="evenodd" d="M17.1165 8.23633C15.0389 8.23633 12.7248 8.58973 11.0043 10.4963C9.2864 12.4029 8.23438 15.7067 8.23438 21.4416V22.0704H13.6775C14.3 22.4635 14.9999 22.6993 15.7803 22.6993C16.56 22.6993 17.2611 22.4584 17.883 22.0704H23.955V21.4416C23.955 16.3324 22.9677 13.365 21.6755 11.6357C20.5373 10.114 19.2281 9.69017 18.2559 9.59207L17.6667 8.55074L17.4907 8.23633H17.1165ZM16.7625 9.53359L17.2737 10.4372L17.4498 10.7516H17.8239C18.459 10.7516 19.6148 10.9654 20.6725 12.3828C21.6824 13.7322 22.5715 16.3041 22.6583 20.8128H19.2784C19.3281 20.7495 19.3746 20.6823 19.4209 20.6154C19.439 20.5893 19.457 20.5632 19.4752 20.5374C20.3285 19.3193 20.8108 17.7988 20.8108 16.411H19.5532C19.5532 17.4939 19.1482 18.8175 18.4528 19.8105C17.7573 20.804 16.8272 21.4416 15.7803 21.4416C14.7345 21.4416 13.8039 20.8065 13.1078 19.8105C12.4116 18.8157 12.0073 17.4863 12.0073 16.411C12.0073 16.1318 12.0608 15.9916 12.1457 15.8803C12.2287 15.769 12.3745 15.6728 12.5965 15.586C13.0411 15.4099 13.7913 15.3376 14.5817 15.2716L14.6355 15.2671C15.4101 15.202 16.2146 15.1343 16.9398 14.8C17.6818 14.4573 18.2955 13.6819 18.2955 12.6381H17.0379C17.0379 13.2946 16.8656 13.4581 16.4279 13.6599C15.9915 13.8612 15.2445 13.9479 14.4635 14.014C14.3788 14.021 14.2936 14.0278 14.2081 14.0346C13.5051 14.0904 12.7802 14.1479 12.1243 14.4063C11.7577 14.551 11.4024 14.7698 11.1433 15.1144C10.8817 15.4584 10.7497 15.9193 10.7497 16.411C10.7497 17.7932 11.2326 19.2973 12.0859 20.5172C12.1551 20.6179 12.2274 20.7172 12.3022 20.8128H9.52975C9.61464 15.6797 10.605 12.8293 11.9469 11.3408C13.2599 9.88573 14.9546 9.57069 16.7612 9.53359H16.7625Z" fill="white"/>
</svg>
