<svg width="92" height="50" viewBox="0 0 92 50" fill="none" xmlns="http://www.w3.org/2000/svg">
<circle cx="25" cy="25" r="25" fill="#1F3F7F"/>
<path fill-rule="evenodd" clip-rule="evenodd" d="M27.125 13C23.821 13 20.141 13.562 17.405 16.594C14.673 19.626 13 24.88 13 34V35H21.656C22.646 35.625 23.759 36 25 36C26.24 36 27.355 35.617 28.344 35H38V34C38 25.875 36.43 21.156 34.375 18.406C32.565 15.986 30.483 15.312 28.937 15.156L28 13.5L27.72 13H27.125ZM26.562 15.063L27.375 16.5L27.655 17H28.25C29.26 17 31.098 17.34 32.78 19.594C34.386 21.74 35.8 25.83 35.938 33H30.563C30.6421 32.8993 30.716 32.7925 30.7896 32.6861C30.8184 32.6445 30.8471 32.603 30.876 32.562C32.233 30.625 33 28.207 33 26H31C31 27.722 30.356 29.827 29.25 31.406C28.144 32.986 26.665 34 25 34C23.337 34 21.857 32.99 20.75 31.406C19.643 29.824 19 27.71 19 26C19 25.556 19.085 25.333 19.22 25.156C19.352 24.979 19.584 24.826 19.937 24.688C20.644 24.408 21.837 24.293 23.094 24.188L23.1795 24.1808C24.4113 24.0772 25.6907 23.9697 26.844 23.438C28.024 22.893 29 21.66 29 20H27C27 21.044 26.726 21.304 26.03 21.625C25.336 21.945 24.148 22.083 22.906 22.188C22.7713 22.1993 22.6358 22.21 22.4998 22.2208C21.3819 22.3095 20.2291 22.401 19.186 22.812C18.603 23.042 18.038 23.39 17.626 23.938C17.21 24.485 17 25.218 17 26C17 28.198 17.768 30.59 19.125 32.53C19.235 32.69 19.35 32.848 19.469 33H15.06C15.195 24.837 16.77 20.304 18.904 17.937C20.992 15.623 23.687 15.122 26.56 15.063H26.562Z" fill="white"/>
<path fill-rule="evenodd" clip-rule="evenodd" d="M78.125 13C74.821 13 71.141 13.562 68.405 16.594C65.673 19.626 64 24.88 64 34V35H72.656C73.646 35.625 74.759 36 76 36C77.24 36 78.355 35.617 79.344 35H89V34C89 25.875 87.43 21.156 85.375 18.406C83.565 15.986 81.483 15.312 79.937 15.156L79 13.5L78.72 13H78.125ZM77.562 15.063L78.375 16.5L78.655 17H79.25C80.26 17 82.098 17.34 83.78 19.594C85.386 21.74 86.8 25.83 86.938 33H81.563C81.6421 32.8993 81.716 32.7925 81.7896 32.6861C81.8184 32.6445 81.8471 32.603 81.876 32.562C83.233 30.625 84 28.207 84 26H82C82 27.722 81.356 29.827 80.25 31.406C79.144 32.986 77.665 34 76 34C74.337 34 72.857 32.99 71.75 31.406C70.643 29.824 70 27.71 70 26C70 25.556 70.085 25.333 70.22 25.156C70.352 24.979 70.584 24.826 70.937 24.688C71.644 24.408 72.837 24.293 74.094 24.188L74.1795 24.1808C75.4113 24.0772 76.6907 23.9697 77.844 23.438C79.024 22.893 80 21.66 80 20H78C78 21.044 77.726 21.304 77.03 21.625C76.336 21.945 75.148 22.083 73.906 22.188C73.7713 22.1993 73.6358 22.21 73.4998 22.2208C72.3819 22.3095 71.2291 22.401 70.186 22.812C69.603 23.042 69.038 23.39 68.626 23.938C68.21 24.485 68 25.218 68 26C68 28.198 68.768 30.59 70.125 32.53C70.235 32.69 70.35 32.848 70.469 33H66.06C66.195 24.837 67.77 20.304 69.904 17.937C71.992 15.623 74.687 15.122 77.56 15.063H77.562Z" fill="white"/>
</svg>
