<svg width="32" height="32" viewBox="0 0 32 32" fill="none" xmlns="http://www.w3.org/2000/svg">
<circle cx="16" cy="16" r="16" fill="#1F3F7F"/>
<path fill-rule="evenodd" clip-rule="evenodd" d="M17.3601 8.32007C15.2455 8.32007 12.8903 8.67975 11.1393 10.6202C9.39079 12.5607 8.32007 15.9233 8.32007 21.7601V22.4001H13.8599C14.4935 22.8001 15.2058 23.0401 16.0001 23.0401C16.7937 23.0401 17.5073 22.7949 18.1402 22.4001H24.3201V21.7601C24.3201 16.5601 23.3153 13.5399 22.0001 11.7799C20.8417 10.2311 19.5092 9.79975 18.5197 9.69991L17.9201 8.64007L17.7409 8.32007H17.3601ZM16.9997 9.64039L17.5201 10.5601L17.6993 10.8801H18.0801C18.7265 10.8801 19.9028 11.0977 20.9793 12.5402C22.0071 13.9137 22.9121 16.5313 23.0004 21.1201H19.5604C19.611 21.0556 19.6583 20.9872 19.7054 20.9192C19.7238 20.8926 19.7422 20.866 19.7607 20.8397C20.6292 19.6001 21.1201 18.0525 21.1201 16.6401H19.8401C19.8401 17.7421 19.4279 19.0893 18.7201 20.0999C18.0122 21.1111 17.0657 21.7601 16.0001 21.7601C14.9357 21.7601 13.9885 21.1137 13.2801 20.0999C12.5716 19.0874 12.1601 17.7345 12.1601 16.6401C12.1601 16.3559 12.2145 16.2132 12.3009 16.0999C12.3853 15.9866 12.5338 15.8887 12.7597 15.8004C13.2122 15.6212 13.9757 15.5476 14.7802 15.4804L14.8349 15.4758C15.6233 15.4095 16.4421 15.3407 17.1802 15.0004C17.9354 14.6516 18.5601 13.8625 18.5601 12.8001H17.2801C17.2801 13.4682 17.1047 13.6346 16.6593 13.8401C16.2151 14.0449 15.4548 14.1332 14.6599 14.2004C14.5737 14.2076 14.487 14.2145 14.3999 14.2214C13.6845 14.2782 12.9467 14.3367 12.2791 14.5997C11.906 14.7469 11.5444 14.9697 11.2807 15.3204C11.0145 15.6705 10.8801 16.1396 10.8801 16.6401C10.8801 18.0468 11.3716 19.5777 12.2401 20.8193C12.3105 20.9217 12.3841 21.0228 12.4602 21.1201H9.63847C9.72487 15.8957 10.7329 12.9946 12.0986 11.4797C13.4349 9.99879 15.1597 9.67815 16.9985 9.64039H16.9997Z" fill="white"/>
</svg>
