<?xml version="1.0" encoding="UTF-8"?>
<!DOCTYPE svg PUBLIC "-//W3C//DTD SVG 1.1//EN" "http://www.w3.org/Graphics/SVG/1.1/DTD/svg11.dtd">
<svg xmlns="http://www.w3.org/2000/svg" version="1.1" width="128px" height="128px" style="shape-rendering:geometricPrecision; text-rendering:geometricPrecision; image-rendering:optimizeQuality; fill-rule:evenodd; clip-rule:evenodd" xmlns:xlink="http://www.w3.org/1999/xlink">
<g><path style="opacity:0.999" fill="#2392f3" d="M 17.5,-0.5 C 36.5,-0.5 55.5,-0.5 74.5,-0.5C 74.5,8.5 74.5,17.5 74.5,26.5C 63.9179,26.1801 53.4179,26.5134 43,27.5C 42.3333,44.8333 42.3333,62.1667 43,79.5C 56.7583,80.6559 70.5917,80.8226 84.5,80C 85.4878,68.5809 85.8211,57.0809 85.5,45.5C 87.1667,46.8333 88.8333,48.1667 90.5,49.5C 98.1667,57.8333 106.167,65.8333 114.5,73.5C 114.5,80.5 114.5,87.5 114.5,94.5C 80.8333,94.5 47.1667,94.5 13.5,94.5C 13.5,103.167 13.5,111.833 13.5,120.5C 12.3355,82.6689 12.1689,44.6689 13,6.5C 13.9042,3.76664 15.4042,1.43331 17.5,-0.5 Z"/></g>
<g><path style="opacity:0.998" fill="#b9dcfa" d="M 74.5,-0.5 C 74.8333,-0.5 75.1667,-0.5 75.5,-0.5C 88.1667,12.5 100.833,25.5 113.5,38.5C 104.167,38.5 94.8333,38.5 85.5,38.5C 83.5,38.5 81.5,38.5 79.5,38.5C 79.44,37.9569 79.1067,37.6236 78.5,37.5C 77.52,40.0865 77.1866,42.7531 77.5,45.5C 72.8333,45.5 68.1667,45.5 63.5,45.5C 63.5,42.5 63.5,39.5 63.5,36.5C 67.8461,36.6657 72.1794,36.499 76.5,36C 75.695,34.8873 75.0283,33.7206 74.5,32.5C 65.6822,31.5067 56.6822,31.1734 47.5,31.5C 56.3178,30.5067 65.3178,30.1734 74.5,30.5C 74.5,29.1667 74.5,27.8333 74.5,26.5C 74.5,17.5 74.5,8.5 74.5,-0.5 Z"/></g>
<g><path style="opacity:1" fill="#fafcfe" d="M 74.5,26.5 C 74.5,27.8333 74.5,29.1667 74.5,30.5C 65.3178,30.1734 56.3178,30.5067 47.5,31.5C 47.5,46.1667 47.5,60.8333 47.5,75.5C 58.6544,76.4948 69.9877,76.8281 81.5,76.5C 81.5,64.8333 81.5,53.1667 81.5,41.5C 82.8333,42.5 84.1667,43.5 85.5,44.5C 85.5,44.8333 85.5,45.1667 85.5,45.5C 85.8211,57.0809 85.4878,68.5809 84.5,80C 70.5917,80.8226 56.7583,80.6559 43,79.5C 42.3333,62.1667 42.3333,44.8333 43,27.5C 53.4179,26.5134 63.9179,26.1801 74.5,26.5 Z"/></g>
<g><path style="opacity:1" fill="#2f95f3" d="M 74.5,32.5 C 75.0283,33.7206 75.695,34.8873 76.5,36C 72.1794,36.499 67.8461,36.6657 63.5,36.5C 63.5,39.5 63.5,42.5 63.5,45.5C 68.1667,45.5 72.8333,45.5 77.5,45.5C 77.1866,42.7531 77.52,40.0865 78.5,37.5C 79.1067,37.6236 79.44,37.9569 79.5,38.5C 79.8333,39.1667 80.1667,39.8333 80.5,40.5C 80.5,52.1667 80.5,63.8333 80.5,75.5C 70.1667,75.5 59.8333,75.5 49.5,75.5C 49.5,71.1667 49.5,66.8333 49.5,62.5C 53.7796,63.3876 57.9462,63.7209 62,63.5C 62.4828,62.552 62.6495,61.552 62.5,60.5C 60.2341,60.1412 58.4007,60.8078 57,62.5C 54.8938,60.709 52.3938,60.0423 49.5,60.5C 49.5,57.5 49.5,54.5 49.5,51.5C 86.8333,50.8333 86.8333,50.1667 49.5,49.5C 49.5,48.1667 49.5,46.8333 49.5,45.5C 53.1667,45.5 56.8333,45.5 60.5,45.5C 60.5,44.5 60.5,43.5 60.5,42.5C 56.8333,42.5 53.1667,42.5 49.5,42.5C 49.5,41.5 49.5,40.5 49.5,39.5C 53.1667,39.5 56.8333,39.5 60.5,39.5C 60.5,38.5 60.5,37.5 60.5,36.5C 56.8333,36.5 53.1667,36.5 49.5,36.5C 49.5,35.1667 49.5,33.8333 49.5,32.5C 57.8333,32.5 66.1667,32.5 74.5,32.5 Z"/></g>
<g><path style="opacity:1" fill="#1e87f2" d="M 47.5,31.5 C 56.6822,31.1734 65.6822,31.5067 74.5,32.5C 66.1667,32.5 57.8333,32.5 49.5,32.5C 49.5,33.8333 49.5,35.1667 49.5,36.5C 49.5,37.5 49.5,38.5 49.5,39.5C 49.5,40.5 49.5,41.5 49.5,42.5C 49.5,43.5 49.5,44.5 49.5,45.5C 49.5,46.8333 49.5,48.1667 49.5,49.5C 49.5,50.1667 49.5,50.8333 49.5,51.5C 49.5,54.5 49.5,57.5 49.5,60.5C 49.5,61.1667 49.5,61.8333 49.5,62.5C 49.5,66.8333 49.5,71.1667 49.5,75.5C 48.8333,75.5 48.1667,75.5 47.5,75.5C 47.5,60.8333 47.5,46.1667 47.5,31.5 Z"/></g>
<g><path style="opacity:1" fill="#b4d9fa" d="M 49.5,36.5 C 53.1667,36.5 56.8333,36.5 60.5,36.5C 60.5,37.5 60.5,38.5 60.5,39.5C 56.8333,39.5 53.1667,39.5 49.5,39.5C 49.5,38.5 49.5,37.5 49.5,36.5 Z"/></g>
<g><path style="opacity:1" fill="#9ca0a4" d="M 79.5,38.5 C 81.5,38.5 83.5,38.5 85.5,38.5C 85.5,40.5 85.5,42.5 85.5,44.5C 84.1667,43.5 82.8333,42.5 81.5,41.5C 81.5,40.8333 81.1667,40.5 80.5,40.5C 80.1667,39.8333 79.8333,39.1667 79.5,38.5 Z"/></g>
<g><path style="opacity:1" fill="#aed6fa" d="M 49.5,42.5 C 53.1667,42.5 56.8333,42.5 60.5,42.5C 60.5,43.5 60.5,44.5 60.5,45.5C 56.8333,45.5 53.1667,45.5 49.5,45.5C 49.5,44.5 49.5,43.5 49.5,42.5 Z"/></g>
<g><path style="opacity:1" fill="#2776bf" d="M 85.5,38.5 C 94.8333,38.5 104.167,38.5 113.5,38.5C 105.321,40.7534 97.654,44.4201 90.5,49.5C 88.8333,48.1667 87.1667,46.8333 85.5,45.5C 85.5,45.1667 85.5,44.8333 85.5,44.5C 85.5,42.5 85.5,40.5 85.5,38.5 Z"/></g>
<g><path style="opacity:1" fill="#1f89e4" d="M 113.5,38.5 C 114.495,49.988 114.828,61.6547 114.5,73.5C 106.167,65.8333 98.1667,57.8333 90.5,49.5C 97.654,44.4201 105.321,40.7534 113.5,38.5 Z"/></g>
<g><path style="opacity:1" fill="#badcfa" d="M 49.5,49.5 C 86.8333,50.1667 86.8333,50.8333 49.5,51.5C 49.5,50.8333 49.5,50.1667 49.5,49.5 Z"/></g>
<g><path style="opacity:1" fill="#6cb5f6" d="M 50.5,54.5 C 52.9572,54.7923 55.6239,54.7923 58.5,54.5C 58.5,55.5 58.5,56.5 58.5,57.5C 55.8333,57.5 53.1667,57.5 50.5,57.5C 50.5,56.5 50.5,55.5 50.5,54.5 Z"/></g>
<g><path style="opacity:1" fill="#64b1f6" d="M 59.5,54.5 C 60.5726,55.6579 61.7393,55.6579 63,54.5C 63.9454,54.9054 64.6121,55.572 65,56.5C 66.1803,55.3159 67.6803,54.6493 69.5,54.5C 72.5075,55.819 75.5075,55.819 78.5,54.5C 78.5,55.5 78.5,56.5 78.5,57.5C 74.6494,58.0291 71.1494,57.3625 68,55.5C 65.544,57.3213 62.7107,57.988 59.5,57.5C 59.5,56.5 59.5,55.5 59.5,54.5 Z"/></g>
<g><path style="opacity:1" fill="#62b0f6" d="M 63.5,60.5 C 66.8333,60.5 70.1667,60.5 73.5,60.5C 73.6495,61.552 73.4828,62.552 73,63.5C 70.3114,62.9499 67.1447,62.9499 63.5,63.5C 63.5,62.5 63.5,61.5 63.5,60.5 Z"/></g>
<g><path style="opacity:1" fill="#60aff6" d="M 49.5,60.5 C 52.3938,60.0423 54.8938,60.709 57,62.5C 58.4007,60.8078 60.2341,60.1412 62.5,60.5C 62.6495,61.552 62.4828,62.552 62,63.5C 57.9462,63.7209 53.7796,63.3876 49.5,62.5C 49.5,61.8333 49.5,61.1667 49.5,60.5 Z"/></g>
<g><path style="opacity:1" fill="#69b4f6" d="M 59.5,65.5 C 61.7659,65.1412 63.5993,65.8078 65,67.5C 66.1803,66.3159 67.6803,65.6493 69.5,65.5C 72.5075,66.819 75.5075,66.819 78.5,65.5C 78.5,66.5 78.5,67.5 78.5,68.5C 74.6494,69.0291 71.1494,68.3625 68,66.5C 65.544,68.3213 62.7107,68.988 59.5,68.5C 59.5,67.5 59.5,66.5 59.5,65.5 Z"/></g>
<g><path style="opacity:1" fill="#badcfb" d="M 80.5,40.5 C 81.1667,40.5 81.5,40.8333 81.5,41.5C 81.5,53.1667 81.5,64.8333 81.5,76.5C 69.9877,76.8281 58.6544,76.4948 47.5,75.5C 48.1667,75.5 48.8333,75.5 49.5,75.5C 59.8333,75.5 70.1667,75.5 80.5,75.5C 80.5,63.8333 80.5,52.1667 80.5,40.5 Z"/></g>
<g><path style="opacity:0.999" fill="#1471fa" d="M 114.5,94.5 C 114.666,103.839 114.5,113.173 114,122.5C 112.975,124.687 111.475,126.354 109.5,127.5C 78.8333,127.5 48.1667,127.5 17.5,127.5C 15.2947,125.637 13.9613,123.303 13.5,120.5C 13.5,111.833 13.5,103.167 13.5,94.5C 47.1667,94.5 80.8333,94.5 114.5,94.5 Z"/></g>
<g><path style="opacity:1" fill="#eff9fe" d="M 37.5,104.5 C 43.3176,102.969 46.9843,104.969 48.5,110.5C 46.9843,116.031 43.3176,118.031 37.5,116.5C 37.5,112.5 37.5,108.5 37.5,104.5 Z"/></g>
<g><path style="opacity:1" fill="#ebfffe" d="M 49.5,104.5 C 51.337,104.639 51.6704,105.306 50.5,106.5C 49.7025,106.043 49.3691,105.376 49.5,104.5 Z"/></g>
<g><path style="opacity:1" fill="#477afa" d="M 39.5,106.5 C 45.3133,106.062 46.98,108.562 44.5,114C 42.8659,114.494 41.1992,114.66 39.5,114.5C 39.5,111.833 39.5,109.167 39.5,106.5 Z"/></g>
<g><path style="opacity:1" fill="#ebfffe" d="M 49.5,107.5 C 50.7647,108.514 51.4313,110.014 51.5,112C 51.1667,113.5 50.8333,115 50.5,116.5C 49.5159,113.572 49.1826,110.572 49.5,107.5 Z"/></g>
<g><path style="opacity:1" fill="#eff7fe" d="M 56.5,107.5 C 59.0217,107.128 61.0217,107.961 62.5,110C 60.555,109.872 58.7216,110.038 57,110.5C 56.3162,111.784 56.4829,112.951 57.5,114C 59.1261,113.805 60.7928,113.805 62.5,114C 58.6299,117.699 55.9632,117.033 54.5,112C 54.7586,110.213 55.4253,108.713 56.5,107.5 Z"/></g>
<g><path style="opacity:1" fill="#f0f3fe" d="M 65.5,107.5 C 71.487,106.977 73.487,109.477 71.5,115C 63.8394,117.168 61.8394,114.668 65.5,107.5 Z"/></g>
<g><path style="opacity:1" fill="#eaf5fe" d="M 73.5,107.5 C 77.4819,107.658 81.4819,107.825 85.5,108C 86.7825,110.795 86.7825,113.628 85.5,116.5C 84.5258,114.257 84.1924,111.924 84.5,109.5C 83.5,109.5 82.5,109.5 81.5,109.5C 81.5,111.833 81.5,114.167 81.5,116.5C 80.5,116.5 79.5,116.5 78.5,116.5C 77.9384,107.43 76.6051,107.43 74.5,116.5C 73.5159,113.572 73.1826,110.572 73.5,107.5 Z"/></g>
<g><path style="opacity:1" fill="#3b78fa" d="M 66.5,109.5 C 67.5,109.5 68.5,109.5 69.5,109.5C 69.5,111.167 69.5,112.833 69.5,114.5C 65.7162,114.475 64.7162,112.808 66.5,109.5 Z"/></g>
</svg>
