<svg width="12" height="14" viewBox="0 0 12 14" fill="none" xmlns="http://www.w3.org/2000/svg">
<path d="M7.53223 13.0978C7.40862 13.0972 7.28745 13.0633 7.1815 12.9996L4.9241 11.6454C4.67016 11.4922 4.45995 11.2761 4.31373 11.0181C4.16751 10.76 4.09021 10.4687 4.08926 10.1721V7.10829C4.08988 6.89202 4.02262 6.68102 3.89697 6.50501L0.745145 2.07553C0.671549 1.97327 0.62763 1.85267 0.618237 1.72703C0.608843 1.6014 0.634339 1.47561 0.691912 1.36354C0.749484 1.25148 0.836895 1.1575 0.9445 1.09197C1.05211 1.02644 1.17572 0.991913 1.30171 0.992193H11.0043C11.1304 0.991668 11.2542 1.02605 11.3619 1.09152C11.4697 1.157 11.5572 1.25102 11.6148 1.36317C11.6725 1.47533 11.6979 1.60124 11.6884 1.72696C11.6789 1.85269 11.6347 1.97333 11.5609 2.07553L8.40905 6.50501C8.2832 6.68096 8.21571 6.89196 8.21608 7.10829V12.4126C8.2159 12.594 8.14384 12.768 8.01567 12.8964C7.8875 13.0248 7.71367 13.0972 7.53223 13.0978ZM1.30171 1.67266L4.44811 6.1123C4.65601 6.40271 4.76734 6.75113 4.76634 7.10829V10.1714C4.76679 10.3511 4.81357 10.5276 4.90217 10.684C4.99077 10.8403 5.11819 10.9711 5.27212 11.0638L7.52952 12.418L7.539 7.10761C7.53825 6.75039 7.64981 6.40197 7.85791 6.11162L11.0091 1.68214L1.30171 1.67266Z" fill="#333333"/>
</svg>
