<svg width="14" height="14" viewBox="0 0 14 14" fill="none" xmlns="http://www.w3.org/2000/svg">
<path d="M8.52787 13.7022C8.39095 13.7016 8.25673 13.664 8.13937 13.5935L5.63887 12.0935C5.35758 11.9237 5.12474 11.6844 4.96277 11.3986C4.8008 11.1127 4.71517 10.79 4.71412 10.4615V7.06773C4.71481 6.82817 4.64031 6.59444 4.50112 6.39948L1.00987 1.49298C0.928349 1.37971 0.879702 1.24612 0.869296 1.10695C0.858891 0.967786 0.887133 0.82845 0.950906 0.704318C1.01468 0.580186 1.1115 0.476084 1.2307 0.403498C1.34989 0.330913 1.48682 0.292665 1.62637 0.292975H12.3739C12.5135 0.292393 12.6506 0.330474 12.77 0.403002C12.8894 0.47553 12.9863 0.579675 13.0501 0.703906C13.114 0.828137 13.1422 0.967607 13.1316 1.10688C13.1211 1.24614 13.0722 1.37978 12.9904 1.49298L9.49912 6.39948C9.35972 6.59438 9.28496 6.8281 9.28537 7.06773V12.9432C9.28517 13.1442 9.20535 13.3369 9.06338 13.4792C8.9214 13.6214 8.72885 13.7016 8.52787 13.7022ZM1.62637 1.04673L5.11162 5.96448C5.34191 6.28616 5.46523 6.67211 5.46412 7.06773V10.4607C5.46462 10.6598 5.51644 10.8553 5.61458 11.0285C5.71272 11.2016 5.85386 11.3465 6.02437 11.4492L8.52487 12.9492L8.53537 7.06698C8.53454 6.67128 8.65811 6.28534 8.88862 5.96373L12.3791 1.05723L1.62637 1.04673Z" fill="#1F3F7F"/>
</svg>
