<svg width="24" height="24" viewBox="0 0 24 24" fill="none" xmlns="http://www.w3.org/2000/svg">
<path d="M12.815 12.1969L5.28302 13.4519C5.19642 13.4664 5.11516 13.5034 5.0474 13.5592C4.97964 13.615 4.92778 13.6877 4.89702 13.7699L2.30002 20.7279C2.05202 21.3679 2.72102 21.9779 3.33502 21.6699L21.335 12.6699C21.4594 12.6076 21.564 12.5118 21.6371 12.3934C21.7102 12.275 21.749 12.1386 21.749 11.9994C21.749 11.8603 21.7102 11.7238 21.6371 11.6054C21.564 11.487 21.4594 11.3913 21.335 11.3289L3.33502 2.32893C2.72102 2.02193 2.05202 2.63193 2.30002 3.27093L4.89802 10.2289C4.92878 10.3112 4.98064 10.3838 5.0484 10.4397C5.11616 10.4955 5.19742 10.5325 5.28402 10.5469L12.816 11.8019C12.863 11.8094 12.9058 11.8334 12.9367 11.8696C12.9675 11.9058 12.9845 11.9518 12.9845 11.9994C12.9845 12.047 12.9675 12.093 12.9367 12.1292C12.9058 12.1654 12.863 12.1894 12.816 12.1969H12.815Z" fill="#1F3F7F"/>
</svg>
