<svg width="18" height="19" viewBox="0 0 18 19" fill="none" xmlns="http://www.w3.org/2000/svg">
<path d="M9.70885 2.22153L2.73999 9.59783C2.47685 9.87794 2.22221 10.4297 2.17128 10.8117L1.85721 13.5618C1.74686 14.555 2.45988 15.234 3.44452 15.0643L6.17774 14.5974C6.55971 14.5295 7.09447 14.2494 7.3576 13.9608L14.3265 6.5845C15.5318 5.31126 16.075 3.85977 14.1991 2.08572C12.3317 0.32865 10.9142 0.948293 9.70885 2.22153V2.22153Z" stroke="#333333" stroke-width="1.5" stroke-miterlimit="10" stroke-linecap="round" stroke-linejoin="round"/>
<path d="M8.54607 3.45215C8.72402 4.5903 9.27487 5.63714 10.1122 6.42834C10.9495 7.21954 12.0258 7.71031 13.1722 7.8236M1 17.8398H16.2789" stroke="#333333" stroke-width="1.5" stroke-miterlimit="10" stroke-linecap="round" stroke-linejoin="round"/>
</svg>
