<svg width="24" height="24" viewBox="0 0 24 24" fill="none" xmlns="http://www.w3.org/2000/svg">
<g clip-path="url(#clip0_1501_21412)">
<path d="M20.9719 5.71413C20.9739 5.36226 20.8864 5.01564 20.7175 4.70693C20.5487 4.39821 20.304 4.13756 20.0066 3.9495C19.7092 3.76145 19.3688 3.65219 19.0175 3.632C18.6662 3.61182 18.3155 3.68138 17.9985 3.83413C17.9776 3.47977 17.8683 3.1363 17.6805 2.83501C17.4928 2.53373 17.2327 2.28423 16.9238 2.10925C16.615 1.93428 16.2672 1.8394 15.9123 1.83326C15.5574 1.82713 15.2066 1.90994 14.8919 2.07413C14.8564 1.56455 14.6441 1.08333 14.2917 0.713514C13.9394 0.343695 13.4689 0.108468 12.9617 0.048416C12.4544 -0.0116355 11.9421 0.107255 11.5131 0.384576C11.0841 0.661897 10.7654 1.08025 10.6119 1.56747C10.2775 1.36695 9.89504 1.26096 9.50519 1.2608C9.21834 1.26167 8.93449 1.31914 8.6699 1.42992C8.40531 1.5407 8.16518 1.70261 7.96328 1.90637C7.76138 2.11013 7.60167 2.35173 7.49332 2.61733C7.38497 2.88292 7.3301 3.16729 7.33186 3.45413V11.8941C6.47852 10.8275 5.64519 9.77413 5.51852 9.59413C5.32572 9.28799 5.058 9.03609 4.7407 8.86227C4.42339 8.68845 4.06698 8.59845 3.70519 8.6008C3.39832 8.59152 3.0928 8.64524 2.80749 8.75863C2.52219 8.87203 2.26315 9.04269 2.04637 9.26009C1.8296 9.4775 1.65968 9.73702 1.5471 10.0227C1.43453 10.3083 1.38169 10.614 1.39186 10.9208C1.45186 12.1208 3.77186 16.3608 5.33186 18.6675C7.69186 22.1608 9.94519 22.6675 10.0452 22.6675H17.0585C17.1912 22.666 17.3199 22.6216 17.4252 22.5408C18.6223 21.4376 19.4881 20.0223 19.9252 18.4541C20.5919 16.3941 20.9452 13.4341 20.9785 9.41413L20.9719 5.71413ZM18.7852 18.0808C18.4109 19.3497 17.7389 20.5108 16.8252 21.4675H10.2185C9.90519 21.3741 8.17186 20.7341 6.30519 17.9675C4.43852 15.2008 2.62519 11.5141 2.59186 10.8608C2.58648 10.7212 2.6104 10.5821 2.66207 10.4524C2.71374 10.3226 2.79202 10.2051 2.89186 10.1075C2.9902 10.0062 3.1086 9.92668 3.23947 9.87387C3.37034 9.82106 3.51081 9.79618 3.65186 9.8008C3.82797 9.79055 4.00347 9.82937 4.15884 9.91294C4.3142 9.9965 4.44333 10.1215 4.53186 10.2741C4.72519 10.5608 6.10519 12.2741 6.91186 13.2941L8.53186 12.2008V3.45413C8.52065 3.31819 8.53776 3.18141 8.58209 3.05241C8.62642 2.92342 8.69702 2.80501 8.78942 2.70468C8.88183 2.60435 8.99403 2.52427 9.11895 2.46949C9.24387 2.41471 9.37879 2.38643 9.51519 2.38643C9.65159 2.38643 9.78651 2.41471 9.91143 2.46949C10.0363 2.52427 10.1485 2.60435 10.241 2.70468C10.3334 2.80501 10.404 2.92342 10.4483 3.05241C10.4926 3.18141 10.5097 3.31819 10.4985 3.45413V10.8808H11.6985V2.21413C11.7269 1.96881 11.8445 1.74248 12.0288 1.57819C12.2132 1.41391 12.4516 1.32313 12.6985 1.32313C12.9455 1.32313 13.1838 1.41391 13.3682 1.57819C13.5526 1.74248 13.6701 1.96881 13.6985 2.21413V10.9675H14.8985V4.0008C14.8875 3.86935 14.9039 3.73705 14.9466 3.61226C14.9894 3.48747 15.0575 3.3729 15.1468 3.27581C15.2361 3.17872 15.3446 3.10122 15.4654 3.0482C15.5861 2.99519 15.7166 2.96781 15.8485 2.96781C15.9804 2.96781 16.1109 2.99519 16.2317 3.0482C16.3525 3.10122 16.4609 3.17872 16.5502 3.27581C16.6395 3.3729 16.7077 3.48747 16.7504 3.61226C16.7932 3.73705 16.8095 3.86935 16.7985 4.0008V11.6275H17.9985V5.69413C18.0177 5.4731 18.1191 5.26731 18.2827 5.11738C18.4462 4.96745 18.66 4.88428 18.8819 4.88428C19.1037 4.88428 19.3175 4.96745 19.4811 5.11738C19.6446 5.26731 19.746 5.4731 19.7652 5.69413V9.39413C19.7452 13.3341 19.4252 16.1408 18.7852 18.0808Z" fill="#ECECEC"/>
</g>
<defs>
<clipPath id="clip0_1501_21412">
<rect width="24" height="24" fill="white"/>
</clipPath>
</defs>
</svg>
