<svg width="157" height="173" viewBox="0 0 157 173" fill="none" xmlns="http://www.w3.org/2000/svg">
<g filter="url(#filter0_d_1843_26056)">
<rect x="9" y="8" width="137" height="153" rx="8" fill="white" shape-rendering="crispEdges"/>
<path d="M73.125 67H60V80.125H73.125V67Z" stroke="#393939" stroke-width="4.375" stroke-linecap="round" stroke-linejoin="round"/>
<path d="M95 93.25H86.25V102H95V93.25Z" stroke="#393939" stroke-width="4.375" stroke-linecap="round" stroke-linejoin="round"/>
<path d="M60 88.875V102" stroke="#393939" stroke-width="4.375" stroke-linecap="round" stroke-linejoin="round"/>
<path d="M68.75 88.875V102H77.5V88.875V84.5H81.875H95" stroke="#393939" stroke-width="4.375" stroke-linecap="round" stroke-linejoin="round"/>
<path d="M95 75.75H81.875V67H95" stroke="#393939" stroke-width="4.375" stroke-linecap="round" stroke-linejoin="round"/>
<path d="M60 53.875H51.25C50.0897 53.875 48.9769 54.3359 48.1564 55.1564C47.3359 55.9769 46.875 57.0897 46.875 58.25V67" stroke="#393939" stroke-width="4.375" stroke-linecap="round" stroke-linejoin="round"/>
<path d="M95 53.875H103.75C104.91 53.875 106.023 54.3359 106.844 55.1564C107.664 55.9769 108.125 57.0897 108.125 58.25V67" stroke="#393939" stroke-width="4.375" stroke-linecap="round" stroke-linejoin="round"/>
<path d="M108.125 102V110.75C108.125 111.91 107.664 113.023 106.844 113.844C106.023 114.664 104.91 115.125 103.75 115.125H95" stroke="#393939" stroke-width="4.375" stroke-linecap="round" stroke-linejoin="round"/>
<path d="M60 115.125H51.25C50.0897 115.125 48.9769 114.664 48.1564 113.844C47.3359 113.023 46.875 111.91 46.875 110.75V102" stroke="#393939" stroke-width="4.375" stroke-linecap="round" stroke-linejoin="round"/>
<path d="M106.75 107H105.75V108V121H98.2803H95.8661L97.5732 122.707L111.293 136.427L112 137.134L112.707 136.427L126.427 122.707L128.134 121H125.72H118.25V108V107H117.25H106.75Z" fill="#1F3F7F" stroke="white" stroke-width="2"/>
<path d="M67 62H22V45H67V62Z" fill="#1F3F7F"/>
<path d="M32.6912 57.0666C32.6912 56.7831 32.7936 56.5468 32.9983 56.3578C33.2031 56.1648 33.467 56.0683 33.7899 56.0683C34.1168 56.0683 34.3807 56.1648 34.5815 56.3578C34.7863 56.5468 34.8887 56.7831 34.8887 57.0666C34.8887 57.3502 34.7863 57.5885 34.5815 57.7814C34.3807 57.9705 34.1168 58.065 33.7899 58.065C33.467 58.065 33.2031 57.9705 32.9983 57.7814C32.7936 57.5885 32.6912 57.3502 32.6912 57.0666ZM38.5217 49.3989V58H36.4542V49.3989H38.5217ZM47.2587 53.5281V53.8767C47.2587 54.5343 47.1662 55.1251 46.9811 55.6489C46.7999 56.1687 46.542 56.6137 46.2072 56.9839C45.8725 57.3502 45.4767 57.6318 45.0198 57.8287C44.563 58.0217 44.0589 58.1181 43.5075 58.1181C42.9523 58.1181 42.4442 58.0217 41.9834 57.8287C41.5266 57.6318 41.1288 57.3502 40.7902 56.9839C40.4554 56.6137 40.1955 56.1687 40.0104 55.6489C39.8292 55.1251 39.7386 54.5343 39.7386 53.8767V53.5281C39.7386 52.8704 39.8292 52.2797 40.0104 51.7559C40.1955 51.2321 40.4534 50.7871 40.7843 50.4209C41.119 50.0507 41.5148 49.7691 41.9716 49.5761C42.4324 49.3792 42.9404 49.2807 43.4957 49.2807C44.0471 49.2807 44.5512 49.3792 45.008 49.5761C45.4688 49.7691 45.8666 50.0507 46.2013 50.4209C46.5361 50.7871 46.796 51.2321 46.9811 51.7559C47.1662 52.2797 47.2587 52.8704 47.2587 53.5281ZM45.1557 53.8767V53.5163C45.1557 53.091 45.1183 52.7168 45.0435 52.3939C44.9726 52.067 44.8662 51.7933 44.7245 51.5728C44.5827 51.3522 44.4074 51.1868 44.1987 51.0766C43.9939 50.9624 43.7596 50.9053 43.4957 50.9053C43.2201 50.9053 42.9798 50.9624 42.775 51.0766C42.5702 51.1868 42.3989 51.3522 42.2611 51.5728C42.1233 51.7933 42.0189 52.067 41.948 52.3939C41.8811 52.7168 41.8476 53.091 41.8476 53.5163V53.8767C41.8476 54.2981 41.8811 54.6722 41.948 54.9991C42.0189 55.322 42.1233 55.5957 42.2611 55.8202C42.4029 56.0447 42.5762 56.214 42.7809 56.3282C42.9897 56.4424 43.2319 56.4995 43.5075 56.4995C43.7714 56.4995 44.0057 56.4424 44.2105 56.3282C44.4153 56.214 44.5866 56.0447 44.7245 55.8202C44.8662 55.5957 44.9726 55.322 45.0435 54.9991C45.1183 54.6722 45.1557 54.2981 45.1557 53.8767ZM52.7644 55.7138C52.7644 55.5799 52.7447 55.4598 52.7053 55.3535C52.6659 55.2432 52.5931 55.1408 52.4867 55.0463C52.3804 54.9518 52.2268 54.8573 52.026 54.7628C51.8291 54.6643 51.5691 54.5619 51.2462 54.4556C50.8681 54.3296 50.5038 54.1878 50.1533 54.0303C49.8028 53.8688 49.4897 53.6817 49.2141 53.4691C48.9384 53.2524 48.7198 53.0004 48.5583 52.7129C48.3969 52.4215 48.3161 52.0828 48.3161 51.6968C48.3161 51.3266 48.3988 50.9939 48.5643 50.6985C48.7297 50.3992 48.96 50.1452 49.2554 49.9364C49.5547 49.7238 49.9052 49.5623 50.3069 49.452C50.7086 49.3378 51.1477 49.2807 51.6243 49.2807C52.2544 49.2807 52.8097 49.391 53.2901 49.6115C53.7745 49.8281 54.1526 50.1373 54.4244 50.539C54.7 50.9368 54.8379 51.4074 54.8379 51.9509H52.7762C52.7762 51.7343 52.7309 51.5433 52.6403 51.3778C52.5537 51.2124 52.4218 51.0825 52.2445 50.988C52.0673 50.8934 51.8448 50.8462 51.577 50.8462C51.3171 50.8462 51.0985 50.8856 50.9213 50.9643C50.7441 51.0431 50.6102 51.1494 50.5196 51.2833C50.429 51.4133 50.3837 51.557 50.3837 51.7146C50.3837 51.8445 50.4192 51.9627 50.4901 52.069C50.5649 52.1714 50.6692 52.2679 50.8031 52.3585C50.941 52.449 51.1064 52.5357 51.2994 52.6184C51.4963 52.7011 51.7168 52.7818 51.961 52.8606C52.4178 53.0063 52.8235 53.1697 53.1779 53.3509C53.5363 53.5281 53.8376 53.7309 54.0817 53.9594C54.3298 54.1838 54.5169 54.4398 54.6429 54.7273C54.7729 55.0148 54.8379 55.3397 54.8379 55.702C54.8379 56.088 54.763 56.4306 54.6134 56.7299C54.4637 57.0292 54.2491 57.2832 53.9695 57.492C53.6899 57.6968 53.3551 57.8523 52.9652 57.9586C52.5754 58.065 52.1402 58.1181 51.6597 58.1181C51.2186 58.1181 50.7835 58.063 50.3542 57.9527C49.9289 57.8385 49.5429 57.6652 49.1963 57.4329C48.8498 57.1966 48.5721 56.8953 48.3634 56.5291C48.1586 56.1589 48.0562 55.7198 48.0562 55.2117H50.1356C50.1356 55.4638 50.1691 55.6764 50.236 55.8497C50.303 56.023 50.4014 56.1628 50.5314 56.2691C50.6614 56.3715 50.8209 56.4464 51.0099 56.4936C51.1989 56.5369 51.4155 56.5586 51.6597 56.5586C51.9236 56.5586 52.1362 56.5212 52.2977 56.4464C52.4592 56.3676 52.5773 56.2652 52.6521 56.1392C52.727 56.0092 52.7644 55.8674 52.7644 55.7138Z" fill="white"/>
</g>
<defs>
<filter id="filter0_d_1843_26056" x="0" y="0" width="157" height="173" filterUnits="userSpaceOnUse" color-interpolation-filters="sRGB">
<feFlood flood-opacity="0" result="BackgroundImageFix"/>
<feColorMatrix in="SourceAlpha" type="matrix" values="0 0 0 0 0 0 0 0 0 0 0 0 0 0 0 0 0 0 127 0" result="hardAlpha"/>
<feOffset dx="1" dy="2"/>
<feGaussianBlur stdDeviation="5"/>
<feComposite in2="hardAlpha" operator="out"/>
<feColorMatrix type="matrix" values="0 0 0 0 0.47451 0 0 0 0 0.47451 0 0 0 0 0.47451 0 0 0 0.26 0"/>
<feBlend mode="normal" in2="BackgroundImageFix" result="effect1_dropShadow_1843_26056"/>
<feBlend mode="normal" in="SourceGraphic" in2="effect1_dropShadow_1843_26056" result="shape"/>
</filter>
</defs>
</svg>
