<svg width="24" height="25" viewBox="0 0 24 25" fill="none" xmlns="http://www.w3.org/2000/svg">
<path d="M15 2.37109C13.0614 2.37357 11.2028 3.14479 9.83202 4.51562C8.4612 5.88644 7.68998 7.74496 7.6875 9.68359C7.68559 10.4906 7.81868 11.2923 8.08125 12.0555L2.60625 17.5398C2.55202 17.5899 2.50897 17.6509 2.47989 17.7187C2.45081 17.7866 2.43637 17.8598 2.4375 17.9336V21.6836C2.4375 21.8328 2.49676 21.9759 2.60225 22.0813C2.70774 22.1868 2.85082 22.2461 3 22.2461H6.75C6.89919 22.2461 7.04226 22.1868 7.14775 22.0813C7.25324 21.9759 7.3125 21.8328 7.3125 21.6836V19.9961H9C9.14919 19.9961 9.29226 19.9368 9.39775 19.8313C9.50324 19.7259 9.5625 19.5828 9.5625 19.4336V17.7461H11.25C11.3238 17.7472 11.397 17.7328 11.4649 17.7037C11.5327 17.6746 11.5937 17.6316 11.6438 17.5773L12.6281 16.6023C13.3913 16.8649 14.193 16.998 15 16.9961C16.9394 16.9961 18.7994 16.2257 20.1707 14.8543C21.5421 13.483 22.3125 11.623 22.3125 9.68359C22.3125 7.7442 21.5421 5.88424 20.1707 4.51288C18.7994 3.14152 16.9394 2.37109 15 2.37109ZM15 15.8711C14.2163 15.8718 13.4398 15.7222 12.7125 15.4305C12.6074 15.3871 12.4918 15.3755 12.3802 15.3972C12.2685 15.4189 12.1657 15.4728 12.0844 15.5523L11.0156 16.6211H9C8.85082 16.6211 8.70774 16.6804 8.60225 16.7858C8.49676 16.8913 8.4375 17.0344 8.4375 17.1836V18.8711H6.75C6.60082 18.8711 6.45774 18.9304 6.35225 19.0358C6.24676 19.1413 6.1875 19.2844 6.1875 19.4336V21.1211H3.5625V18.168L9.13125 12.5992C9.21079 12.5179 9.26473 12.4151 9.2864 12.3034C9.30806 12.1918 9.29649 12.0762 9.25313 11.9711C8.96141 11.2438 8.81184 10.4672 8.8125 9.68359C8.8125 8.45982 9.17539 7.26353 9.85528 6.246C10.5352 5.22847 11.5015 4.43541 12.6321 3.96709C13.7628 3.49877 15.0069 3.37624 16.2071 3.61498C17.4074 3.85373 18.5099 4.44303 19.3752 5.30837C20.2406 6.17371 20.8299 7.27622 21.0686 8.47647C21.3074 9.67673 21.1848 10.9208 20.7165 12.0514C20.2482 13.1821 19.4551 14.1484 18.4376 14.8283C17.4201 15.5082 16.2238 15.8711 15 15.8711ZM17.8125 7.80859C17.8125 7.99401 17.7575 8.17527 17.6545 8.32944C17.5515 8.48361 17.4051 8.60377 17.2338 8.67473C17.0625 8.74569 16.874 8.76425 16.6921 8.72808C16.5102 8.69191 16.3432 8.60262 16.2121 8.47151C16.081 8.34039 15.9917 8.17335 15.9555 7.99149C15.9193 7.80963 15.9379 7.62113 16.0089 7.44983C16.0798 7.27852 16.2 7.1321 16.3542 7.02909C16.5083 6.92608 16.6896 6.87109 16.875 6.87109C17.1236 6.87109 17.3621 6.96987 17.5379 7.14568C17.7137 7.3215 17.8125 7.55995 17.8125 7.80859Z" fill="#1F3F7F"/>
</svg>
