<svg width="24" height="24" viewBox="0 0 24 24" fill="none" xmlns="http://www.w3.org/2000/svg">
<path d="M14.4349 10.8744C14.4349 11.0236 14.3757 11.1666 14.2702 11.2721C14.1647 11.3776 14.0216 11.4369 13.8724 11.4369H11.4349V13.8744C11.4349 14.0236 11.3757 14.1666 11.2702 14.2721C11.1647 14.3776 11.0216 14.4369 10.8724 14.4369C10.7232 14.4369 10.5802 14.3776 10.4747 14.2721C10.3692 14.1666 10.3099 14.0236 10.3099 13.8744V11.4369H7.87243C7.72325 11.4369 7.58018 11.3776 7.47469 11.2721C7.3692 11.1666 7.30993 11.0236 7.30993 10.8744C7.30993 10.7252 7.3692 10.5821 7.47469 10.4766C7.58018 10.3712 7.72325 10.3119 7.87243 10.3119H10.3099V7.87439C10.3099 7.7252 10.3692 7.58213 10.4747 7.47664C10.5802 7.37115 10.7232 7.31189 10.8724 7.31189C11.0216 7.31189 11.1647 7.37115 11.2702 7.47664C11.3757 7.58213 11.4349 7.7252 11.4349 7.87439V10.3119H13.8724C14.0216 10.3119 14.1647 10.3712 14.2702 10.4766C14.3757 10.5821 14.4349 10.7252 14.4349 10.8744ZM21.3912 21.3931C21.3404 21.4465 21.2793 21.4889 21.2116 21.5179C21.1439 21.5469 21.0711 21.5619 20.9974 21.5619C20.9238 21.5619 20.8509 21.5469 20.7832 21.5179C20.7156 21.4889 20.6545 21.4465 20.6037 21.3931L16.4224 17.2213C14.7712 18.6658 12.6231 19.412 10.4319 19.3023C8.24076 19.1926 6.17797 18.2357 4.67921 16.6335C3.18045 15.0313 2.36304 12.9093 2.39961 10.7157C2.43619 8.52205 3.32388 6.42851 4.87522 4.87717C6.42656 3.32583 8.5201 2.43814 10.7137 2.40157C12.9073 2.36499 15.0293 3.1824 16.6315 4.68116C18.2337 6.17993 19.1907 8.24271 19.3004 10.4339C19.41 12.6251 18.6638 14.7731 17.2193 16.4244L21.3912 20.6056C21.4445 20.6564 21.487 20.7175 21.516 20.7852C21.545 20.8529 21.5599 20.9257 21.5599 20.9994C21.5599 21.073 21.545 21.1459 21.516 21.2136C21.487 21.2813 21.4445 21.3424 21.3912 21.3931ZM18.1849 10.8744C18.1849 9.42811 17.7561 8.01431 16.9526 6.81178C16.149 5.60924 15.007 4.67198 13.6708 4.11852C12.3346 3.56505 10.8643 3.42024 9.44584 3.70239C8.02735 3.98455 6.72439 4.681 5.70172 5.70367C4.67904 6.72634 3.9826 8.0293 3.70044 9.44779C3.41829 10.8663 3.5631 12.3366 4.11656 13.6728C4.67003 15.0089 5.60729 16.151 6.80983 16.9545C8.01236 17.758 9.42616 18.1869 10.8724 18.1869C12.8111 18.1844 14.6696 17.4132 16.0404 16.0424C17.4112 14.6715 18.1825 12.813 18.1849 10.8744Z" fill="#ECECEC"/>
</svg>
