<svg width="32" height="32" viewBox="0 0 32 32" fill="none" xmlns="http://www.w3.org/2000/svg">
<circle cx="16" cy="16" r="16" fill="#1F3F7F"/>
<path fill-rule="evenodd" clip-rule="evenodd" d="M17.2801 8.32007C14.9339 8.32007 13.1547 8.87175 11.9598 10.0001C10.7662 11.1284 10.2401 12.7732 10.2401 14.7201V15.2999C9.87402 15.6481 9.6001 16.0961 9.6001 16.6401C9.6001 17.4465 10.1697 18.0186 10.8801 18.3002C11.1169 19.0471 11.3748 19.8317 11.6609 20.4999C11.9713 21.2308 12.2523 21.8106 12.6401 22.2215C13.0706 22.6814 13.591 23.0479 14.169 23.2985C14.7469 23.5491 15.3702 23.6785 16.0001 23.6785C16.63 23.6785 17.2533 23.5491 17.8312 23.2985C18.4092 23.0479 18.9295 22.6814 19.3601 22.2215C19.7479 21.8106 20.0084 21.2308 20.3201 20.4999C20.6055 19.8317 20.8833 19.0471 21.1201 18.3009C21.8305 18.0193 22.4001 17.4471 22.4001 16.6407C22.4001 16.0993 22.1249 15.6506 21.7601 15.3005V14.7201C21.7601 12.9127 21.3486 11.6263 20.6209 10.7802C20.0027 10.0634 19.1777 9.76903 18.3604 9.67943L17.8599 8.68103L17.6807 8.32007H17.2801ZM16.8999 9.64039L17.3403 10.5204C17.5534 10.9466 17.6366 11.25 17.6398 11.3799C17.6405 11.4048 17.6413 11.423 17.6418 11.4363C17.643 11.4642 17.6432 11.4707 17.6405 11.4724C17.6397 11.4729 17.6386 11.473 17.6372 11.4732C17.6338 11.4735 17.6285 11.474 17.6206 11.481C17.5649 11.5277 17.0254 11.6666 16.3598 11.7005C16.2559 11.7059 16.1491 11.7101 16.0401 11.7143C15.4509 11.7372 14.7967 11.7626 14.1799 12.0013C13.4503 12.2842 12.8084 13.0426 12.8001 14.0813H14.0801C14.0852 13.4503 14.2318 13.3594 14.6401 13.2013C15.0484 13.0433 15.7524 12.9965 16.4404 12.9613C16.5253 12.957 16.6105 12.9538 16.6958 12.9506C17.3014 12.9281 17.912 12.9053 18.4404 12.4621C18.7412 12.2081 18.9332 11.7709 18.9204 11.3421C18.9182 11.276 18.9066 11.2118 18.8948 11.1463C18.8897 11.1181 18.8845 11.0895 18.8801 11.0605C19.1734 11.1862 19.4336 11.3781 19.6404 11.6212C20.1044 12.1601 20.4801 13.1085 20.4801 14.7201V15.9002L20.8001 16.0794C20.9947 16.1927 21.1201 16.3969 21.1201 16.6401C21.1238 16.8007 21.0658 16.9567 20.9579 17.0758C20.85 17.1948 20.7005 17.268 20.5403 17.2801L20.0999 17.2993L19.9803 17.7197C19.7447 18.4865 19.4708 19.2409 19.1598 19.9802C18.8718 20.6561 18.5409 21.2321 18.4398 21.3396C17.0766 22.7796 14.9217 22.7796 13.5598 21.3396C13.4574 21.2321 13.1278 20.6561 12.8391 19.9796C12.5288 19.2401 12.2554 18.4857 12.0199 17.7191L11.8996 17.2986L11.4593 17.2794C11.2993 17.2672 11.1501 17.1941 11.0423 17.0751C10.9346 16.9562 10.8765 16.8005 10.8801 16.6401C10.8801 16.4007 11.0036 16.1933 11.2001 16.0801L11.5201 15.9009V14.7201C11.5201 12.994 11.9579 11.753 12.8404 10.9197C13.6596 10.1453 14.9972 9.70375 16.8999 9.63975V9.64039Z" fill="white"/>
</svg>
