<svg width="32" height="32" viewBox="0 0 32 32" fill="none" xmlns="http://www.w3.org/2000/svg">
<path fill-rule="evenodd" clip-rule="evenodd" d="M18 4C14.334 4 11.554 4.862 9.687 6.625C7.822 8.388 7 10.958 7 14V14.906C6.428 15.45 6 16.15 6 17C6 18.26 6.89 19.154 8 19.594C8.37 20.761 8.773 21.987 9.22 23.031C9.705 24.173 10.144 25.079 10.75 25.721C11.4227 26.4395 12.2358 27.0123 13.1388 27.4039C14.0419 27.7954 15.0157 27.9975 16 27.9975C16.9843 27.9975 17.9581 27.7954 18.8612 27.4039C19.7642 27.0123 20.5773 26.4395 21.25 25.721C21.856 25.079 22.263 24.173 22.75 23.031C23.196 21.987 23.63 20.761 24 19.595C25.11 19.155 26 18.261 26 17.001C26 16.155 25.57 15.454 25 14.907V14C25 11.176 24.357 9.166 23.22 7.844C22.254 6.724 20.965 6.264 19.688 6.124L18.906 4.564L18.626 4H18ZM17.406 6.063L18.094 7.438C18.427 8.104 18.557 8.578 18.562 8.781C18.5631 8.81985 18.5643 8.84826 18.5652 8.86905C18.567 8.91278 18.5674 8.92283 18.5632 8.92555C18.5619 8.92636 18.5602 8.92652 18.558 8.92672C18.5527 8.92722 18.5444 8.928 18.532 8.939C18.445 9.012 17.602 9.229 16.562 9.282C16.3997 9.29043 16.2329 9.29691 16.0626 9.30352C15.1419 9.33928 14.1198 9.37899 13.156 9.752C12.016 10.194 11.013 11.379 11 13.002H13C13.008 12.016 13.237 11.874 13.875 11.627C14.513 11.38 15.613 11.307 16.688 11.252C16.8206 11.2452 16.9537 11.2402 17.087 11.2353C18.0333 11.2 18.9873 11.1645 19.813 10.472C20.283 10.075 20.583 9.392 20.563 8.722C20.5595 8.61868 20.5414 8.51829 20.523 8.41606C20.515 8.37185 20.5069 8.32729 20.5 8.282C20.9583 8.47839 21.3649 8.77822 21.688 9.158C22.413 10 23 11.482 23 14V15.844L23.5 16.124C23.804 16.301 24 16.62 24 17C24.0058 17.251 23.9151 17.4947 23.7465 17.6808C23.5779 17.8668 23.3444 17.9811 23.094 18L22.406 18.03L22.219 18.687C21.8509 19.885 21.423 21.0638 20.937 22.219C20.487 23.275 19.97 24.175 19.812 24.343C17.682 26.593 14.315 26.593 12.187 24.343C12.027 24.175 11.512 23.275 11.061 22.218C10.5761 21.0626 10.149 19.8838 9.781 18.686L9.593 18.029L8.905 17.999C8.65498 17.9799 8.42181 17.8656 8.25346 17.6798C8.08512 17.494 7.99441 17.2507 8 17C8 16.626 8.193 16.302 8.5 16.125L9 15.845V14C9 11.303 9.684 9.364 11.063 8.062C12.343 6.852 14.433 6.162 17.406 6.062V6.063Z" fill="#333333"/>
</svg>
