<svg width="86" height="86" viewBox="0 0 86 86" fill="none" xmlns="http://www.w3.org/2000/svg">
<path d="M35.7657 21.9336H37.8657C38.0513 21.9336 38.2294 22.0038 38.3607 22.1289C38.4919 22.2539 38.5657 22.4234 38.5657 22.6003C38.5657 22.9539 38.7132 23.293 38.9757 23.5431C39.2383 23.7931 39.5944 23.9336 39.9657 23.9336H45.5657C45.937 23.9336 46.2931 23.7931 46.5556 23.5431C46.8182 23.293 46.9657 22.9539 46.9657 22.6003C46.9657 22.4234 47.0394 22.2539 47.1707 22.1289C47.302 22.0038 47.48 21.9336 47.6657 21.9336H49.7657" stroke="#ABA8A8" stroke-width="0.5" stroke-linecap="round" stroke-linejoin="round"/>
<rect x="31.7657" y="21.4805" width="22" height="44.3667" rx="3.39096" stroke="#ABA8A8" stroke-width="2"/>
<path d="M38.7657 21.9327H46.7657V22.9327C46.7657 23.485 46.318 23.9327 45.7657 23.9327H39.7657C39.2134 23.9327 38.7657 23.485 38.7657 22.9327V21.9327Z" fill="#ABA8A8"/>
<rect x="0.5" y="0.5" width="85" height="85" rx="42.5" stroke="#ABA8A8"/>
</svg>
