<svg width="86" height="86" viewBox="0 0 86 86" fill="none" xmlns="http://www.w3.org/2000/svg">
<rect x="0.5" y="0.5" width="85" height="85" rx="42.5" fill="#1F3F7F"/>
<path d="M36.0313 21.2773H38.1313C38.317 21.2773 38.495 21.3476 38.6263 21.4726C38.7576 21.5976 38.8313 21.7672 38.8313 21.944C38.8313 22.2976 38.9788 22.6368 39.2414 22.8868C39.5039 23.1369 39.86 23.2773 40.2313 23.2773H45.8313C46.2026 23.2773 46.5587 23.1369 46.8213 22.8868C47.0838 22.6368 47.2313 22.2976 47.2313 21.944C47.2313 21.7672 47.3051 21.5976 47.4363 21.4726C47.5676 21.3476 47.7457 21.2773 47.9313 21.2773H50.0313" stroke="white" stroke-width="0.5" stroke-linecap="round" stroke-linejoin="round"/>
<rect x="32.0313" y="20.8242" width="22" height="44.3667" rx="3.39096" stroke="white" stroke-width="2"/>
<path d="M39.0313 21.2765H47.0313V22.2765C47.0313 22.8288 46.5836 23.2765 46.0313 23.2765H40.0313C39.479 23.2765 39.0313 22.8288 39.0313 22.2765V21.2765Z" fill="white"/>
<rect x="0.5" y="0.5" width="85" height="85" rx="42.5" stroke="#1F3F7F"/>
</svg>
