<svg width="20" height="20" viewBox="0 0 20 20" fill="none" xmlns="http://www.w3.org/2000/svg">
<path d="M19.375 9.9951C19.376 8.43442 18.9874 6.89818 18.2443 5.52572C17.5013 4.15327 16.4274 2.98802 15.12 2.13567C13.8127 1.28333 12.3132 0.770857 10.7576 0.644738C9.20202 0.518619 7.63957 0.782845 6.21196 1.41345C4.78436 2.04405 3.53676 3.02108 2.58235 4.25592C1.62794 5.49076 0.9969 6.94432 0.746477 8.48478C0.496053 10.0252 0.634167 11.6038 1.14829 13.0774C1.66241 14.551 2.53628 15.8729 3.69062 16.9232C3.71434 16.9528 3.74286 16.9781 3.775 16.9982C5.49034 18.5263 7.70745 19.3706 10.0047 19.3706C12.3019 19.3706 14.519 18.5263 16.2344 16.9982L16.3094 16.9232C17.2761 16.0467 18.0484 14.9773 18.5764 13.784C19.1044 12.5907 19.3765 11.3 19.375 9.9951ZM1.375 9.9951C1.37489 8.5775 1.72419 7.18173 2.392 5.93128C3.05982 4.68084 4.02555 3.61428 5.20375 2.82597C6.38195 2.03766 7.73629 1.55191 9.14693 1.4117C10.5576 1.27149 11.981 1.48115 13.2914 2.02211C14.6017 2.56308 15.7585 3.41868 16.6594 4.5132C17.5602 5.60773 18.1775 6.90743 18.4564 8.29732C18.7353 9.6872 18.6674 11.1244 18.2585 12.4818C17.8497 13.8392 17.1126 15.0748 16.1125 16.0795C15.1815 14.5198 13.6887 13.3759 11.9406 12.8826C12.7524 12.4498 13.3963 11.758 13.7698 10.9172C14.1433 10.0765 14.225 9.13498 14.0019 8.24244C13.7789 7.3499 13.2638 6.55755 12.5387 5.99135C11.8136 5.42515 10.92 5.1176 10 5.1176C9.08001 5.1176 8.18642 5.42515 7.4613 5.99135C6.73618 6.55755 6.22115 7.3499 5.99809 8.24244C5.77502 9.13498 5.85673 10.0765 6.23023 10.9172C6.60372 11.758 7.24755 12.4498 8.05937 12.8826C6.31129 13.3759 4.81846 14.5198 3.8875 16.0795C2.27942 14.4627 1.3762 12.2754 1.375 9.9951ZM10 12.6201C9.33249 12.6201 8.67997 12.4222 8.12495 12.0513C7.56993 11.6805 7.13735 11.1534 6.88191 10.5367C6.62646 9.91995 6.55962 9.24135 6.68985 8.58667C6.82007 7.93198 7.14151 7.33062 7.61351 6.85861C8.08552 6.38661 8.68688 6.06517 9.34157 5.93495C9.99625 5.80472 10.6749 5.87156 11.2916 6.127C11.9083 6.38245 12.4354 6.81503 12.8062 7.37005C13.1771 7.92506 13.375 8.57759 13.375 9.2451C13.375 10.1402 13.0194 10.9986 12.3865 11.6316C11.7535 12.2645 10.8951 12.6201 10 12.6201ZM4.45937 16.5951C5.01619 15.6167 5.82216 14.8031 6.79535 14.2372C7.76854 13.6713 8.87423 13.3732 10 13.3732C11.1258 13.3732 12.2315 13.6713 13.2046 14.2372C14.1778 14.8031 14.9838 15.6167 15.5406 16.5951C13.9902 17.902 12.0277 18.6187 10 18.6187C7.97227 18.6187 6.0098 17.902 4.45937 16.5951Z" fill="white"/>
</svg>
