<svg width="60" height="53" viewBox="0 0 60 53" fill="none" xmlns="http://www.w3.org/2000/svg">
<path d="M49.3867 45.7449H30.4142L35.1573 39.6564L38.5379 43.7269L43.281 37.6212L49.3867 45.7449Z" fill="#DE0000"/>
<path d="M51.9739 37.121V49.1944H27.827V25.0475H36.4854C36.5716 23.823 36.8648 22.6674 37.3133 21.598H27.827C25.9297 21.598 24.3774 23.1503 24.3774 25.0475V49.1944C24.3774 51.0917 25.9297 52.644 27.827 52.644H51.9739C53.8711 52.644 55.4234 51.0917 55.4234 49.1944V40.5705L51.9739 37.121Z" fill="#1F3F7F"/>
<path fill-rule="evenodd" clip-rule="evenodd" d="M54.2161 30.0321C54.975 28.8248 55.4234 27.4277 55.4234 25.9099C55.4234 21.6152 51.9566 18.1484 47.6619 18.1484C43.3672 18.1484 39.9004 21.6152 39.9004 25.9099C39.9004 30.2046 43.3672 33.6714 47.6447 33.6714C49.1625 33.6714 50.5768 33.223 51.7669 32.4641L57.1482 37.8454L59.5974 35.3962L54.2161 30.0321ZM44.6129 28.9589C45.4216 29.7676 46.5183 30.2219 47.6619 30.2219C48.8055 30.2219 49.9023 29.7676 50.7109 28.9589C51.5196 28.1503 51.9739 27.0535 51.9739 25.9099C51.9739 24.7663 51.5196 23.6696 50.7109 22.8609C49.9023 22.0523 48.8055 21.598 47.6619 21.598C46.5183 21.598 45.4216 22.0523 44.6129 22.8609C43.8043 23.6696 43.35 24.7663 43.35 25.9099C43.35 27.0535 43.8043 28.1503 44.6129 28.9589Z" fill="#333333"/>
<path d="M44.7311 14.6966C43.1788 6.76268 36.1073 0.898438 27.8283 0.898438C19.5494 0.898438 12.4778 6.76268 10.9255 14.8691C4.88883 16.0765 0.231934 21.2508 0.231934 27.6325C0.231934 34.704 6.09617 40.5683 13.1678 40.5683H19.2045V37.1187H13.1678C7.99342 37.1187 3.68149 32.8068 3.68149 27.6325C3.68149 22.6306 7.47599 18.4912 12.4778 18.1462H14.0301V16.5939C14.8925 9.6948 20.7568 4.34799 27.8283 4.34799C34.21 4.34799 39.5568 8.83241 41.1091 14.6966H44.7311Z" fill="#1F3F7F"/>
</svg>
