<svg width="108" height="109" viewBox="0 0 108 109" fill="none" xmlns="http://www.w3.org/2000/svg">
<path d="M75.3206 18.4375C69.6526 12.9353 63.5426 8.52504 58.5246 7.92054C58.2416 7.87839 57.9559 7.85667 57.6698 7.85554H24.6661C24.4028 7.85337 24.1417 7.90403 23.8983 8.00451C23.6549 8.10499 23.4342 8.25325 23.2491 8.44053C22.8762 8.81813 22.6662 9.32685 22.6641 9.85753V93.545C22.6641 93.8078 22.7159 94.068 22.8165 94.3107C22.9172 94.5534 23.0647 94.7739 23.2506 94.9595C23.4366 95.1452 23.6573 95.2923 23.9002 95.3926C24.1431 95.4928 24.4033 95.5442 24.6661 95.5438H84.3491C84.6112 95.5444 84.8708 95.4929 85.1129 95.3925C85.355 95.2921 85.5748 95.1447 85.7596 94.9588C85.9466 94.7738 86.0952 94.5537 86.1967 94.3111C86.2982 94.0684 86.3507 93.8081 86.3511 93.545V37.8563C86.2341 31.3888 81.1706 24.3428 75.3206 18.4375ZM72.5028 21.2715C75.1191 23.826 77.4753 26.7185 79.2303 29.507C77.7274 28.9296 76.1851 28.4604 74.6153 28.103C71.8048 27.4957 68.9514 27.1078 66.0808 26.9428C66.0938 26.5138 66.0971 26.0263 66.0971 25.4965C66.0971 22.669 65.9183 18.6455 64.9401 15.0965L64.9076 14.999C67.6498 16.8211 70.1952 18.9232 72.5028 21.2715V21.2715ZM82.3406 91.5365H26.6616V11.8433H57.6731V11.853C59.0251 11.7718 60.1918 13.1075 61.0856 16.1625C61.8981 19.0713 62.1028 22.864 62.0996 25.49C62.1061 27.4205 62.0118 28.714 62.0118 28.714L61.8493 30.833L63.9813 30.8558C63.9911 30.8558 68.9083 30.9143 73.7313 32.0095C78.3658 33.0105 81.9863 35.006 82.3276 37.2648C82.3438 37.4663 82.3471 37.6678 82.3438 37.8563V91.5268L82.3406 91.5365Z" fill="#393939"/>
<path d="M45.4922 36H0.492188V19H45.4922V36Z" fill="#DD2025"/>
<path d="M15.3618 23.0332H12.4922V33.5719H14.758V30.0195L15.2586 30.048C15.7429 30.0397 16.2226 29.9529 16.6791 29.7911C17.0793 29.6534 17.4475 29.4361 17.7615 29.1522C18.0786 28.8811 18.3281 28.5398 18.4904 28.1555C18.7106 27.5155 18.7893 26.8353 18.721 26.1619C18.7073 25.6809 18.6229 25.2045 18.4707 24.748C18.3321 24.4184 18.1264 24.1214 17.8667 23.8757C17.607 23.63 17.299 23.441 16.9623 23.3209C16.6699 23.2144 16.3676 23.1372 16.06 23.0903C15.8282 23.0546 15.5941 23.0355 15.3596 23.0332M14.9446 28.0698H14.7492V24.8204H15.1752C15.3622 24.8069 15.5498 24.8356 15.7243 24.9044C15.8987 24.9732 16.0554 25.0803 16.1829 25.2178C16.4471 25.5713 16.5882 26.0016 16.5847 26.4429C16.5847 26.983 16.5847 27.4726 16.0973 27.8173C15.7461 28.0105 15.3465 28.0974 14.9468 28.0676M23.0045 23.0047C22.7608 23.0047 22.5237 23.0223 22.3568 23.0289L21.8408 23.042H20.1283V33.5807H22.1438C22.9141 33.6018 23.681 33.4712 24.4009 33.1964C24.9803 32.9666 25.4934 32.5961 25.8938 32.1184C26.2832 31.6364 26.5627 31.0752 26.7128 30.474C26.8853 29.7931 26.9694 29.0928 26.9631 28.3904C27.0056 27.5608 26.9414 26.7292 26.772 25.916C26.6113 25.3174 26.3102 24.7657 25.8938 24.3067C25.5671 23.936 25.1672 23.637 24.7192 23.4284C24.3345 23.2504 23.9298 23.1192 23.5138 23.0376C23.3484 23.0103 23.1809 22.9978 23.0133 23.0003M22.6137 31.6442H22.3941V24.917H22.4227C22.8753 24.8649 23.3333 24.9466 23.74 25.152C24.0378 25.3898 24.2805 25.6894 24.4513 26.0302C24.6357 26.3888 24.7419 26.7824 24.7631 27.185C24.7829 27.6681 24.7631 28.0632 24.7631 28.3904C24.7721 28.7672 24.7478 29.1441 24.6907 29.5167C24.623 29.8992 24.4979 30.2693 24.3196 30.6145C24.1178 30.9354 23.8452 31.2058 23.5226 31.4049C23.2518 31.5801 22.931 31.6618 22.6093 31.6376M33.7561 23.042H28.4209V33.5807H30.6779V29.4003H33.5321V27.4419H30.6779V25.0005H33.7517V23.042" fill="white"/>
<g clip-path="url(#clip0_1178_4634)">
<path d="M68.9086 61.4113C67.8717 60.3066 65.7531 59.6679 62.7508 59.6679C61.1441 59.6679 59.2869 59.8275 57.2645 60.2038C56.0285 58.9847 54.9037 57.6579 53.9035 56.2389C53.1291 55.1627 52.451 54.023 51.8297 52.9008C53.0142 49.1985 53.5895 46.1786 53.5895 44.0032C53.5895 41.5652 52.7069 39.0244 50.177 39.0244C49.3961 39.0244 48.6217 39.4969 48.2061 40.1925C47.0664 42.2433 47.5794 46.7441 49.5449 51.1869C48.7952 53.4533 47.9686 55.6935 47.0664 57.9036C46.2123 59.9312 45.2753 61.9227 44.2577 63.8733C38.5669 66.1866 34.881 68.8805 34.5397 71.0002C34.3855 71.7975 34.648 72.5271 35.2058 73.1133C35.3994 73.273 36.1289 73.9052 37.3649 73.9052C41.1416 73.9052 45.1185 67.6675 47.1463 63.9018C48.6961 63.3778 50.2514 62.8988 51.8002 62.4208C53.4368 61.9689 55.0948 61.598 56.768 61.3096C60.7558 64.9616 64.27 65.5369 66.0364 65.5369C68.213 65.5369 68.9874 64.6368 69.2499 63.9018C69.66 62.9502 69.3527 61.9024 68.8856 61.361L68.9141 61.4179L68.9086 61.4113ZM66.8917 62.9491C66.7375 63.741 65.9577 64.2703 64.8694 64.2703C64.562 64.2703 64.2995 64.2135 63.9867 64.1675C62.0038 63.6885 60.1477 62.6811 58.2959 61.0908C59.7323 60.8496 61.1861 60.7278 62.6425 60.7266C63.7188 60.7266 64.6539 60.778 65.2795 60.9377C65.997 61.0919 67.1367 61.5753 66.8808 62.9546H66.9092L66.8917 62.9491ZM55.9203 60.4597C54.4791 60.7539 53.0467 61.0902 51.6252 61.4682C50.3886 61.804 49.1633 62.1801 47.9513 62.5958C48.5806 61.3495 49.1675 60.0822 49.7111 58.7961C50.3378 57.3097 50.8508 55.7774 51.3692 54.3522C51.8767 55.2469 52.4455 56.1471 53.0153 56.9499C53.9494 58.2197 54.9239 59.4283 55.9039 60.4816V60.4532L55.9203 60.4597ZM49.1347 40.7952C49.2259 40.6086 49.3665 40.4505 49.5412 40.338C49.7159 40.2256 49.918 40.1632 50.1256 40.1575C51.2139 40.1575 51.4184 41.4219 51.4184 42.4358C51.4184 44.1388 50.9 46.7255 50.0174 49.6764C48.4675 45.5639 48.3658 42.123 49.1402 40.7952H49.1347ZM43.4439 65.4385C40.8069 69.8758 38.2716 72.6277 36.7163 72.6277C36.4144 72.6277 36.1519 72.5194 35.9474 72.3652C35.6345 72.0458 35.4803 71.6761 35.5831 71.2539C35.896 69.6647 38.8469 67.4433 43.4505 65.4374L43.4439 65.4385Z" fill="#DD2025"/>
</g>
<path d="M81.2434 73H80.2434V74V87H72.7734H70.3592L72.0663 88.7071L85.7863 102.427L86.4934 103.134L87.2005 102.427L100.921 88.7071L102.628 87H100.213H92.7434V74V73H91.7434H81.2434Z" fill="#DD2025" stroke="white" stroke-width="2"/>
<defs>
<clipPath id="clip0_1178_4634">
<rect width="35" height="35" fill="white" transform="translate(34.4922 39)"/>
</clipPath>
</defs>
</svg>
