<svg width="11" height="11" viewBox="0 0 11 11" fill="none" xmlns="http://www.w3.org/2000/svg">
<g clip-path="url(#clip0_1586_32528)">
<path d="M3.17631 4.14844C3.09218 4.14844 3.00888 4.16501 2.93115 4.1972C2.85343 4.2294 2.78281 4.27658 2.72332 4.33607C2.66383 4.39556 2.61664 4.46618 2.58445 4.54391C2.55226 4.62163 2.53569 4.70493 2.53569 4.78906C2.53569 4.87319 2.55226 4.95649 2.58445 5.03422C2.61664 5.11194 2.66383 5.18257 2.72332 5.24205C2.78281 5.30154 2.85343 5.34873 2.93115 5.38092C3.00888 5.41312 3.09218 5.42969 3.17631 5.42969C3.34621 5.42969 3.50916 5.36219 3.6293 5.24205C3.74944 5.12191 3.81694 4.95897 3.81694 4.78906C3.81694 4.61916 3.74944 4.45621 3.6293 4.33607C3.50916 4.21593 3.34621 4.14844 3.17631 4.14844ZM3.17631 5.0026C3.11968 5.0026 3.06536 4.98011 3.02531 4.94006C2.98527 4.90001 2.96277 4.8457 2.96277 4.78906C2.96277 4.73243 2.98527 4.67811 3.02531 4.63807C3.06536 4.59802 3.11968 4.57552 3.17631 4.57552C3.23294 4.57552 3.28726 4.59802 3.32731 4.63807C3.36735 4.67811 3.38985 4.73243 3.38985 4.78906C3.38985 4.8457 3.36735 4.90001 3.32731 4.94006C3.28726 4.98011 3.23294 5.0026 3.17631 5.0026ZM8.51485 2.65365H7.87423V1.15885C7.87423 1.10222 7.85173 1.0479 7.81168 1.00786C7.77164 0.967811 7.71732 0.945313 7.66069 0.945312H2.96277C2.90613 0.945312 2.85182 0.967811 2.81177 1.00786C2.77172 1.0479 2.74923 1.10222 2.74923 1.15885V2.65365H2.1086C1.8255 2.65387 1.55405 2.76644 1.35387 2.96662C1.15368 3.16681 1.04112 3.43825 1.04089 3.72135V6.4974C1.04123 6.8371 1.17633 7.16279 1.41654 7.403C1.65675 7.64321 1.98244 7.77831 2.32214 7.77865H2.74923V9.27344C2.74923 9.33007 2.77172 9.38439 2.81177 9.42443C2.85182 9.46448 2.90613 9.48698 2.96277 9.48698H7.66069C7.71732 9.48698 7.77164 9.46448 7.81168 9.42443C7.85173 9.38439 7.87423 9.33007 7.87423 9.27344V7.77865H8.30131C8.64101 7.77831 8.96671 7.64321 9.20692 7.403C9.44712 7.16279 9.58222 6.8371 9.58256 6.4974V3.72135C9.58233 3.43825 9.46977 3.16681 9.26959 2.96662C9.0694 2.76644 8.79796 2.65387 8.51485 2.65365ZM3.17631 1.3724H7.44714V2.65365H3.17631V1.3724ZM7.44714 9.0599H3.17631V6.4974H7.44714V9.0599ZM9.15548 6.4974C9.15514 6.72383 9.06504 6.94089 8.90492 7.10101C8.74481 7.26112 8.52774 7.35122 8.30131 7.35156H7.87423V6.28385C7.87423 6.22722 7.85173 6.1729 7.81168 6.13286C7.77164 6.09281 7.71732 6.07031 7.66069 6.07031H2.96277C2.90613 6.07031 2.85182 6.09281 2.81177 6.13286C2.77172 6.1729 2.74923 6.22722 2.74923 6.28385V7.35156H2.32214C2.09571 7.35122 1.87864 7.26112 1.71853 7.10101C1.55842 6.94089 1.46832 6.72383 1.46798 6.4974V3.72135C1.46798 3.55145 1.53547 3.3885 1.65561 3.26836C1.77575 3.14822 1.9387 3.08073 2.1086 3.08073H8.51485C8.68476 3.08073 8.8477 3.14822 8.96784 3.26836C9.08798 3.3885 9.15548 3.55145 9.15548 3.72135V6.4974Z" fill="#1F3F7F"/>
</g>
<defs>
<clipPath id="clip0_1586_32528">
<rect width="10.25" height="10.25" fill="white" transform="translate(0.186768 0.09375)"/>
</clipPath>
</defs>
</svg>
