<svg width="12" height="11" viewBox="0 0 12 11" fill="none" xmlns="http://www.w3.org/2000/svg">
<g clip-path="url(#clip0_1586_32511)">
<path d="M8.62495 9.48952C8.26894 9.48952 7.96634 9.36492 7.71713 9.11571C7.46792 8.8665 7.34332 8.5639 7.34332 8.20789C7.34332 8.15805 7.34688 8.10635 7.354 8.05281C7.36112 7.99955 7.3718 7.95156 7.38604 7.90884L4.37421 6.15728C4.25317 6.26408 4.11788 6.34767 3.96836 6.40805C3.81884 6.46871 3.66219 6.49905 3.49843 6.49905C3.14242 6.49905 2.83981 6.37444 2.59061 6.12524C2.3414 5.87603 2.2168 5.57342 2.2168 5.21742C2.2168 4.86141 2.3414 4.5588 2.59061 4.30959C2.83981 4.06039 3.14242 3.93579 3.49843 3.93579C3.66219 3.93579 3.81884 3.96597 3.96836 4.02635C4.11788 4.08702 4.25317 4.17075 4.37421 4.27755L7.38604 2.52599C7.3718 2.48327 7.36112 2.43528 7.354 2.38202C7.34688 2.32848 7.34332 2.27678 7.34332 2.22694C7.34332 1.87093 7.46792 1.56833 7.71713 1.31912C7.96634 1.06992 8.26894 0.945312 8.62495 0.945312C8.98096 0.945312 9.28357 1.06992 9.53277 1.31912C9.78198 1.56833 9.90658 1.87093 9.90658 2.22694C9.90658 2.58295 9.78198 2.88556 9.53277 3.13477C9.28357 3.38397 8.98096 3.50857 8.62495 3.50857C8.46119 3.50857 8.30454 3.47824 8.15502 3.41758C8.0055 3.3572 7.87021 3.27361 7.74917 3.16681L4.73734 4.91837C4.75158 4.96109 4.76226 5.00908 4.76938 5.06234C4.7765 5.11588 4.78006 5.16757 4.78006 5.21742C4.78006 5.26726 4.7765 5.31881 4.76938 5.37207C4.76226 5.42561 4.75158 5.47374 4.73734 5.51646L7.74917 7.26803C7.87021 7.16122 8.0055 7.07749 8.15502 7.01683C8.30454 6.95645 8.46119 6.92626 8.62495 6.92626C8.98096 6.92626 9.28357 7.05086 9.53277 7.30007C9.78198 7.54927 9.90658 7.85188 9.90658 8.20789C9.90658 8.5639 9.78198 8.8665 9.53277 9.11571C9.28357 9.36492 8.98096 9.48952 8.62495 9.48952ZM8.62495 2.65415C8.746 2.65415 8.84739 2.61328 8.92913 2.53154C9.01115 2.44952 9.05216 2.34799 9.05216 2.22694C9.05216 2.1059 9.01115 2.00437 8.92913 1.92234C8.84739 1.8406 8.746 1.79973 8.62495 1.79973C8.50391 1.79973 8.40252 1.8406 8.32078 1.92234C8.23875 2.00437 8.19774 2.1059 8.19774 2.22694C8.19774 2.34799 8.23875 2.44952 8.32078 2.53154C8.40252 2.61328 8.50391 2.65415 8.62495 2.65415ZM3.49843 5.64463C3.61947 5.64463 3.721 5.60361 3.80303 5.52159C3.88477 5.43985 3.92564 5.33846 3.92564 5.21742C3.92564 5.09637 3.88477 4.99484 3.80303 4.91281C3.721 4.83108 3.61947 4.79021 3.49843 4.79021C3.37739 4.79021 3.27585 4.83108 3.19383 4.91281C3.11209 4.99484 3.07122 5.09637 3.07122 5.21742C3.07122 5.33846 3.11209 5.43985 3.19383 5.52159C3.27585 5.60361 3.37739 5.64463 3.49843 5.64463ZM8.62495 8.6351C8.746 8.6351 8.84739 8.59409 8.92913 8.51206C9.01115 8.43032 9.05216 8.32893 9.05216 8.20789C9.05216 8.08685 9.01115 7.98545 8.92913 7.90371C8.84739 7.82169 8.746 7.78068 8.62495 7.78068C8.50391 7.78068 8.40252 7.82169 8.32078 7.90371C8.23875 7.98545 8.19774 8.08685 8.19774 8.20789C8.19774 8.32893 8.23875 8.43032 8.32078 8.51206C8.40252 8.59409 8.50391 8.6351 8.62495 8.6351Z" fill="#1F3F7F"/>
</g>
<defs>
<clipPath id="clip0_1586_32511">
<rect width="10.253" height="10.253" fill="white" transform="translate(0.930664 0.09375)"/>
</clipPath>
</defs>
</svg>
