<svg width="20" height="21" viewBox="0 0 20 21" fill="none" xmlns="http://www.w3.org/2000/svg">
<g clip-path="url(#clip0_1321_40253)">
<path fill-rule="evenodd" clip-rule="evenodd" d="M0.207031 10.7404C0.207031 8.14339 1.23871 5.6527 3.0751 3.81631C4.91149 1.97992 7.40218 0.948242 9.99923 0.948242C12.5963 0.948242 15.087 1.97992 16.9234 3.81631C18.7598 5.6527 19.7914 8.14339 19.7914 10.7404C19.7914 13.3375 18.7598 15.8282 16.9234 17.6646C15.087 19.501 12.5963 20.5326 9.99923 20.5326C7.40218 20.5326 4.91149 19.501 3.0751 17.6646C1.23871 15.8282 0.207031 13.3375 0.207031 10.7404ZM9.44042 14.9315L15.0781 7.88373L14.0597 7.06902L9.25241 13.0762L5.84734 10.2391L5.01174 11.2418L9.44042 14.9328V14.9315Z" fill="#008000"/>
<path d="M9.44042 14.9315L15.0781 7.88373L14.0597 7.06902L9.25241 13.0762L5.84734 10.2391L5.01174 11.2418L9.44042 14.9328V14.9315Z" fill="white"/>
</g>
<defs>
<clipPath id="clip0_1321_40253">
<rect width="19.5844" height="19.5844" fill="white" transform="translate(0.207031 0.948242)"/>
</clipPath>
</defs>
</svg>
