<svg width="27" height="16" viewBox="0 0 27 16" fill="none" xmlns="http://www.w3.org/2000/svg">
<path d="M2.32471 13.0469C1.97054 13.0469 1.67387 12.9509 1.43471 12.7589C1.19471 12.5675 1.07471 12.3302 1.07471 12.0469V4.04688C1.07471 3.76354 1.19471 3.52588 1.43471 3.33388C1.67387 3.14254 1.97054 3.04688 2.32471 3.04688H4.82471C5.17887 3.04688 5.47596 3.14254 5.71596 3.33388C5.95512 3.52588 6.07471 3.76354 6.07471 4.04688V12.0469C6.07471 12.3302 5.95512 12.5675 5.71596 12.7589C5.47596 12.9509 5.17887 13.0469 4.82471 13.0469H2.32471ZM8.57471 15.0469C8.22054 15.0469 7.92346 14.9509 7.68346 14.7589C7.44429 14.5675 7.32471 14.3302 7.32471 14.0469V2.04688C7.32471 1.76354 7.44429 1.52588 7.68346 1.33388C7.92346 1.14254 8.22054 1.04688 8.57471 1.04688H18.5747C18.9289 1.04688 19.2255 1.14254 19.4647 1.33388C19.7047 1.52588 19.8247 1.76354 19.8247 2.04688V14.0469C19.8247 14.3302 19.7047 14.5675 19.4647 14.7589C19.2255 14.9509 18.9289 15.0469 18.5747 15.0469H8.57471ZM22.3247 13.0469C21.9705 13.0469 21.6739 12.9509 21.4347 12.7589C21.1947 12.5675 21.0747 12.3302 21.0747 12.0469V4.04688C21.0747 3.76354 21.1947 3.52588 21.4347 3.33388C21.6739 3.14254 21.9705 3.04688 22.3247 3.04688H24.8247C25.1789 3.04688 25.4755 3.14254 25.7147 3.33388C25.9547 3.52588 26.0747 3.76354 26.0747 4.04688V12.0469C26.0747 12.3302 25.9547 12.5675 25.7147 12.7589C25.4755 12.9509 25.1789 13.0469 24.8247 13.0469H22.3247Z" stroke="black"/>
</svg>
