<svg width="26" height="15" viewBox="0 0 26 15" fill="none" xmlns="http://www.w3.org/2000/svg">
<path d="M1.32483 12.0469C0.970662 12.0469 0.673996 11.9509 0.434829 11.7589C0.194829 11.5675 0.0748291 11.3302 0.0748291 11.0469V3.04688C0.0748291 2.76354 0.194829 2.52588 0.434829 2.33388C0.673996 2.14254 0.970662 2.04688 1.32483 2.04688H3.82483C4.179 2.04688 4.47608 2.14254 4.71608 2.33388C4.95525 2.52588 5.07483 2.76354 5.07483 3.04688V11.0469C5.07483 11.3302 4.95525 11.5675 4.71608 11.7589C4.47608 11.9509 4.179 12.0469 3.82483 12.0469H1.32483ZM7.57483 14.0469C7.22066 14.0469 6.92358 13.9509 6.68358 13.7589C6.44441 13.5675 6.32483 13.3302 6.32483 13.0469V1.04688C6.32483 0.763542 6.44441 0.525875 6.68358 0.333875C6.92358 0.142542 7.22066 0.046875 7.57483 0.046875H17.5748C17.929 0.046875 18.2257 0.142542 18.4648 0.333875C18.7048 0.525875 18.8248 0.763542 18.8248 1.04688V13.0469C18.8248 13.3302 18.7048 13.5675 18.4648 13.7589C18.2257 13.9509 17.929 14.0469 17.5748 14.0469H7.57483ZM21.3248 12.0469C20.9707 12.0469 20.674 11.9509 20.4348 11.7589C20.1948 11.5675 20.0748 11.3302 20.0748 11.0469V3.04688C20.0748 2.76354 20.1948 2.52588 20.4348 2.33388C20.674 2.14254 20.9707 2.04688 21.3248 2.04688H23.8248C24.179 2.04688 24.4757 2.14254 24.7148 2.33388C24.9548 2.52588 25.0748 2.76354 25.0748 3.04688V11.0469C25.0748 11.3302 24.9548 11.5675 24.7148 11.7589C24.4757 11.9509 24.179 12.0469 23.8248 12.0469H21.3248Z" fill="#1F3F7F"/>
</svg>
