<svg width="24" height="24" viewBox="0 0 24 24" fill="none" xmlns="http://www.w3.org/2000/svg">
<path d="M2.18761 12.1752C2.11559 12.1754 2.04431 12.1897 1.97783 12.2174C1.91136 12.2451 1.85099 12.2856 1.80018 12.3367C1.74937 12.3877 1.7091 12.4482 1.68169 12.5148C1.65428 12.5814 1.64025 12.6528 1.64041 12.7248V21.804C1.64041 22.1076 1.88521 22.3536 2.18761 22.3536H17.988C18.1332 22.353 18.2723 22.2947 18.3747 22.1917C18.477 22.0887 18.5343 21.9492 18.534 21.804V12.7248C18.5343 12.5796 18.477 12.4401 18.3747 12.3371C18.2723 12.2341 18.1332 12.1758 17.988 12.1752H2.18761ZM17.988 10.5288C19.1952 10.5288 20.1744 11.5116 20.1744 12.7248V21.804C20.1744 23.016 19.1952 24 17.988 24H2.18761C1.89975 23.9995 1.61481 23.9423 1.34907 23.8317C1.08332 23.7211 0.841975 23.5592 0.638822 23.3552C0.435668 23.1513 0.274688 22.9093 0.165077 22.6432C0.0554665 22.377 -0.000625691 22.0919 5.26433e-06 21.804V12.7248C5.26433e-06 11.5116 0.979205 10.5288 2.18761 10.5288H17.988ZM24 15.228V19.4064C24 19.9284 23.5236 20.3184 23.0148 20.2128L21.2952 19.8576V18.1752L22.3596 18.396V16.2456L21.2952 16.4724V14.7888L23.0088 14.4228C23.1285 14.3974 23.2523 14.3991 23.3713 14.4277C23.4902 14.4563 23.6013 14.5112 23.6963 14.5883C23.7913 14.6653 23.8679 14.7627 23.9204 14.8731C23.973 14.9836 24.0002 15.1057 24 15.228ZM6.01561 15.7644C4.80721 15.7644 3.82801 16.7484 3.82801 17.9604C3.82801 19.1724 4.80721 20.1564 6.01561 20.1564C7.22401 20.1564 8.20321 19.1724 8.20321 17.9604C8.20321 16.7484 7.22401 15.7644 6.01561 15.7644ZM6.01561 16.8624C6.61921 16.8624 7.10881 17.3544 7.10881 17.9604C7.10912 18.1043 7.0811 18.2468 7.02633 18.3799C6.97156 18.5129 6.89112 18.6339 6.78961 18.7358C6.6881 18.8378 6.5675 18.9187 6.43469 18.9741C6.30189 19.0294 6.15948 19.0581 6.01561 19.0584C5.87163 19.0582 5.72909 19.0297 5.59615 18.9744C5.46321 18.9192 5.34247 18.8382 5.24083 18.7362C5.13919 18.6343 5.05864 18.5133 5.0038 18.3801C4.94896 18.247 4.92089 18.1044 4.92121 17.9604C4.92121 17.3532 5.41081 16.8624 6.01561 16.8624ZM15.2388 0.12C15.8504 0.121102 16.4558 0.242656 17.0204 0.477721C17.585 0.712786 18.0978 1.05676 18.5295 1.49C18.9612 1.92324 19.3033 2.43727 19.5363 3.00273C19.7693 3.56819 19.8887 4.17401 19.8876 4.7856C19.8889 5.39729 19.7696 6.00324 19.5367 6.56884C19.3037 7.13444 18.9616 7.64861 18.5299 8.08198C18.0982 8.51535 17.5854 8.85943 17.0207 9.09457C16.456 9.32971 15.8505 9.4513 15.2388 9.4524C14.6272 9.45114 14.0219 9.32943 13.4573 9.09422C12.8927 8.85901 12.38 8.5149 11.9485 8.08155C11.5169 7.6482 11.1749 7.13409 10.942 6.56857C10.7092 6.00305 10.5899 5.39719 10.5912 4.7856C10.589 3.55064 11.0773 2.36536 11.9489 1.49042C12.8205 0.615488 14.0038 0.122544 15.2388 0.12ZM4.92121 0C5.5329 0.00110199 6.13838 0.122695 6.70308 0.357835C7.26777 0.592975 7.78061 0.937056 8.21231 1.37042C8.64401 1.80379 8.9861 2.31796 9.21906 2.88356C9.45202 3.44916 9.57127 4.05511 9.57001 4.6668C9.57111 5.27849 9.4517 5.88441 9.2186 6.44995C8.9855 7.01549 8.64327 7.52957 8.21146 7.96282C7.77965 8.39608 7.26672 8.74003 6.70197 8.97502C6.13722 9.21002 5.5317 9.33146 4.92001 9.3324C3.68546 9.32954 2.50257 8.83662 1.6313 7.96198C0.760036 7.08734 0.271693 5.90254 0.273605 4.668C0.272185 4.05641 0.391242 3.45052 0.623977 2.88494C0.856713 2.31936 1.19857 1.80516 1.63003 1.3717C2.06149 0.938231 2.5741 0.593994 3.13859 0.358638C3.70309 0.123282 4.30961 0.00141663 4.92121 0ZM15.24 1.7664C14.8443 1.76719 14.4526 1.84591 14.0874 1.99806C13.7221 2.15022 13.3904 2.37283 13.1111 2.65319C12.8319 2.93355 12.6106 3.26616 12.4599 3.63204C12.3092 3.99792 12.232 4.3899 12.2328 4.7856C12.232 5.1813 12.3092 5.57328 12.4599 5.93916C12.6106 6.30504 12.8319 6.63765 13.1111 6.91801C13.3904 7.19837 13.7221 7.42098 14.0874 7.57314C14.4526 7.7253 14.8443 7.80401 15.24 7.8048C15.6358 7.80417 16.0276 7.72557 16.393 7.57348C16.7584 7.4214 17.0903 7.19881 17.3697 6.91844C17.6491 6.63806 17.8705 6.30539 18.0212 5.93944C18.172 5.57348 18.2492 5.1814 18.2484 4.7856C18.2492 4.3898 18.172 3.99772 18.0212 3.63176C17.8705 3.26581 17.6491 2.93314 17.3697 2.65276C17.0903 2.37239 16.7584 2.1498 16.393 1.99772C16.0276 1.84563 15.6358 1.76703 15.24 1.7664ZM4.92241 1.6464C4.5264 1.64703 4.13441 1.72571 3.76884 1.87795C3.40326 2.03018 3.07128 2.25298 2.79188 2.53361C2.51248 2.81424 2.29113 3.14719 2.1405 3.51343C1.98987 3.87966 1.9129 4.272 1.91401 4.668C1.91322 5.0637 1.99037 5.45568 2.14107 5.82156C2.29177 6.18744 2.51306 6.52005 2.79231 6.80041C3.07155 7.08077 3.40328 7.30338 3.76856 7.45554C4.13384 7.60769 4.52551 7.68641 4.92121 7.6872C5.31701 7.68657 5.7088 7.60797 6.07422 7.45588C6.43964 7.3038 6.77151 7.08121 7.05088 6.80084C7.33025 6.52046 7.55165 6.18779 7.70242 5.82184C7.8532 5.45588 7.93039 5.0638 7.92961 4.668C7.93071 4.2719 7.85371 3.87946 7.703 3.51315C7.55229 3.14684 7.33084 2.81383 7.05131 2.53319C6.77178 2.25254 6.43966 2.02977 6.07395 1.8776C5.70823 1.72544 5.31611 1.64687 4.92001 1.6464H4.92241Z" fill="#ECECEC"/>
</svg>
