<svg width="98" height="146" viewBox="0 0 98 146" fill="none" xmlns="http://www.w3.org/2000/svg">
<rect x="1" y="1" width="96.085" height="144.634" rx="8" fill="#7AE3FA" fill-opacity="0.06"/>
<path d="M69.8555 35.5821C64.1875 30.0798 58.0775 25.6696 53.0595 25.0651C52.7765 25.0229 52.4908 25.0012 52.2047 25.0001H19.201C18.9377 24.9979 18.6766 25.0486 18.4332 25.149C18.1898 25.2495 17.9691 25.3978 17.784 25.5851C17.4111 25.9627 17.2011 26.4714 17.199 27.0021V110.69C17.199 110.952 17.2508 111.212 17.3514 111.455C17.4521 111.698 17.5996 111.918 17.7855 112.104C17.9715 112.29 18.1922 112.437 18.4351 112.537C18.678 112.637 18.9382 112.689 19.201 112.688H78.884C79.1461 112.689 79.4057 112.637 79.6478 112.537C79.8899 112.437 80.1097 112.289 80.2945 112.103C80.4815 111.918 80.6301 111.698 80.7316 111.456C80.8331 111.213 80.8856 110.953 80.886 110.69V55.0008C80.769 48.5333 75.7055 41.4873 69.8555 35.5821ZM67.0377 38.4161C69.654 40.9706 72.0102 43.8631 73.7652 46.6516C72.2623 46.0741 70.7201 45.6049 69.1502 45.2476C66.3397 44.6403 63.4863 44.2524 60.6157 44.0873C60.6287 43.6583 60.632 43.1708 60.632 42.6411C60.632 39.8136 60.4532 35.7901 59.475 32.2411L59.4425 32.1436C62.1847 33.9656 64.7301 36.0678 67.0377 38.4161V38.4161ZM76.8755 108.681H21.1965V28.9878H52.208V28.9976C53.56 28.9163 54.7267 30.2521 55.6205 33.3071C56.433 36.2158 56.6377 40.0086 56.6345 42.6346C56.641 44.5651 56.5467 45.8586 56.5467 45.8586L56.3842 47.9776L58.5162 48.0003C58.526 48.0003 63.4432 48.0588 68.2662 49.1541C72.9007 50.1551 76.5212 52.1506 76.8625 54.4093C76.8787 54.6108 76.882 54.8123 76.8787 55.0008V108.671L76.8755 108.681Z" fill="#393939"/>
<path d="M32 59H65" stroke="#333333" stroke-width="2" stroke-linecap="round"/>
<path d="M32 68H65" stroke="#333333" stroke-width="2" stroke-linecap="round"/>
<path d="M32 77H65" stroke="#333333" stroke-width="2" stroke-linecap="round"/>
<path d="M32 86H65" stroke="#333333" stroke-width="2" stroke-linecap="round"/>
<path d="M61.7141 81.5C56.7141 81.5 52.4441 84.61 50.7141 89C52.4441 93.39 56.7141 96.5 61.7141 96.5C66.7141 96.5 70.9841 93.39 72.7141 89C70.9841 84.61 66.7141 81.5 61.7141 81.5ZM61.7141 94C58.9541 94 56.7141 91.76 56.7141 89C56.7141 86.24 58.9541 84 61.7141 84C64.4741 84 66.7141 86.24 66.7141 89C66.7141 91.76 64.4741 94 61.7141 94ZM61.7141 86C60.0541 86 58.7141 87.34 58.7141 89C58.7141 90.66 60.0541 92 61.7141 92C63.3741 92 64.7141 90.66 64.7141 89C64.7141 87.34 63.3741 86 61.7141 86Z" fill="#1F3F7F"/>
<path fill-rule="evenodd" clip-rule="evenodd" d="M61.7141 94C58.9541 94 56.7141 91.76 56.7141 89C56.7141 86.24 58.9541 84 61.7141 84C64.4741 84 66.7141 86.24 66.7141 89C66.7141 91.76 64.4741 94 61.7141 94ZM58.7141 89C58.7141 87.34 60.0541 86 61.7141 86C63.3741 86 64.7141 87.34 64.7141 89C64.7141 90.66 63.3741 92 61.7141 92C60.0541 92 58.7141 90.66 58.7141 89Z" fill="white"/>
<path d="M81.085 137.634H17V122.688H81.085V137.634Z" fill="#1F3F7F"/>
<path d="M29.1866 127.863C29.7733 127.863 30.288 127.977 30.7306 128.207C31.1786 128.436 31.5226 128.764 31.7626 129.191C32.008 129.612 32.1306 130.103 32.1306 130.663C32.1306 131.223 32.008 131.713 31.7626 132.135C31.5226 132.551 31.1786 132.873 30.7306 133.103C30.288 133.332 29.7733 133.447 29.1866 133.447H27.2346V127.863H29.1866ZM29.1466 132.495C29.7333 132.495 30.1866 132.335 30.5066 132.015C30.8266 131.695 30.9866 131.244 30.9866 130.663C30.9866 130.081 30.8266 129.628 30.5066 129.303C30.1866 128.972 29.7333 128.807 29.1466 128.807H28.3546V132.495H29.1466ZM34.089 127.863V133.447H32.969V127.863H34.089ZM34.9236 130.647C34.9236 130.097 35.0462 129.607 35.2916 129.175C35.5422 128.737 35.8809 128.399 36.3076 128.159C36.7396 127.913 37.2222 127.791 37.7556 127.791C38.3796 127.791 38.9262 127.951 39.3956 128.271C39.8649 128.591 40.1929 129.033 40.3796 129.599H39.0916C38.9636 129.332 38.7822 129.132 38.5476 128.999C38.3182 128.865 38.0516 128.799 37.7476 128.799C37.4222 128.799 37.1316 128.876 36.8756 129.031C36.6249 129.18 36.4276 129.393 36.2836 129.671C36.1449 129.948 36.0756 130.273 36.0756 130.647C36.0756 131.015 36.1449 131.34 36.2836 131.623C36.4276 131.9 36.6249 132.116 36.8756 132.271C37.1316 132.42 37.4222 132.495 37.7476 132.495C38.0516 132.495 38.3182 132.428 38.5476 132.295C38.7822 132.156 38.9636 131.953 39.0916 131.687H40.3796C40.1929 132.257 39.8649 132.703 39.3956 133.023C38.9316 133.337 38.3849 133.495 37.7556 133.495C37.2222 133.495 36.7396 133.375 36.3076 133.135C35.8809 132.889 35.5422 132.551 35.2916 132.119C35.0462 131.687 34.9236 131.196 34.9236 130.647ZM43.9282 133.503C43.4055 133.503 42.9255 133.38 42.4882 133.135C42.0508 132.889 41.7042 132.551 41.4482 132.119C41.1922 131.681 41.0642 131.188 41.0642 130.639C41.0642 130.095 41.1922 129.607 41.4482 129.175C41.7042 128.737 42.0508 128.396 42.4882 128.151C42.9255 127.905 43.4055 127.783 43.9282 127.783C44.4562 127.783 44.9362 127.905 45.3682 128.151C45.8055 128.396 46.1495 128.737 46.4002 129.175C46.6562 129.607 46.7842 130.095 46.7842 130.639C46.7842 131.188 46.6562 131.681 46.4002 132.119C46.1495 132.551 45.8055 132.889 45.3682 133.135C44.9308 133.38 44.4508 133.503 43.9282 133.503ZM43.9282 132.503C44.2642 132.503 44.5602 132.428 44.8162 132.279C45.0722 132.124 45.2722 131.905 45.4162 131.623C45.5602 131.34 45.6322 131.012 45.6322 130.639C45.6322 130.265 45.5602 129.94 45.4162 129.663C45.2722 129.38 45.0722 129.164 44.8162 129.015C44.5602 128.865 44.2642 128.791 43.9282 128.791C43.5922 128.791 43.2935 128.865 43.0322 129.015C42.7762 129.164 42.5762 129.38 42.4322 129.663C42.2882 129.94 42.2162 130.265 42.2162 130.639C42.2162 131.012 42.2882 131.34 42.4322 131.623C42.5762 131.905 42.7762 132.124 43.0322 132.279C43.2935 132.428 43.5922 132.503 43.9282 132.503ZM53.7054 127.863V133.447H52.5854V129.815L51.0894 133.447H50.2414L48.7374 129.815V133.447H47.6174V127.863H48.8894L50.6654 132.015L52.4414 127.863H53.7054ZM60.167 127.863V128.767H57.839V130.199H59.623V131.087H57.839V133.447H56.719V127.863H60.167ZM61.5292 128.487C61.3318 128.487 61.1665 128.425 61.0332 128.303C60.9052 128.175 60.8412 128.017 60.8412 127.831C60.8412 127.644 60.9052 127.489 61.0332 127.367C61.1665 127.239 61.3318 127.175 61.5292 127.175C61.7265 127.175 61.8892 127.239 62.0172 127.367C62.1505 127.489 62.2172 127.644 62.2172 127.831C62.2172 128.017 62.1505 128.175 62.0172 128.303C61.8892 128.425 61.7265 128.487 61.5292 128.487ZM62.0812 129.015V133.447H60.9612V129.015H62.0812ZM64.3077 127.527V133.447H63.1877V127.527H64.3077ZM69.5343 131.135C69.5343 131.295 69.5236 131.439 69.5023 131.567H66.2623C66.289 131.887 66.401 132.137 66.5983 132.319C66.7956 132.5 67.0383 132.591 67.3263 132.591C67.7423 132.591 68.0383 132.412 68.2143 132.055H69.4223C69.2943 132.481 69.049 132.833 68.6863 133.111C68.3236 133.383 67.8783 133.519 67.3503 133.519C66.9236 133.519 66.5396 133.425 66.1983 133.239C65.8623 133.047 65.5983 132.777 65.4063 132.431C65.2196 132.084 65.1263 131.684 65.1263 131.231C65.1263 130.772 65.2196 130.369 65.4063 130.023C65.593 129.676 65.8543 129.409 66.1903 129.223C66.5263 129.036 66.913 128.943 67.3503 128.943C67.7716 128.943 68.1476 129.033 68.4783 129.215C68.8143 129.396 69.073 129.655 69.2543 129.991C69.441 130.321 69.5343 130.703 69.5343 131.135ZM68.3743 130.815C68.369 130.527 68.265 130.297 68.0623 130.127C67.8596 129.951 67.6116 129.863 67.3183 129.863C67.041 129.863 66.8063 129.948 66.6143 130.119C66.4276 130.284 66.313 130.516 66.2703 130.815H68.3743Z" fill="white"/>
<rect x="1" y="1" width="96.085" height="144.634" rx="8" stroke="black" stroke-opacity="0.5" stroke-width="0.5"/>
</svg>
