<svg width="98" height="146" viewBox="0 0 98 146" fill="none" xmlns="http://www.w3.org/2000/svg">
<rect x="1" y="1" width="96.085" height="144.634" rx="8" fill="#7AE3FA" fill-opacity="0.06"/>
<path d="M69.8555 35.5821C64.1875 30.0798 58.0775 25.6696 53.0595 25.0651C52.7765 25.0229 52.4908 25.0012 52.2047 25.0001H19.201C18.9377 24.9979 18.6766 25.0486 18.4332 25.149C18.1898 25.2495 17.9691 25.3978 17.784 25.5851C17.4111 25.9627 17.2011 26.4714 17.199 27.0021V110.69C17.199 110.952 17.2508 111.212 17.3514 111.455C17.4521 111.698 17.5996 111.918 17.7855 112.104C17.9715 112.29 18.1922 112.437 18.4351 112.537C18.678 112.637 18.9382 112.689 19.201 112.688H78.884C79.1461 112.689 79.4057 112.637 79.6478 112.537C79.8899 112.437 80.1097 112.289 80.2945 112.103C80.4815 111.918 80.6301 111.698 80.7316 111.456C80.8331 111.213 80.8856 110.953 80.886 110.69V55.0008C80.769 48.5333 75.7055 41.4873 69.8555 35.5821ZM67.0377 38.4161C69.654 40.9706 72.0102 43.8631 73.7652 46.6516C72.2623 46.0741 70.7201 45.6049 69.1502 45.2476C66.3397 44.6403 63.4863 44.2524 60.6157 44.0873C60.6287 43.6583 60.632 43.1708 60.632 42.6411C60.632 39.8136 60.4532 35.7901 59.475 32.2411L59.4425 32.1436C62.1847 33.9656 64.7301 36.0678 67.0377 38.4161V38.4161ZM76.8755 108.681H21.1965V28.9878H52.208V28.9976C53.56 28.9163 54.7267 30.2521 55.6205 33.3071C56.433 36.2158 56.6377 40.0086 56.6345 42.6346C56.641 44.5651 56.5467 45.8586 56.5467 45.8586L56.3842 47.9776L58.5162 48.0003C58.526 48.0003 63.4432 48.0588 68.2662 49.1541C72.9007 50.1551 76.5212 52.1506 76.8625 54.4093C76.8787 54.6108 76.882 54.8123 76.8787 55.0008V108.671L76.8755 108.681Z" fill="#393939"/>
<path fill-rule="evenodd" clip-rule="evenodd" d="M48.12 52.4378C48.3222 52.3437 48.5424 52.2949 48.7654 52.2949C48.9884 52.2949 49.2087 52.3437 49.4108 52.4378L67.7638 61.0025C68.0277 61.1253 68.2511 61.321 68.4077 61.5665C68.5643 61.8119 68.6476 62.097 68.6478 62.3881V83.494C68.6476 83.7852 68.5643 84.0702 68.4077 84.3157C68.2511 84.5611 68.0277 84.7568 67.7638 84.8797L49.4108 93.4444C49.2087 93.5385 48.9884 93.5872 48.7654 93.5872C48.5424 93.5872 48.3222 93.5385 48.12 93.4444L29.7671 84.8797C29.5031 84.7568 29.2797 84.5611 29.1231 84.3157C28.9665 84.0702 28.8832 83.7852 28.8831 83.494V62.3881C28.8832 62.097 28.9665 61.8119 29.1231 61.5665C29.2797 61.321 29.5031 61.1253 29.7671 61.0025L48.12 52.4378ZM31.9419 64.7006L47.236 71.1975V89.6545L31.9419 82.5182V64.7006ZM50.2948 89.6575L65.5889 82.5213V64.7006L50.2948 71.1975V89.6545V89.6575ZM48.7654 68.5272L63.3621 62.3239L48.7654 55.5119L34.1687 62.3239L48.7654 68.5272Z" fill="#333333"/>
<path d="M64 79.5C59 79.5 54.73 82.61 53 87C54.73 91.39 59 94.5 64 94.5C69 94.5 73.27 91.39 75 87C73.27 82.61 69 79.5 64 79.5ZM64 92C61.24 92 59 89.76 59 87C59 84.24 61.24 82 64 82C66.76 82 69 84.24 69 87C69 89.76 66.76 92 64 92ZM64 84C62.34 84 61 85.34 61 87C61 88.66 62.34 90 64 90C65.66 90 67 88.66 67 87C67 85.34 65.66 84 64 84Z" fill="#1F3F7F"/>
<path fill-rule="evenodd" clip-rule="evenodd" d="M64 92C61.24 92 59 89.76 59 87C59 84.24 61.24 82 64 82C66.76 82 69 84.24 69 87C69 89.76 66.76 92 64 92ZM61 87C61 85.34 62.34 84 64 84C65.66 84 67 85.34 67 87C67 88.66 65.66 90 64 90C62.34 90 61 88.66 61 87Z" fill="white"/>
<path d="M81.085 137.634H17V122.688H81.085V137.634Z" fill="#1F3F7F"/>
<path d="M35.9523 127.863V133.447H34.8323V127.863H35.9523ZM39.6508 133.503C39.1282 133.503 38.6482 133.38 38.2108 133.135C37.7735 132.889 37.4268 132.551 37.1708 132.119C36.9148 131.681 36.7868 131.188 36.7868 130.639C36.7868 130.095 36.9148 129.607 37.1708 129.175C37.4268 128.737 37.7735 128.396 38.2108 128.151C38.6482 127.905 39.1282 127.783 39.6508 127.783C40.1788 127.783 40.6588 127.905 41.0908 128.151C41.5282 128.396 41.8722 128.737 42.1228 129.175C42.3788 129.607 42.5068 130.095 42.5068 130.639C42.5068 131.188 42.3788 131.681 42.1228 132.119C41.8722 132.551 41.5282 132.889 41.0908 133.135C40.6535 133.38 40.1735 133.503 39.6508 133.503ZM39.6508 132.503C39.9868 132.503 40.2828 132.428 40.5388 132.279C40.7948 132.124 40.9948 131.905 41.1388 131.623C41.2828 131.34 41.3548 131.012 41.3548 130.639C41.3548 130.265 41.2828 129.94 41.1388 129.663C40.9948 129.38 40.7948 129.164 40.5388 129.015C40.2828 128.865 39.9868 128.791 39.6508 128.791C39.3148 128.791 39.0162 128.865 38.7548 129.015C38.4988 129.164 38.2988 129.38 38.1548 129.663C38.0108 129.94 37.9388 130.265 37.9388 130.639C37.9388 131.012 38.0108 131.34 38.1548 131.623C38.2988 131.905 38.4988 132.124 38.7548 132.279C39.0162 132.428 39.3148 132.503 39.6508 132.503ZM45.2681 133.503C44.8788 133.503 44.5268 133.436 44.2121 133.303C43.9028 133.169 43.6574 132.977 43.4761 132.727C43.2948 132.476 43.2014 132.18 43.1961 131.839H44.3961C44.4121 132.068 44.4921 132.249 44.6361 132.383C44.7854 132.516 44.9881 132.583 45.2441 132.583C45.5054 132.583 45.7108 132.521 45.8601 132.399C46.0094 132.271 46.0841 132.105 46.0841 131.903C46.0841 131.737 46.0334 131.601 45.9321 131.495C45.8308 131.388 45.7028 131.305 45.5481 131.247C45.3988 131.183 45.1908 131.113 44.9241 131.039C44.5614 130.932 44.2654 130.828 44.0361 130.727C43.8121 130.62 43.6174 130.463 43.4521 130.255C43.2921 130.041 43.2121 129.759 43.2121 129.407C43.2121 129.076 43.2948 128.788 43.4601 128.543C43.6254 128.297 43.8574 128.111 44.1561 127.983C44.4548 127.849 44.7961 127.783 45.1801 127.783C45.7561 127.783 46.2228 127.924 46.5801 128.207C46.9428 128.484 47.1428 128.873 47.1801 129.375H45.9481C45.9374 129.183 45.8548 129.025 45.7001 128.903C45.5508 128.775 45.3508 128.711 45.1001 128.711C44.8814 128.711 44.7054 128.767 44.5721 128.879C44.4441 128.991 44.3801 129.153 44.3801 129.367C44.3801 129.516 44.4281 129.641 44.5241 129.743C44.6254 129.839 44.7481 129.919 44.8921 129.983C45.0414 130.041 45.2494 130.111 45.5161 130.191C45.8788 130.297 46.1748 130.404 46.4041 130.511C46.6334 130.617 46.8308 130.777 46.9961 130.991C47.1614 131.204 47.2441 131.484 47.2441 131.831C47.2441 132.129 47.1668 132.407 47.0121 132.663C46.8574 132.919 46.6308 133.124 46.3321 133.279C46.0334 133.428 45.6788 133.503 45.2681 133.503ZM53.5693 127.863V128.767H51.2413V130.199H53.0253V131.087H51.2413V133.447H50.1213V127.863H53.5693ZM54.9315 128.487C54.7342 128.487 54.5689 128.425 54.4355 128.303C54.3075 128.175 54.2435 128.017 54.2435 127.831C54.2435 127.644 54.3075 127.489 54.4355 127.367C54.5689 127.239 54.7342 127.175 54.9315 127.175C55.1289 127.175 55.2915 127.239 55.4195 127.367C55.5529 127.489 55.6195 127.644 55.6195 127.831C55.6195 128.017 55.5529 128.175 55.4195 128.303C55.2915 128.425 55.1289 128.487 54.9315 128.487ZM55.4835 129.015V133.447H54.3635V129.015H55.4835ZM57.7101 127.527V133.447H56.5901V127.527H57.7101ZM62.9366 131.135C62.9366 131.295 62.926 131.439 62.9046 131.567H59.6646C59.6913 131.887 59.8033 132.137 60.0006 132.319C60.198 132.5 60.4406 132.591 60.7286 132.591C61.1446 132.591 61.4406 132.412 61.6166 132.055H62.8246C62.6966 132.481 62.4513 132.833 62.0886 133.111C61.726 133.383 61.2806 133.519 60.7526 133.519C60.326 133.519 59.942 133.425 59.6006 133.239C59.2646 133.047 59.0006 132.777 58.8086 132.431C58.622 132.084 58.5286 131.684 58.5286 131.231C58.5286 130.772 58.622 130.369 58.8086 130.023C58.9953 129.676 59.2566 129.409 59.5926 129.223C59.9286 129.036 60.3153 128.943 60.7526 128.943C61.174 128.943 61.55 129.033 61.8806 129.215C62.2166 129.396 62.4753 129.655 62.6566 129.991C62.8433 130.321 62.9366 130.703 62.9366 131.135ZM61.7766 130.815C61.7713 130.527 61.6673 130.297 61.4646 130.127C61.262 129.951 61.014 129.863 60.7206 129.863C60.4433 129.863 60.2086 129.948 60.0166 130.119C59.83 130.284 59.7153 130.516 59.6726 130.815H61.7766Z" fill="white"/>
<rect x="1" y="1" width="96.085" height="144.634" rx="8" stroke="black" stroke-opacity="0.5" stroke-width="0.5"/>
</svg>
