<svg width="25" height="24" viewBox="0 0 25 24" fill="none" xmlns="http://www.w3.org/2000/svg">
<path d="M12.502 1.96946C12.6435 1.76661 12.8253 1.59509 13.036 1.4656C13.2467 1.33612 13.4819 1.25145 13.7268 1.21689C13.9717 1.18232 14.2211 1.19859 14.4594 1.26469C14.6977 1.33079 14.9199 1.4453 15.112 1.60106L19.036 4.78706C19.3866 5.07158 19.6175 5.47748 19.6828 5.92425C19.7482 6.37103 19.6432 6.82605 19.3888 7.19906H17.9248L18.3928 6.52826C18.4799 6.40401 18.5167 6.25137 18.4958 6.10107C18.4749 5.95077 18.3978 5.81399 18.28 5.71826L16.2592 4.07906L14.104 7.19906H12.6436L15.3244 3.32066L14.3548 2.53346C14.2908 2.48152 14.2168 2.44333 14.1373 2.42126C14.0579 2.3992 13.9748 2.39374 13.8932 2.40522C13.8115 2.41671 13.7331 2.44489 13.6629 2.48801C13.5926 2.53114 13.532 2.58828 13.4848 2.65586L10.3156 7.19786H8.85161L12.502 1.96946ZM16.6996 14.3991C16.5405 14.3991 16.3879 14.4623 16.2753 14.5748C16.1628 14.6873 16.0996 14.8399 16.0996 14.9991C16.0996 15.1582 16.1628 15.3108 16.2753 15.4233C16.3879 15.5359 16.5405 15.5991 16.6996 15.5991H17.8996C18.0587 15.5991 18.2114 15.5359 18.3239 15.4233C18.4364 15.3108 18.4996 15.1582 18.4996 14.9991C18.4996 14.8399 18.4364 14.6873 18.3239 14.5748C18.2114 14.4623 18.0587 14.3991 17.8996 14.3991H16.6996ZM5.89961 5.99906H8.50241L7.66241 7.19906H5.89961C5.74048 7.19906 5.58787 7.26228 5.47535 7.3748C5.36282 7.48732 5.29961 7.63993 5.29961 7.79906C5.29961 7.95819 5.36282 8.11081 5.47535 8.22333C5.58787 8.33585 5.74048 8.39906 5.89961 8.39906H18.4996C19.1361 8.39906 19.7466 8.65192 20.1967 9.10201C20.6468 9.5521 20.8996 10.1625 20.8996 10.7991V17.9991C20.8996 18.6356 20.6468 19.246 20.1967 19.6961C19.7466 20.1462 19.1361 20.3991 18.4996 20.3991H7.09961C6.30396 20.3991 5.5409 20.083 4.97829 19.5204C4.41568 18.9578 4.09961 18.1947 4.09961 17.3991V7.79906C4.09961 7.32167 4.28925 6.86384 4.62682 6.52627C4.96438 6.18871 5.42222 5.99906 5.89961 5.99906ZM5.29961 17.3991C5.29961 17.8765 5.48925 18.3343 5.82682 18.6719C6.16438 19.0094 6.62222 19.1991 7.09961 19.1991H18.4996C18.8179 19.1991 19.1231 19.0726 19.3481 18.8476C19.5732 18.6225 19.6996 18.3173 19.6996 17.9991V10.7991C19.6996 10.4808 19.5732 10.1756 19.3481 9.95054C19.1231 9.72549 18.8179 9.59906 18.4996 9.59906H5.89961C5.68961 9.59906 5.48681 9.56306 5.29961 9.49706V17.3991Z" fill="white"/>
</svg>
